<svg width="24" height="24" viewBox="0 0 24 24" fill="none" xmlns="http://www.w3.org/2000/svg">
<path fill-rule="evenodd" clip-rule="evenodd" d="M15.3517 10.9377C15.5392 11.1252 15.6445 11.3795 15.6445 11.6447C15.6445 11.9099 15.5392 12.1642 15.3517 12.3517L9.69475 18.0087C9.50614 18.1909 9.25354 18.2917 8.99134 18.2894C8.72915 18.2871 8.47833 18.1819 8.29293 17.9965C8.10752 17.8111 8.00235 17.5603 8.00007 17.2981C7.99779 17.0359 8.09859 16.7833 8.28074 16.5947L13.2307 11.6447L8.28074 6.69471C8.09859 6.50611 7.99779 6.25351 8.00007 5.99131C8.00235 5.72911 8.10752 5.4783 8.29293 5.29289C8.47833 5.10748 8.72915 5.00232 8.99134 5.00004C9.25354 4.99776 9.50614 5.09855 9.69475 5.28071L15.3517 10.9377Z" fill="white"/>
</svg>
