<svg width="24" height="24" viewBox="0 0 24 24" fill="none" xmlns="http://www.w3.org/2000/svg">
<path d="M5.95 19C4.57793 19 3.4101 18.5336 2.4465 17.6007C1.48217 16.6693 1 15.5346 1 14.1968C1 12.9689 1.43083 11.8793 2.2925 10.9279C3.15417 9.97643 4.2252 9.46536 5.5056 9.39464C5.75273 7.83393 6.48973 6.54464 7.7166 5.52679C8.94347 4.50893 10.3713 4 12 4C13.8348 4 15.3935 4.62464 16.6761 5.87393C17.9587 7.12321 18.6 8.64143 18.6 10.4286V11.5H19.2776C20.3307 11.5329 21.2143 11.9096 21.9286 12.6304C22.6429 13.3511 23 14.2243 23 15.25C23 16.3007 22.6282 17.1886 21.8846 17.9136C21.1395 18.6379 20.228 19 19.15 19H5.95ZM5.95 17.9286H19.15C19.92 17.9286 20.5708 17.6696 21.1025 17.1518C21.6342 16.6339 21.9 16 21.9 15.25C21.9 14.5 21.6342 13.8661 21.1025 13.3482C20.5708 12.8304 19.92 12.5714 19.15 12.5714H17.5V10.4286C17.5 8.94643 16.9636 7.68286 15.8907 6.63786C14.8178 5.59286 13.5209 5.07071 12 5.07143C10.4791 5.07214 9.18217 5.59464 8.1093 6.63893C7.03643 7.68321 6.5 8.94643 6.5 10.4286H5.95C4.88667 10.4286 3.97917 10.7946 3.2275 11.5268C2.47583 12.2589 2.1 13.1429 2.1 14.1786C2.1 15.2143 2.47583 16.0982 3.2275 16.8304C3.97917 17.5625 4.88667 17.9286 5.95 17.9286Z" fill="#5B4C39"/>
</svg>
