<svg width="200" height="200" viewBox="0 0 200 200" fill="none" xmlns="http://www.w3.org/2000/svg">
<path d="M64.0141 13.5196C68.2056 13.4226 76.4973 13.6489 80.3606 14.6244C91.0304 17.3299 87.9904 27.2356 88.2971 35.7778C88.3455 37.0551 88.8513 38.23 88.8782 39.5073C89.5292 69.1598 81.6735 96.5273 82.9164 126.32C83.5459 141.405 93.6239 184.375 69.7822 186.412C41.4799 188.826 51.7247 141.443 52.295 125.242C53.0752 103.059 49.2495 85.7161 46.8982 64.3148C45.3539 50.2538 46.2471 36.9042 46.3494 22.8163C46.6561 19.0168 49.5509 16.1011 53.0483 14.9747C55.8409 14.0747 61.0547 13.5843 64.0141 13.5196ZM58.0792 15.1634C53.7693 15.6322 48.69 17.1197 47.6676 21.981C47.1565 24.417 46.9897 36.0581 47.4416 38.4348C47.8129 40.3804 51.4395 42.7517 53.2043 43.4416C59.4836 45.8992 81.4744 46.4974 86.1878 41.1565C86.9411 40.2996 87.1348 39.5666 87.264 38.4618C87.6891 34.77 87.6568 22.6924 86.0479 19.712C84.1432 16.1766 78.7894 15.2927 75.136 15.0125C70.401 14.646 62.7766 14.6568 58.0846 15.1634H58.0792ZM87.2532 40.8762C85.4884 44.7835 78.0146 45.9908 74.0867 46.2818C65.4238 46.9178 53.5272 47.0525 46.8982 40.8708C46.0803 56.8235 49.7769 72.4043 51.6655 88.0982C53.1774 100.672 53.8124 113.078 53.3711 125.776C52.8815 139.934 47.4685 166.584 55.2651 178.263C61.6305 187.802 74.5279 187.619 80.6942 177.934C88.3132 165.97 82.4752 141.394 81.8456 127.392C80.5112 97.9069 89.2172 70.3671 87.7859 42.2074C87.7536 41.5984 88.1356 40.7253 87.2532 40.8708V40.8762Z" fill="#5B4C39"/>
<path d="M124.955 17.9815C137.266 16.494 148.926 24.2763 152.127 36.2732C156.184 51.4821 147.188 75.12 145.046 90.9218C143.545 102.029 143.351 116.284 143.884 127.527C144.594 142.585 151.923 168.438 140.952 180.596C134.263 188.007 123.556 188.632 116.469 181.394C104.32 168.987 112.407 141.038 113.257 125.371C113.919 113.148 113.3 98.7849 111.465 86.7019C109.335 72.684 100.946 47.4185 105.014 34.6563C107.737 26.1303 116.061 19.054 124.955 17.9815ZM126.036 19.0756C110.066 20.4445 100.451 38.0409 106.854 52.5222C115.409 71.8648 142.953 70.8085 150.373 50.9916C156.448 34.7749 143.179 17.6043 126.036 19.0756ZM106.246 53.945C107.656 63.8723 110.357 73.6002 111.987 83.4844C114.28 97.319 115.097 112.366 114.306 126.427C113.408 142.337 104.637 170.82 119.434 182.202C126.198 187.403 134.559 186.029 140.128 179.777C150.669 167.942 143.448 141.792 142.808 126.993C142.324 115.729 142.431 101.496 143.97 90.3882C145.735 77.6962 150.416 64.7454 151.433 51.7893L148.646 56.8068C140.419 69.7522 121.011 71.2181 110.529 60.159L106.246 53.9504V53.945Z" fill="#5B4C39"/>
<path d="M126.236 121.051C125.638 120.458 125.617 119.073 125.547 118.238C125.261 114.837 125.105 106.332 125.601 103.158C126.172 99.5254 130.321 99.2775 130.941 102.597C131.383 104.969 131.307 116.734 130.919 119.256C130.774 120.199 130.445 121.207 129.513 121.649C128.699 121.908 126.824 121.644 126.231 121.051H126.236ZM129.885 119.833V102.587C129.885 101.649 127.33 100.452 126.786 103.233C125.854 107.971 127.336 114.244 126.765 119.186C127.066 120.194 128.36 121.121 129.357 120.383L129.885 119.833Z" fill="#5B4C39"/>
<path d="M142.625 55.235C124.027 75.0844 95.6326 44.7902 114.985 27.0535C133.205 10.3461 159.509 37.218 142.625 55.235ZM127.627 23.2162C106.605 23.9707 106.874 59.1154 130.694 56.5069C150.288 54.3619 147.874 22.494 127.627 23.2162ZM144.98 34.949C148.563 48.3041 137.058 61.0502 123.526 57.2021C113.028 54.2164 108.674 43.3512 112.096 33.3322C111.315 33.2567 111.223 34.6041 111.018 35.2077C105.031 52.5672 125.224 67.9433 139.591 56.2428C144.953 51.8773 147.27 45.4747 146.451 38.5923C146.354 37.7785 145.901 35.2616 144.98 34.9544V34.949Z" fill="#5B4C39"/>
</svg>
