<svg width="201" height="271" viewBox="0 0 201 271" fill="none" xmlns="http://www.w3.org/2000/svg">
<mask id="mask0_3587_2051" style="mask-type:luminance" maskUnits="userSpaceOnUse" x="27" y="10" width="160" height="261">
<path d="M186.587 10.2075H27.8848V270.091H186.587V10.2075Z" fill="white"/>
</mask>
<g mask="url(#mask0_3587_2051)">
<path d="M119.958 268.744C119.861 269.143 119.683 269.559 119.941 270.098C120.455 269.319 120.683 268.51 120.928 267.724C124.407 256.536 126.786 245.094 129.343 233.695C131.47 224.209 133.238 214.633 135.906 205.261C136.386 203.581 137.033 201.957 137.657 200.333C140.026 194.128 144.724 190.931 151.391 190.275C161.188 189.307 170.268 191.536 178.803 196.123C181.437 197.536 183.87 199.235 186.256 201.021C186.363 200.908 186.477 200.791 186.584 200.67C186.078 200.264 185.551 199.865 185.051 199.436C178.525 193.852 170.858 190.483 162.339 189.236C155.897 188.297 151.313 184.97 147.626 180.11C143.157 174.227 140.365 167.552 138.03 160.671C136.842 157.169 135.973 153.58 135.087 150.019C135.218 149.941 135.299 149.866 135.346 149.876C139.624 151.786 143.58 150.666 147.384 148.59C153.196 145.422 157.672 140.839 161.507 135.661C168.617 126.055 171.851 115.159 172.623 103.503C172.861 99.8291 172.103 96.2979 170.1 93.1176C168.801 91.0645 168.556 89.3688 170.18 87.1403C173.146 83.0601 173.72 78.2717 173.197 73.3632C172.589 67.5872 170.6 62.2076 168.013 57.0262C163.262 47.5015 158.125 38.1749 151.683 29.602C147.089 23.4817 141.831 17.9949 135.013 14.0902C132.393 12.5991 129.638 11.4296 126.655 10.7831C123.938 10.1984 121.257 10.2439 118.619 11.147C114.231 12.6543 110.912 15.7437 107.299 18.401C108.658 18.0826 109.745 17.2802 110.879 16.5591C112.204 15.7242 113.509 14.8633 114.811 14.0057C119.814 10.7182 125.065 10.7442 130.46 12.9694C136.513 15.4643 141.442 19.4308 145.767 24.1444C152.253 31.2035 157.135 39.3054 161.816 47.534C165.006 53.1442 168.214 58.7577 170.325 64.865C172.143 70.1341 173.14 75.4812 171.67 81.0037C170.982 83.5701 169.885 85.9545 168.228 88.0823C167.805 87.9946 167.939 87.6828 167.942 87.4619C168.127 79.4542 165.855 72.1222 160.906 65.7583C155.786 59.1897 152.3 51.9292 149.549 44.2172C146.854 36.6968 142.509 30.1542 135.698 25.4406C127.504 19.7751 118.361 17.5304 108.346 18.6869C101.363 19.4892 95.1458 22.2603 89.2572 25.8077C87.8077 26.688 86.3952 27.6269 84.9557 28.5137C80.6039 31.1808 76.4333 34.2506 70.9776 34.4196C70.9843 35.0303 71.3936 34.8711 71.652 34.8906C74.665 35.1505 77.3761 34.1759 79.8959 32.7336C83.0298 30.9534 86.1938 29.1829 89.1499 27.1526C94.1895 23.6929 99.3936 23.2056 105.225 25.0638C112.681 27.4514 119.542 30.6285 124.723 36.5474C129.004 41.4364 131.524 47.1831 133.289 53.2969C135.07 59.4821 135.872 65.8525 137.198 72.1222C138.047 76.1634 139.164 80.1266 140.959 83.8885C145.348 93.0786 152.186 99.0462 163.121 99.5822C164.184 99.6374 165.204 99.8713 166.198 100.212C169.848 101.46 171.543 104.052 171.153 107.778C170.2 116.838 167.234 125.233 162.151 132.912C161.614 133.721 161.037 134.514 160.473 135.303C160.017 136.135 159.443 136.872 158.521 137.353C159.047 136.554 159.578 135.755 160.104 134.956C163.255 129.144 165.339 123.095 164.114 116.419C163.369 112.378 161.134 109.224 157.561 106.973C155.722 105.81 153.776 104.835 151.78 103.958C145.046 101.025 139.191 96.9736 134.352 91.5355C131.011 87.7802 126.981 84.7656 122.871 81.8614C111.231 73.636 101.071 63.8806 91.4516 53.547C87.2608 49.0445 83.2177 44.3699 78.2753 40.5918C69.102 33.5749 58.8717 31.0378 47.5844 34.7054C41.0181 36.8462 36.0321 40.9297 34.2169 47.7841C33.1164 51.9585 33.9217 56.0419 35.0625 60.0993C36.3979 64.8715 38.1493 69.5429 39.223 74.4027C41.1456 83.1218 40.035 91.3276 35.2168 99.0234C33.1936 102.249 31.2844 105.54 29.845 109.065C27.0198 115.997 27.7177 122.582 31.6099 128.959C33.5727 132.175 36.0254 135.086 38.0319 138.266C39.7632 141.011 41.0718 143.909 41.4811 147.121C42.0817 151.923 40.3471 155.928 37.2367 159.541C34.9383 162.208 32.4185 164.706 30.4321 167.63C30.4657 167.821 30.412 168.062 30.6939 168.133C33.2405 165.326 35.7838 162.523 38.3305 159.716C43.4205 154.116 43.6722 147.885 40.8235 141.294C39.3774 137.941 37.126 135.04 35.0222 132.061C32.7238 128.829 30.7576 125.434 29.9557 121.516C28.9894 116.793 30.0463 112.336 31.9555 108.002C33.4821 104.513 35.4953 101.275 37.2803 97.9189C40.2732 92.3087 41.669 86.3963 41.0282 80.0876C40.9342 79.1488 41.3671 79.0221 42.1421 79.0156C45.3028 78.9994 48.4535 79.1196 51.6074 79.2885C51.9497 79.3047 52.2986 79.2885 52.8254 79.2885C51.4531 77.2549 49.7654 75.9685 47.2858 75.858C45.8766 75.7963 44.4908 76.0302 43.1219 76.3518C42.3468 76.5402 41.8938 76.4915 41.9979 75.491C42.9239 66.6517 43.9775 57.8416 47.269 49.4603C49.0037 45.0521 51.3625 41.0141 55.3889 38.1099C57.1672 36.83 59.1636 36.0146 61.4619 35.4331C60.2205 35.1083 58.6066 35.3584 56.9793 36.0633C53.1307 37.7428 50.527 40.6795 48.4535 44.1132C44.9707 49.8859 43.4004 56.2758 42.2998 62.7891C41.7328 66.1871 41.2865 69.5916 41.1355 73.0318C41.1121 73.5776 41.0215 74.1201 40.9342 74.864C40.394 74.1006 40.4242 73.3632 40.2363 72.7134C38.8439 67.8439 37.3877 62.997 36.1093 58.108C35.0759 54.1415 34.841 50.1295 36.4583 46.2183C38.7533 40.6178 43.2695 37.3822 49.0071 35.6638C59.4152 32.5549 68.7463 35.0076 77.2016 41.2123C81.9863 44.7207 85.761 49.2362 89.7807 53.495C97.8837 62.0907 106.168 70.5109 115.58 77.8072C119.002 80.458 122.505 83.0016 126.018 85.5485C129.44 88.0271 132.383 90.98 135.235 94.0467C137.124 96.0608 139.157 97.9352 141.493 99.4717C142.167 99.92 142.251 100.32 142.013 101.034C141.429 102.759 141.083 104.572 140.067 106.151C138.174 109.068 135.627 109.796 132.406 108.321C132.229 108.236 132.041 108.162 131.608 107.973C132.088 108.896 131.786 109.623 131.698 110.354C130.578 118.83 130.984 127.299 131.833 135.758C132.698 144.471 134.238 153.076 136.986 161.444C139.352 168.63 142.378 175.52 147.233 181.533C148.421 183.005 149.743 184.356 151.186 185.613C152.582 186.828 154.155 187.8 156.169 188.804C153.585 188.946 151.407 189.076 149.253 189.46C143.153 190.542 138.929 193.865 136.52 199.368C134.141 204.79 132.987 210.546 131.742 216.273C128.83 229.586 126.216 242.976 123.052 256.247C122.052 260.418 120.988 264.566 119.968 268.744H119.958ZM164.782 97.5129C164.604 98.0489 164.507 98.6791 163.597 98.5589C160.735 98.2016 157.836 98.0294 155.115 96.9476C149.508 94.7094 145.861 90.5252 143.116 85.49C140.157 80.0519 138.731 74.1461 137.533 68.1785C136.376 62.4415 135.621 56.6201 133.866 50.9937C131.49 43.3953 127.685 36.6871 121.116 31.694C114.432 26.6133 106.715 23.9333 98.2159 22.5201C99.3835 22.1206 100.32 21.7762 101.269 21.4774C112.556 17.9169 123.317 18.9013 133.4 25.119C140.194 29.3226 144.536 35.4559 147.606 42.5247C149.29 46.3937 150.77 50.344 152.448 54.213C154.39 58.709 157.444 62.5715 160.232 66.5802C163.879 71.7941 166.268 77.4563 166.617 83.843C166.872 88.5241 166.214 93.0623 164.778 97.5129H164.782ZM171.314 103.162C170.19 100.999 168.358 99.7901 166.151 99.0299C165.788 98.9065 165.412 98.848 165.637 98.2568C166.587 95.8821 167.147 93.4067 167.607 90.6162C170.949 97.279 171.955 100.68 171.311 103.159L171.314 103.162ZM157.189 108.032C153.8 111.014 150.065 111.433 146.643 109.286C143.412 107.258 142.11 104.049 143.217 100.683C147.66 103.503 152.719 105.205 157.189 108.032ZM159.212 110.695C156.682 114.474 153.659 117.784 149.777 120.311C147.421 121.838 144.905 123.007 142.093 123.488C138.976 124.018 136.074 123.55 133.483 121.698C132.564 121.036 131.987 120.256 132.084 119.025C132.235 116.864 132.235 114.704 132.326 112.541C132.373 111.469 132.484 110.393 132.564 109.308C137.201 110.643 138.976 109.867 141.885 105.238C142.154 105.754 142.365 106.173 142.6 106.58C145.673 111.871 152.807 113.726 157.299 109.065C157.913 108.434 158.246 108.906 158.544 109.24C158.903 109.633 159.833 109.77 159.215 110.699L159.212 110.695ZM134.607 147.888C133.983 144.542 133.453 141.19 133.017 137.824C132.906 136.963 133.057 136.635 134.054 136.755C136.802 137.087 139.379 136.45 141.788 135.209C147.066 132.487 150.716 128.335 153.088 123.069C153.001 122.891 153.088 122.627 152.807 122.549C150.934 126.217 148.371 129.362 145.086 131.934C141.872 134.465 138.281 136.076 133.997 135.842C133.081 135.79 132.718 135.505 132.638 134.579C132.282 130.557 132.114 126.532 132.047 122.504C132.041 122.322 131.947 122.065 132.316 121.984C135.5 124.687 139.271 125.139 143.267 124.271C147.19 123.414 150.579 121.49 153.562 118.888C156.205 116.575 158.396 113.912 159.96 110.676C160.272 110.998 160.494 111.205 160.681 111.43C160.926 111.732 161.155 112.05 161.356 112.375C163.302 115.474 163.95 118.833 163.45 122.4C162.466 129.375 159.215 135.358 154.716 140.767C152.068 143.941 149.018 146.637 145.2 148.447C142.154 149.892 139.04 150.328 135.809 149.061C135.238 148.837 134.748 148.632 134.607 147.891V147.888Z" fill="#5B4C39"/>
</g>
<path d="M153.859 120.919C153.826 120.978 153.792 121.046 153.752 121.104V121.078C153.792 121.026 153.826 120.971 153.859 120.919Z" fill="#5B4C39"/>
<path d="M58.9477 150.818C58.6055 150.126 58.3136 149.421 58.0384 148.7C56.438 144.441 55.5119 139.952 53.5088 135.826C53.6329 135.716 53.7437 135.615 53.8577 135.498C55.5958 138.045 56.5218 140.926 57.4815 143.788C58.3069 146.251 59.0551 148.742 60.3872 151.01C62.5715 154.736 65.4067 156.094 69.7853 155.558C72.634 155.207 75.3551 154.369 77.9756 153.287C89.1823 148.648 100.147 143.538 110.65 137.544C117.286 133.74 122.188 128.514 124.705 121.321C125.715 118.43 126.829 115.575 127.943 112.716C128.261 111.897 128.496 111.001 129.459 110.179C128.48 113.697 127.275 116.832 126.336 120.048C123.859 128.442 118.451 134.442 110.74 138.753C102.459 143.379 93.9301 147.518 85.2533 151.4C80.6766 153.44 76.0832 155.437 71.1275 156.497C65.3798 157.728 61.4743 155.909 58.9578 150.815L58.9477 150.818Z" fill="#5B4C39"/>
<path d="M82.935 76.872C79.3582 77.9733 75.7479 78.9478 72.1074 79.9938C72.4866 77.4015 74.2615 75.5466 77.0129 74.8969C79.6904 74.2699 82.3914 73.7339 85.0824 73.1459C90.2093 72.0317 95.2288 72.1454 100.178 74.088C103.466 75.3712 106.818 76.5049 110.133 77.7101C110.331 77.7783 110.552 77.8303 110.482 78.2006C108.378 78.022 106.345 77.4827 104.365 76.8493C97.2051 74.5688 90.0818 74.6792 82.935 76.8785V76.872Z" fill="#5B4C39"/>
<path d="M101.523 17.0574C99.0804 16.9015 96.8357 16.0471 94.6313 15.0985C89.4574 12.8538 84.2097 12.4964 78.7507 14.1239C73.2312 15.7742 68.0741 18.1586 63.0881 20.9264C56.5218 24.5875 50.64 29.1192 45.1339 34.1382C44.5266 34.6873 43.9999 35.3694 43.1745 35.6683C43.0201 35.3727 43.1745 35.2655 43.2852 35.1485C52.6699 25.1658 63.8632 17.8305 77.1133 13.536C82.3207 11.8467 87.5382 11.4731 92.806 13.4255C96.7284 14.8874 100.506 16.9339 104.966 16.5896C103.855 17.1906 102.687 17.1353 101.523 17.0606V17.0574Z" fill="#5B4C39"/>
<path d="M86.8642 156.978C88.3204 158.963 89.2766 161.205 90.1222 163.485C94.1586 174.342 96.7086 185.559 98.5507 196.929C99.1211 200.447 99.5505 203.982 99.4834 207.536C99.007 206.863 99.111 206.119 99.017 205.421C97.2052 192.586 94.323 179.972 90.3671 167.604C88.9075 163.024 87.4178 158.427 83.935 154.776C83.8813 154.717 83.9249 154.565 83.9249 154.402C85.2033 155.016 86.0958 155.936 86.8642 156.978Z" fill="#5B4C39"/>
<path d="M74.4092 94.2067C74.6306 93.7551 74.6508 93.6577 74.7078 93.6024C74.8017 93.518 74.9192 93.4562 75.0366 93.388C76.7847 92.3095 78.5261 91.4324 80.3816 91.9814C82.8712 92.7123 86.0789 92.8845 88.7162 92.6539C92.001 92.368 94.2189 92.4687 97.0306 90.9516C98.3056 90.2694 99.5068 89.4086 101.114 88.905C100.953 89.2169 100.903 89.3663 100.809 89.4833C99.6981 90.7437 98.3996 91.806 96.9702 92.7773C98.0473 93.8915 99.4598 94.3821 100.899 95.139C100.178 95.3209 99.7048 95.2007 99.2183 95.0448C98.1647 94.7134 97.195 94.2294 96.2253 93.7389C95.8797 93.5699 95.4838 93.531 95.2926 93.8818C95.0946 94.2359 95.514 94.4016 95.7321 94.5478C96.4703 95.0448 97.2386 95.4931 98.0842 96.0193C97.5104 96.2955 97.0507 96.146 96.6414 95.9609C95.8395 95.6198 95.061 95.23 94.296 94.8239C93.9303 94.6257 93.5109 94.4178 93.219 94.7427C92.8331 95.178 93.4505 95.3566 93.6619 95.5873C93.9672 95.9316 94.3665 96.198 94.9537 96.6821C93.6787 96.5651 92.9875 96.0258 92.2459 95.584C91.8634 95.3599 91.434 95.074 91.0447 95.3664C90.632 95.6653 91.0917 96.0388 91.1622 96.3767C91.1857 96.4774 91.1555 96.5878 91.142 96.7373C90.4106 96.3409 90.1086 95.4151 89.045 95.5451C87.7566 95.7042 88.6726 96.9809 87.9579 97.3935C87.4948 96.7308 88.0954 94.577 86.0957 96.1655C86.0789 96.1785 85.9917 96.1558 85.9782 96.1233C85.2166 94.7881 84.4885 95.9544 83.7906 96.1785C83.3443 95.8569 84.2436 95.4509 83.6597 95.191C83.1866 94.9766 82.9518 95.3989 82.6565 95.6165C81.8311 96.237 80.999 96.8152 79.6803 96.747C80.6265 96.0356 81.7204 95.766 82.2774 94.8726C79.5696 94.2391 77.2947 93.1704 74.4159 94.2002L74.4092 94.2067Z" fill="#5B4C39"/>
<path d="M42.4406 95.5966C41.5011 95.5738 40.5381 95.7005 39.5215 95.0671C40.9643 94.9404 42.2393 94.8981 43.4237 94.3946C45.8999 93.3388 46.4066 92.3123 45.712 89.7849C45.2892 88.2646 44.4638 86.9229 43.88 85.4221C45.504 86.8547 46.6985 89.4763 47.081 91.6658C47.3192 92.9977 46.8394 92.465 46.3797 93.4233C48.2989 94.151 50.5503 94.1022 52.4763 93.8131C54.3687 93.524 55.0532 93.8748 57.2609 93.3616C55.9792 94.4076 55.5464 95.0443 54.3687 95.4601C52.5468 96.1196 49.7652 96.1033 48.2687 97.5165C48.054 97.7146 47.6782 97.8868 47.2689 97.6691C47.799 97.2273 48.3124 96.7985 48.7955 96.3957C46.8528 95.171 45.155 96.9025 43.0815 96.818C43.8733 96.23 44.7222 96.1423 45.2288 95.4049C44.1853 95.0281 43.3297 95.6193 42.4439 95.5933L42.4406 95.5966Z" fill="#5B4C39"/>
<path d="M55.1062 138.88C55.4417 139.754 55.737 140.644 55.6028 141.615C54.3211 138.23 47.0602 121.64 45.6577 118.317C44.5739 115.757 43.7217 113.145 43.7217 110.335C43.7217 106.934 45.3524 98.6499 47.1709 95.5312C47.2112 95.8009 47.2481 95.8853 47.228 95.9601C47.0938 96.4928 46.0905 102.11 45.9127 102.629C44.1277 107.846 44.4531 112.969 46.5636 118.037C47.597 120.513 54.16 136.378 55.1062 138.883V138.88Z" fill="#5B4C39"/>
<mask id="mask1_3587_2051" style="mask-type:luminance" maskUnits="userSpaceOnUse" x="20" y="187" width="76" height="73">
<path d="M95.8868 187.797H20.5V259.265H95.8868V187.797Z" fill="white"/>
</mask>
<g mask="url(#mask1_3587_2051)">
<path d="M95.8801 188.103C95.3835 188.636 94.8031 189.091 94.2327 189.552C93.6421 189.994 93.0483 190.432 92.4242 190.825C91.8102 191.238 91.1592 191.585 90.5251 191.969C89.8674 192.31 89.2165 192.67 88.5555 192.999L86.5356 193.941L84.4755 194.798C83.083 195.315 81.6872 195.844 80.2579 196.25C79.5398 196.462 78.8386 196.705 78.1105 196.884L75.9463 197.439C74.5035 197.826 73.0305 198.07 71.571 198.391C70.1047 198.648 68.6284 198.882 67.1521 199.119L62.7097 199.655L62.864 199.626C61.4111 200.087 59.9013 200.733 58.4719 201.425C57.0258 202.121 55.6266 202.903 54.261 203.735C52.882 204.547 51.5634 205.457 50.2581 206.379C48.9731 207.331 47.7182 208.319 46.5103 209.358C45.3024 210.404 44.1381 211.489 43.0006 212.61C42.447 213.182 41.8766 213.737 41.3364 214.325L39.7359 216.096C38.7126 217.317 37.6959 218.539 36.7564 219.819C36.2665 220.446 35.8136 221.095 35.3573 221.745C34.9076 222.401 34.4312 223.038 34.0185 223.714L32.7334 225.721L31.5423 227.781C31.1329 228.46 30.7672 229.165 30.4048 229.873C30.0391 230.578 29.6465 231.27 29.3043 231.981C28.6366 233.42 27.9119 234.837 27.328 236.311L26.4053 238.511L25.5631 240.739C24.9726 242.217 24.5264 243.741 24.0197 245.248C23.5131 246.759 23.1104 248.295 22.6541 249.822C22.2448 251.359 21.8824 252.908 21.4965 254.455L20.5 259.136C20.7013 257.557 20.8791 255.965 21.104 254.386C21.3925 252.817 21.6509 251.235 21.9562 249.666C22.3186 248.107 22.6105 246.528 23.0333 244.982C23.4728 243.439 23.8519 241.879 24.3754 240.356L25.1202 238.062L25.9725 235.801C26.5194 234.281 27.2005 232.819 27.8313 231.328C28.5292 229.873 29.2036 228.398 29.9955 226.982L31.1732 224.851L32.4449 222.768C32.8542 222.067 33.3307 221.404 33.7803 220.722C34.2332 220.046 34.6828 219.367 35.1861 218.724C36.1424 217.398 37.1792 216.138 38.2227 214.874L39.8601 213.039C40.4137 212.435 40.9975 211.853 41.5646 211.262C42.7221 210.099 43.9334 208.978 45.1916 207.913C46.4432 206.844 47.7551 205.834 49.0871 204.859C50.446 203.914 51.8184 202.978 53.2511 202.147C54.6804 201.302 56.1534 200.522 57.67 199.827C59.1967 199.129 60.7099 198.505 62.3976 198.011L62.4647 197.992L62.5587 197.982L66.9507 197.566C68.4069 197.374 69.8665 197.192 71.3227 196.985C72.7655 196.718 74.2217 196.51 75.6577 196.198L77.8152 195.744C78.5332 195.594 79.2345 195.386 79.9492 195.211C80.6605 195.029 81.3718 194.854 82.0697 194.623L84.1735 193.986L86.2538 193.265L88.2971 192.456C88.9716 192.177 89.6292 191.858 90.3003 191.556C90.9478 191.218 91.6155 190.91 92.2463 190.539C92.8838 190.185 93.5146 189.815 94.132 189.419C94.736 189.006 95.35 188.6 95.8902 188.113L95.8801 188.103Z" fill="#5B4C39"/>
</g>
<path d="M60.0068 126.805C61.6212 125.364 63.2951 125.269 64.585 125.531C65.2361 125.664 65.7888 125.889 66.1787 126.08C66.3729 126.176 66.5251 126.262 66.627 126.323C66.6777 126.354 66.7158 126.379 66.7402 126.395C66.7524 126.403 66.7614 126.409 66.7666 126.412C66.7688 126.414 66.7706 126.415 66.7715 126.415L66.8027 126.437L66.8369 126.454C69.0845 127.569 71.985 128.536 74.3066 129.223C75.471 129.567 76.4969 129.843 77.2314 130.032C77.5987 130.127 77.8934 130.201 78.0967 130.25C78.1521 130.264 78.2007 130.275 78.2422 130.285L78.3877 130.463L76.7646 132.049C70.0439 136.123 65.69 137.171 63.0566 137.232C61.7393 137.262 60.8501 137.046 60.3047 136.836C60.0315 136.731 59.8422 136.627 59.7266 136.554C59.669 136.518 59.6291 136.489 59.6064 136.472C59.5952 136.463 59.5879 136.457 59.585 136.454L59.584 136.453L59.4883 136.366L59.3555 136.338L58.9346 136.234C57.9996 135.969 57.3817 135.552 56.9707 135.088C56.4984 134.555 56.2662 133.924 56.1719 133.299C56.0772 132.671 56.1244 132.064 56.1982 131.608C56.2349 131.382 56.2776 131.196 56.3105 131.07C56.327 131.006 56.3411 130.958 56.3506 130.926C56.3553 130.91 56.3582 130.899 56.3604 130.892L56.3633 130.885L56.5215 130.413L56.0498 130.253C55.422 130.039 55.0594 129.74 54.8457 129.443C54.6302 129.142 54.5394 128.804 54.5205 128.469C54.5015 128.131 54.5568 127.809 54.6201 127.567C54.6513 127.447 54.6833 127.35 54.707 127.285C54.7188 127.253 54.7282 127.229 54.7344 127.214V127.211C55.1508 126.428 55.7043 126.179 56.1377 126.103C56.3657 126.063 56.5715 126.07 56.7197 126.087C56.7932 126.096 56.8509 126.106 56.8877 126.115C56.8968 126.116 56.9047 126.118 56.9111 126.119L59.1514 127.059L59.3643 127.148L59.5693 127.044L59.8984 126.878L59.957 126.849L60.0068 126.805Z" stroke="#5B4C39"/>
<path d="M55.8345 130.671C56.6599 130.658 58.2738 129.927 59.1596 129.865C57.6799 128.917 57.5222 128.745 57.3443 127.815C57.6497 128.04 57.8812 128.225 58.1429 128.381C59.74 129.371 61.3975 130.362 63.4107 129.722C65.6755 129.001 67.9337 129.183 70.2153 129.537C73.027 129.976 75.8354 130.323 78.6807 129.807C79.1504 129.726 79.704 129.495 80.1939 129.865C80.1302 130.002 80.1168 130.102 80.0597 130.135C79.8651 130.239 79.6638 130.346 79.4524 130.398C76.5803 131.139 73.6813 131.217 70.7488 130.71C68.702 130.353 66.6687 130.34 64.5784 130.57C61.8606 130.859 58.5523 131.002 55.8076 131.019L55.8345 130.671Z" fill="#5B4C39"/>
<path d="M63.401 137.315C67.0046 136.931 70.2391 135.651 73.4166 134.17C74.8325 133.507 76.2451 132.845 77.6577 132.172C77.708 132.237 77.7482 132.309 77.7986 132.37C77.6946 132.484 77.614 132.633 77.4832 132.715C73.1381 135.479 68.4776 137.542 63.1493 138.029C61.2301 138.214 59.3746 137.896 57.6936 136.934C55.8516 135.875 54.9154 133.826 55.5899 132.279C55.6805 132.39 55.8046 132.484 55.8113 132.572C56.2173 136.207 59.8746 137.688 63.3976 137.311L63.401 137.315Z" fill="#5B4C39"/>
<path d="M55.8081 82.333C55.8081 82.333 56.2443 82.7033 57.0059 83.3563C57.3583 83.7071 57.7408 84.1879 58.2105 84.7207C58.4051 85.0131 58.6098 85.3217 58.8279 85.6465C59.0594 85.9714 59.2607 86.332 59.4318 86.7283C59.6063 87.1214 59.8311 87.5177 59.9854 87.953C60.1364 88.3916 60.2874 88.8496 60.4451 89.3174C60.5693 89.7949 60.6632 90.2984 60.7739 90.8052C60.8914 91.312 60.878 91.8513 60.9384 92.3873C61.0055 92.9233 60.9216 93.4755 60.9182 94.0343L60.8981 94.4533C60.878 94.6612 60.8511 94.7425 60.8276 94.8919L60.68 95.704C60.5525 96.789 60.1163 97.9033 59.7506 99.011C59.5291 99.5503 59.2473 100.051 59.0023 100.567L58.6198 101.34L58.1769 102.065C57.6065 103.039 56.9925 103.975 56.3617 104.829C55.7611 105.697 55.1706 106.515 54.7411 107.347C54.3184 108.178 54.06 109.02 54.0533 109.812C54.0466 110.599 54.268 111.33 54.6002 111.895C54.6841 112.041 54.7646 112.19 54.8451 112.327C54.9357 112.454 55.0364 112.564 55.1236 112.681C55.3048 112.908 55.4692 113.123 55.6571 113.285C55.8349 113.461 55.9893 113.613 56.1269 113.75C56.2778 113.87 56.4053 113.974 56.5127 114.058C56.7207 114.224 56.8348 114.315 56.8348 114.315C56.8348 114.315 56.714 114.243 56.4825 114.101C56.2443 113.967 55.9054 113.756 55.5229 113.425C55.3149 113.279 55.1203 113.074 54.9055 112.847C54.6707 112.629 54.4693 112.372 54.2781 112.086C53.852 111.508 53.5198 110.729 53.4862 109.829C53.4359 108.932 53.6708 107.974 54.0701 107.054C54.4761 106.135 55.0297 105.242 55.637 104.361C56.251 103.494 56.8214 102.581 57.3549 101.623L57.7676 100.911L58.1233 100.168C58.3481 99.664 58.6064 99.1702 58.8077 98.6635C59.1634 97.6434 59.5929 96.6624 59.7539 95.5481L59.9183 94.7392C59.9418 94.6223 59.9854 94.4371 59.9854 94.3721L60.0089 93.979C60.0224 93.456 60.1197 92.9395 60.0593 92.4295C60.0358 91.4062 59.8982 90.4251 59.7304 89.4993C59.6029 89.0413 59.4855 88.5995 59.3714 88.1706C59.2506 87.7418 59.056 87.352 58.9151 86.9654C58.8346 86.7738 58.7608 86.5854 58.6836 86.4034C58.5863 86.228 58.4957 86.0558 58.4018 85.8902C58.2239 85.5556 58.0562 85.2372 57.8951 84.9383C57.4992 84.3926 57.1771 83.8891 56.865 83.5057C56.194 82.7651 55.8081 82.346 55.8081 82.346V82.333Z" fill="#5B4C39"/>
<path d="M58.045 114.932C58.045 114.932 57.5417 114.819 56.8606 114.471C56.5251 114.289 56.1392 114.058 55.7735 113.756C55.391 113.467 55.042 113.094 54.7099 112.704C54.4079 112.291 54.1193 111.856 53.9516 111.404C53.861 111.183 53.7771 110.966 53.7402 110.748C53.6932 110.534 53.6429 110.336 53.6462 110.141C53.6127 109.761 53.6529 109.445 53.6966 109.231C53.7301 109.017 53.7637 108.896 53.7637 108.896C53.7637 108.896 53.8039 109.02 53.8543 109.228C53.8744 109.329 53.9046 109.452 53.9348 109.592C53.9918 109.731 54.0489 109.881 54.0992 110.046C54.1428 110.215 54.2468 110.381 54.3139 110.563C54.381 110.745 54.5018 110.924 54.5958 111.112C54.683 111.304 54.834 111.479 54.9447 111.671C55.0588 111.862 55.2199 112.035 55.3507 112.223C55.9211 112.947 56.6022 113.607 57.1324 114.104C57.6625 114.601 58.045 114.929 58.045 114.929V114.932Z" fill="#5B4C39"/>
<path fill-rule="evenodd" clip-rule="evenodd" d="M60.458 113.83C62.4947 114.067 64.5884 114.321 66.5747 114.564C65.9909 112.898 62.2262 112.326 60.458 113.83Z" fill="#5B4C39"/>
<path d="M41.8674 77.4343C41.8674 77.4343 41.9546 77.5675 42.0452 77.8242C42.1392 78.0905 42.2063 78.4771 42.2667 78.9384C42.2935 79.1658 42.3204 79.4159 42.3606 79.6628C42.3875 79.926 42.4479 80.1404 42.5351 80.4295C42.6794 80.9915 42.8404 81.5632 43.0049 82.1415C43.3337 83.2915 43.743 84.4252 44.0282 85.2991C44.1792 85.7344 44.2732 86.1112 44.357 86.3646C44.4309 86.6245 44.4644 86.7804 44.4644 86.7804C44.4644 86.7804 44.0718 86.2866 43.5887 85.4875C43.1089 84.6916 42.562 83.5546 42.2331 82.3461C42.062 81.7419 41.9479 81.1247 41.8674 80.5627C41.8339 80.293 41.7902 79.9617 41.8003 79.6986C41.8037 79.4257 41.8305 79.1755 41.8473 78.9482C41.8875 78.4934 41.9312 78.1133 41.911 77.8599C41.901 77.5935 41.8741 77.4376 41.8741 77.4376L41.8674 77.4343Z" fill="#5B4C39"/>
</svg>
