<svg width="121" height="166" viewBox="0 0 121 166" fill="none" xmlns="http://www.w3.org/2000/svg">
<g clip-path="url(#clip0_3587_2101)">
<path d="M23.8368 0.599153C37.9831 -0.603725 51.0812 10.0268 52.2271 24.3329C53.1264 35.5803 47.8902 52.3126 46.1894 64.0844C43.5019 82.693 42.9726 99.1427 44.5039 117.906C45.4546 129.559 48.995 141.079 44.2316 152.599C39.2112 164.746 25.4349 169.861 14.6902 161.096C0.646611 149.643 7.9536 126.583 9.03782 111.223C10.0707 96.5878 9.03782 81.6187 6.9002 67.107C4.91673 53.6183 -2.19499 31.3908 1.5921 18.9508C4.57244 9.15296 13.5803 1.47304 23.8368 0.599153ZM24.8799 1.61183C-7.08173 3.06146 -5.8228 55.4895 28.3022 52.8678C60.1764 50.4261 57.6997 0.126226 24.8799 1.61183ZM48.6147 40.546C42.4331 53.6646 24.6692 57.7873 12.4704 50.2205C8.39551 47.6913 5.60529 43.8257 2.87673 40.032C4.64438 48.8428 6.61244 57.6896 7.92276 66.593C10.1066 81.3719 11.1395 96.2743 10.0604 111.223C8.95561 126.495 1.22212 152.537 17.9429 161.949C30.7686 169.167 42.3869 159.281 44.8533 146.548C47.2685 134.098 42.875 116.703 42.4177 103.543C41.6366 81.0224 46.7186 63.6629 49.0567 42.2835C49.1183 41.7181 49.514 40.4278 48.6096 40.5512L48.6147 40.546Z" fill="#5B4C39"/>
<path d="M111.3 77.0384C110.663 79.1871 112.508 81.0634 112.379 82.95C112.276 84.4458 110.771 85.4328 111.285 87.4685C111.408 87.9465 115.92 89.7817 113.088 92.4702C112.168 93.3389 110.689 92.3005 111.351 94.7166C111.675 95.5956 113.895 95.7447 114.923 96.2844C118.376 98.099 119.63 100.083 120.03 104.026C121.238 116.024 119.768 131.44 119.517 143.639C119.383 150.213 119.922 156.845 119.296 163.435C119.054 164.71 117.795 164.813 116.706 164.931C109.589 165.692 93.0017 165.661 85.8386 164.962C84.1326 164.792 83.1203 164.694 83.0176 162.643L83.0381 102.988C83.2128 101.404 84.1532 98.8855 85.2683 97.7649C87.2055 95.8166 91.3882 96.1919 90.7511 92.9637L88.7727 92.8917C88.0431 91.4626 87.9146 89.8434 88.8138 88.4554L91.8045 87.5301C92.308 84.6566 90.9155 85.4791 90.2012 84.5332C88.5004 82.2765 91.6503 79.6035 90.7459 77.0229H111.3V77.0384ZM91.7736 80.1227H109.502C109.625 80.1227 109.805 80.5288 110.015 80.5134C111.223 80.4208 110.807 78.0665 110.015 78.0665H91.7736V80.1227ZM91.5167 84.2351H110.529L111.3 81.6648L91.5578 81.2073L90.7151 82.4359L91.5167 84.2299V84.2351ZM110.272 87.8334L110.206 86.1011L109.502 85.2632H92.2875L92.8013 87.8334H110.272ZM89.7182 88.8615L89.2352 91.1131L89.9751 91.9458H112.071L112.862 90.6607C112.898 90.1364 111.793 88.8615 111.557 88.8615H89.7182ZM84.0658 101.97C83.6496 104.041 84.3639 107.203 84.0658 109.424H119.008C119.254 104.838 119.301 99.3533 114.404 97.3228C113.114 96.7882 110.93 96.6905 110.796 96.5569C110.642 96.4027 110.951 93.1847 109.928 92.9482L91.7942 92.9894C92.1076 96.9887 89.6 96.1765 87.4007 97.5901C86.5118 98.1607 84.256 101.024 84.0658 101.965V101.97ZM119.008 110.452H84.0658V151.576L119.008 150.805V110.452ZM119.008 152.604H84.0658V163.142L84.8366 163.913H117.723C118.211 163.471 119.008 161.533 119.008 161.086V152.604Z" fill="#5B4C39"/>
<path d="M96.9741 55.3865C100.648 56.795 102.95 57.6638 101.809 62.1463C101.481 63.4417 98.3872 70.1604 97.4211 70.6024C94.5744 71.8927 92.113 68.685 89.2149 68.8136C89.2149 69.4715 89.0813 70.1038 88.8038 70.7053C84.4875 80.0404 77.9204 99.1168 72.6791 106.509C71.636 107.979 70.336 108.318 69.4418 109.439C67.6279 111.721 67.9054 117.391 62.808 113.469C60.8502 111.963 63.8254 108.817 64.1954 106.745C64.4112 105.553 63.7432 104.422 64.2519 103.24L81.5225 64.475C81.466 63.9044 75.0685 62.2902 74.8168 59.7971C74.7551 59.17 78.2339 49.3876 78.7066 48.7913C80.7158 46.2776 83.7835 48.9352 86.0958 49.2642C87.103 48.5291 91.2292 34.5058 93.8293 32.0538C97.7551 28.3526 104.271 32.136 103.988 37.0606C103.793 40.4688 96.0748 53.9626 96.9741 55.3814V55.3865ZM95.8796 54.4201C96.8507 49.0689 104.589 39.2351 101.989 34.182C100.931 32.1257 98.0326 31.1593 95.895 32.0743C92.8067 33.3955 88.922 46.7402 86.6199 50.0301L95.8796 54.4201ZM75.8804 60.5425L96.1211 69.8622C97.0357 69.7748 97.416 69.1734 97.8682 68.4897C98.7931 67.0863 101.403 60.4499 100.761 59.062C94.9341 54.8519 87.7401 51.9784 81.2142 48.8016C78.7015 48.9352 76.5895 58.1521 75.8804 60.5476V60.5425ZM88.6908 67.7957L83.2028 65.2769L82.2779 65.7395L65.2796 103.759C66.1069 107.115 64.0258 109.496 62.993 112.503L66.5746 113.526C67.001 109.614 69.5343 108.298 71.8364 105.676L88.6856 67.7957H88.6908Z" fill="#5B4C39"/>
<path d="M66.0852 118.681L67.5034 119.565C67.5034 122.655 70.3604 125.097 70.2217 128.181C70.0367 132.303 65.6227 134.391 62.9969 130.756C60.3711 127.122 64.9752 122.336 66.08 118.681H66.0852ZM66.0852 120.737C65.0575 124.603 60.2427 128.988 65.8385 131.538C68.0018 131.553 68.9011 130.124 69.1272 128.135L66.0852 120.732V120.737Z" fill="#5B4C39"/>
<path d="M24.8342 90.0129C29.6593 89.1442 33.6982 91.9201 34.2223 96.8293C34.7464 101.738 34.9417 119.828 34.1041 123.956C32.5831 131.42 19.7984 131.399 18.7964 123.056C18.2004 118.085 18.1027 100.608 18.8427 95.832C19.2589 93.1281 22.1879 90.4859 24.8393 90.0078L24.8342 90.0129ZM25.3635 91.0308C22.8404 91.3957 20.2866 93.8118 19.8601 96.3461C19.1458 100.633 19.2743 117.988 19.819 122.547C20.7234 130.083 31.6684 130.361 33.0764 123.447C33.9294 119.242 33.6416 102.643 33.2151 97.8419C32.8195 93.3543 30.0858 90.3522 25.3635 91.0359V91.0308Z" fill="#5B4C39"/>
<path d="M23.8315 5.21519C49.8119 2.20286 56.9288 41.6254 31.6781 48.0202C1.60227 55.6384 -4.82089 8.5411 23.8315 5.21519ZM24.3402 6.24843C-2.72951 9.12712 2.43985 53.6748 31.0666 46.8944C55.3307 41.1473 48.3115 3.6936 24.3454 6.24329L24.3402 6.24843Z" fill="#5B4C39"/>
<path d="M25.3371 115.186C33.5279 113.34 33.0551 126.624 24.9414 124.1C20.6867 122.773 21.1594 116.127 25.3371 115.186ZM25.3422 116.209C21.0824 117.473 23.1429 125.385 28.451 122.922C31.714 121.406 30.2392 114.754 25.3422 116.209Z" fill="#5B4C39"/>
<path d="M25.3522 95.6258C31.2975 94.5669 32.3868 103.373 27.1764 104.19C22.2331 104.966 20.4141 96.4997 25.3522 95.6258ZM25.3471 96.6642C21.637 97.7232 24.0367 104.061 27.1712 103.182C31.0662 102.093 29.9306 95.3534 25.3471 96.6642Z" fill="#5B4C39"/>
<path d="M23.8211 8.28862C47.3401 4.84448 51.2557 43.3777 26.7706 43.8455C3.9607 44.2824 3.83737 11.2136 23.8211 8.28862ZM25.3781 9.32186C4.0686 11.2907 5.69238 45.7012 29.2988 42.5552C48.6042 39.9798 45.2744 7.4867 25.3781 9.32186Z" fill="#5B4C39"/>
</g>
<defs>
<clipPath id="clip0_3587_2101">
<rect width="120.002" height="164.987" fill="white" transform="translate(0.499023 0.506348)"/>
</clipPath>
</defs>
</svg>
