<svg width="201" height="270" viewBox="0 0 201 270" fill="none" xmlns="http://www.w3.org/2000/svg">
<path d="M149.082 44.5928C161.702 43.296 173.575 50.0868 176.822 60.4346C178.888 67.02 177.639 75.4845 175.553 84.123C174.512 88.4335 173.272 92.7568 172.147 96.8916C171.025 101.019 170.019 104.958 169.459 108.47V108.471C167.895 118.315 167.694 130.93 168.248 140.871C168.434 144.219 169.052 148.162 169.689 152.329C170.328 156.507 170.99 160.923 171.273 165.255C171.843 173.944 170.88 182.149 165.341 187.37C158.554 193.765 147.694 194.297 140.517 188.062C134.38 182.733 133.308 174.023 133.939 164.776C134.254 160.167 134.988 155.463 135.702 151.033C136.415 146.614 137.109 142.455 137.331 138.972C138.02 128.15 137.376 115.438 135.466 104.737C134.909 101.624 133.946 97.893 132.886 93.8896C131.824 89.8796 130.662 85.5898 129.702 81.335C128.742 77.0798 127.985 72.8744 127.73 69.0391C127.475 65.1984 127.726 61.763 128.75 59.0303C131.509 51.6823 139.99 45.5251 149.082 44.5928ZM172.147 53.0605C167.177 47.5426 159.154 44.0287 150.128 44.6875C133.325 45.9127 123.041 61.7145 129.866 74.8428C130.416 75.8995 131.04 76.8875 131.728 77.8086L129.959 75.6289L129.677 75.8564L129.187 75.8975V76.0566L129.213 76.0898C129.947 80.4493 131.008 84.7624 132.093 89.0547C133.189 93.3916 134.31 97.7048 135.153 102.052V102.053C137.525 114.227 138.371 127.47 137.553 139.843C137.321 143.326 136.582 147.503 135.836 152.003C135.091 156.491 134.342 161.287 134.104 165.962C133.63 175.293 135.187 184.306 143.07 189.463C150.27 194.171 159.17 192.921 165.085 187.273C170.709 181.903 171.551 173.335 170.961 164.616C170.665 160.242 170.005 155.788 169.38 151.627C168.754 147.455 168.165 143.588 168 140.349C167.514 130.731 167.605 118.673 169.057 109.056L169.201 108.133C170.112 102.561 171.776 96.9318 173.354 91.2324C174.93 85.5453 176.419 79.7954 176.95 74.0352L176.153 73.7568L173.27 78.1709C169.093 83.7534 162.059 86.8893 154.692 87.4141C147.334 87.9382 139.714 85.8517 134.381 81.0801L132.816 79.1514C137.878 84.9077 145.653 87.5987 153.29 87.3623C162.63 87.0732 171.881 82.4029 175.815 73.4658C179.047 66.1294 177.122 58.583 172.147 53.0605Z" stroke="#5B4C39" stroke-width="0.869566"/>
<path d="M152.526 117.336C153.575 117.26 154.589 117.828 154.856 119.049C154.961 119.528 155.042 120.531 155.093 121.84C155.143 123.134 155.163 124.692 155.157 126.256C155.145 129.402 155.024 132.514 154.831 133.582C154.783 133.846 154.715 134.098 154.621 134.329V118.946C154.621 118.52 154.304 118.185 154.011 117.983C153.692 117.764 153.271 117.604 152.828 117.567C152.382 117.53 151.891 117.617 151.463 117.922C151.086 118.191 150.793 118.604 150.619 119.169L150.552 119.42C150.052 121.585 150.202 124.081 150.391 126.523C150.581 128.996 150.811 131.415 150.522 133.539L150.508 133.643L150.543 133.741C150.745 134.315 151.253 134.823 151.843 135.098C152.442 135.377 153.198 135.446 153.871 135.021L153.901 135.002L153.928 134.979L154.475 134.493L154.601 134.381C154.416 134.811 154.13 135.16 153.663 135.356C153.32 135.442 152.707 135.448 152.076 135.358C151.761 135.314 151.46 135.247 151.207 135.165C150.974 135.089 150.812 135.006 150.716 134.936L150.687 134.911C150.495 134.749 150.357 134.439 150.27 133.997C150.183 133.562 150.163 133.116 150.124 132.718C149.978 131.236 149.864 128.623 149.851 126.028C149.838 123.586 149.915 121.202 150.13 119.797L150.175 119.529C150.432 118.137 151.479 117.412 152.526 117.336Z" stroke="#5B4C39" stroke-width="0.869566"/>
<path d="M139.014 52.624C148.259 45.4034 159.561 47.5879 166.423 53.5527C169.851 56.5332 172.138 60.4311 172.516 64.5254C172.892 68.6034 171.38 72.9377 167.096 76.832C157.659 85.4111 145.738 83.1695 138.609 76.833C135.046 73.6657 132.718 69.505 132.486 65.2119C132.255 60.9381 134.097 56.4622 139.014 52.624ZM151.839 48.4639C140.693 48.8048 135.137 56.9442 135.582 64.7285C135.805 68.6145 137.524 72.413 140.781 75.0908C144.042 77.7711 148.807 79.299 155.07 78.7148C156.97 78.5378 158.678 78.1327 160.197 77.5459C156.587 79.0926 152.262 79.5726 147.7 78.4678C142.369 77.1762 138.63 74.1908 136.65 70.4795C134.67 66.7668 134.429 62.2934 136.157 57.9844L136.376 57.4375L135.789 57.3896C135.465 57.363 135.192 57.4663 134.98 57.6514C134.784 57.8236 134.658 58.0507 134.571 58.2549C134.483 58.462 134.419 58.6841 134.368 58.8691C134.313 59.0675 134.275 59.2096 134.233 59.3145C131.032 67.2196 134.854 74.648 141.298 78.7461C147.741 82.8435 156.884 83.6777 164.491 78.4014C170.178 74.4582 172.655 68.6477 171.783 62.4053C171.73 62.0259 171.581 61.2583 171.318 60.542C171.187 60.1845 171.021 59.8206 170.812 59.5205C170.606 59.2267 170.324 58.9433 169.946 58.8359L169.849 59.1797L169.394 59.25V59.583L169.479 59.6074C171.009 64.7435 169.496 69.7592 166.104 73.4189C166.202 73.3044 166.298 73.1894 166.391 73.0723C168.76 70.0825 169.72 66.2941 169.355 62.5986C168.624 55.1912 162.566 48.138 151.839 48.4639Z" stroke="#5B4C39" stroke-width="0.869566"/>
<path d="M149.417 191.92V198.584L157.363 198.503L157.24 191.92" stroke="#5B4C39" stroke-width="0.869566" stroke-miterlimit="10"/>
<path d="M154.186 198.536C155.995 249.377 113.455 252.997 113.455 252.997C51.4375 253.724 57.5969 132.812 57.5969 132.812H28.8273C26.5769 132.812 23.4386 130.063 23.5112 128.051L23.5 79.9644C23.9914 76.4015 26.951 75.4026 30.7203 75.2028C48.3663 76.002 67.224 74.1801 84.7303 75.2028C87.8351 75.3836 90.2977 76.0448 91.5876 78.6515C92.4141 95.0433 91.7161 111.597 91.9395 128.046C92.0623 130.077 88.8849 132.807 86.6233 132.807H57.5857M57.5913 132.807L57.9989 121.676M58.5183 118.266L57.9878 122.128H76.0023C77.0242 122.128 79.5873 119.893 79.4198 118.765L79.2857 88.4457C78.6101 87.0805 77.2531 86.0245 75.4606 85.896C62.2541 84.9209 51.3705 84.9732 40.2748 85.8865C37.8401 86.0863 36.5334 87.7512 36.3268 89.7205C37.1868 98.8107 35.2156 109.385 36.338 118.299C36.5167 119.707 38.2422 122.128 40.0179 122.128H57.6025M63.4044 114.009C65.4314 112.672 69.0947 110.546 69.5191 108.253C69.8988 106.188 69.8709 99.7668 69.5861 97.6262C69.3404 95.7568 67.0006 93.407 64.7949 93.1121C62.4495 92.7981 53.3417 92.8362 50.9294 93.1168C48.0759 93.4498 46.328 95.4905 46.1214 97.8498C45.9316 99.9808 45.7529 107.102 46.2499 108.909C46.7692 110.807 49.5613 112.524 51.1863 113.766C51.4152 113.942 52.6772 114.646 52.6884 114.912M52.0239 105.19L53.4199 104.98C52.6158 105.185 52.4706 106.288 52.4036 106.902C52.1747 109.014 52.5153 112.377 52.6828 114.584C52.7554 115.574 52.627 117.843 53.7829 118.285C54.3581 118.504 61.3438 118.513 61.9525 118.285C62.3993 118.118 62.6059 117.714 62.7566 117.343C63.0749 116.563 63.2592 114.346 63.3206 113.409C63.3988 112.239 63.5328 106.317 63.181 105.637C63.0973 105.475 62.6896 105.128 62.4998 105.056C61.9972 104.866 54.0789 104.809 53.4255 104.98L52.0239 105.19Z" stroke="#5B4C39" stroke-width="1.73913" stroke-miterlimit="10"/>
</svg>
