<svg width="200" height="200" viewBox="0 0 200 200" fill="none" xmlns="http://www.w3.org/2000/svg">
<path d="M63.3368 17.5992C77.4831 16.3963 90.5812 27.0268 91.7271 41.3329C92.6264 52.5803 87.3902 69.3126 85.6894 81.0844C83.0019 99.693 82.4726 116.143 84.0039 134.906C84.9546 146.559 88.495 158.079 83.7316 169.599C78.7112 181.746 64.9349 186.861 54.1902 178.096C40.1466 166.643 47.4536 143.583 48.5378 128.223C49.5707 113.588 48.5378 98.6187 46.4002 84.107C44.4167 70.6183 37.305 48.3908 41.0921 35.9508C44.0724 26.153 53.0803 18.473 63.3368 17.5992ZM64.3799 18.6118C32.4183 20.0615 33.6772 72.4895 67.8022 69.8678C99.6764 67.4261 97.1997 17.1262 64.3799 18.6118ZM88.1147 57.546C81.9331 70.6646 64.1692 74.7873 51.9704 67.2205C47.8955 64.6913 45.1053 60.8257 42.3767 57.032C44.1444 65.8428 46.1124 74.6896 47.4228 83.593C49.6066 98.3719 50.6395 113.274 49.5604 128.223C48.4556 143.495 40.7221 169.537 57.4429 178.949C70.2686 186.167 81.8869 176.281 84.3533 163.548C86.7685 151.098 82.375 133.703 81.9177 120.543C81.1366 98.0224 86.2186 80.6629 88.5567 59.2835C88.6183 58.7181 89.014 57.4278 88.1096 57.5512L88.1147 57.546Z" fill="#5B4C39"/>
<path d="M150.8 94.0384C150.163 96.1871 152.008 98.0634 151.879 99.95C151.776 101.446 150.271 102.433 150.785 104.468C150.908 104.947 155.42 106.782 152.588 109.47C151.668 110.339 150.189 109.301 150.851 111.717C151.175 112.596 153.395 112.745 154.423 113.284C157.876 115.099 159.13 117.083 159.53 121.026C160.738 133.024 159.268 148.44 159.017 160.639C158.883 167.213 159.422 173.845 158.796 180.435C158.554 181.71 157.295 181.813 156.206 181.931C149.089 182.692 132.502 182.661 125.339 181.962C123.633 181.792 122.62 181.694 122.518 179.643L122.538 119.988C122.713 118.404 123.653 115.886 124.768 114.765C126.705 112.817 130.888 113.192 130.251 109.964L128.273 109.892C127.543 108.463 127.415 106.843 128.314 105.455L131.304 104.53C131.808 101.657 130.415 102.479 129.701 101.533C128 99.2765 131.15 96.6035 130.246 94.0229H150.8V94.0384ZM131.274 97.1227H149.002C149.125 97.1227 149.305 97.5288 149.515 97.5134C150.723 97.4208 150.307 95.0665 149.515 95.0665H131.274V97.1227ZM131.017 101.235H150.029L150.8 98.6648L131.058 98.2073L130.215 99.4359L131.017 101.23V101.235ZM149.772 104.833L149.706 103.101L149.002 102.263H131.787L132.301 104.833H149.772ZM129.218 105.862L128.735 108.113L129.475 108.946H151.571L152.362 107.661C152.398 107.136 151.293 105.862 151.057 105.862H129.218ZM123.566 118.97C123.15 121.041 123.864 124.203 123.566 126.424H158.508C158.754 121.838 158.801 116.353 153.904 114.323C152.614 113.788 150.43 113.691 150.296 113.557C150.142 113.403 150.451 110.185 149.428 109.948L131.294 109.989C131.608 113.989 129.1 113.176 126.901 114.59C126.012 115.161 123.756 118.024 123.566 118.965V118.97ZM158.508 127.452H123.566V168.576L158.508 167.805V127.452ZM158.508 169.604H123.566V180.142L124.337 180.913H157.223C157.711 180.471 158.508 178.533 158.508 178.086V169.604Z" fill="#5B4C39"/>
<path d="M136.474 72.3865C140.148 73.795 142.45 74.6638 141.309 79.1463C140.981 80.4417 137.887 87.1604 136.921 87.6024C134.074 88.8927 131.613 85.685 128.715 85.8136C128.715 86.4715 128.581 87.1038 128.304 87.7053C123.987 97.0404 117.42 116.117 112.179 123.509C111.136 124.979 109.836 125.318 108.942 126.439C107.128 128.721 107.405 134.391 102.308 130.469C100.35 128.963 103.325 125.817 103.695 123.745C103.911 122.553 103.243 121.422 103.752 120.24L121.023 81.475C120.966 80.9044 114.569 79.2902 114.317 76.7971C114.255 76.17 117.734 66.3876 118.207 65.7913C120.216 63.2776 123.283 65.9352 125.596 66.2642C126.603 65.5291 130.729 51.5058 133.329 49.0538C137.255 45.3526 143.771 49.136 143.488 54.0606C143.293 57.4688 135.575 70.9626 136.474 72.3814V72.3865ZM135.38 71.4201C136.351 66.0689 144.089 56.2351 141.489 51.182C140.431 49.1257 137.533 48.1593 135.395 49.0743C132.307 50.3955 128.422 63.7402 126.12 67.0301L135.38 71.4201ZM115.38 77.5425L135.621 86.8622C136.536 86.7748 136.916 86.1734 137.368 85.4897C138.293 84.0863 140.903 77.4499 140.261 76.062C134.434 71.8519 127.24 68.9784 120.714 65.8016C118.201 65.9352 116.09 75.1521 115.38 77.5476V77.5425ZM128.191 84.7957L122.703 82.2769L121.778 82.7395L104.78 120.759C105.607 124.115 103.526 126.496 102.493 129.503L106.075 130.526C106.501 126.614 109.034 125.298 111.336 122.676L128.186 84.7957H128.191Z" fill="#5B4C39"/>
<path d="M105.585 135.681L107.003 136.565C107.003 139.655 109.86 142.097 109.722 145.181C109.537 149.303 105.123 151.391 102.497 147.756C99.8711 144.122 104.475 139.336 105.58 135.681H105.585ZM105.585 137.737C104.557 141.603 99.7427 145.988 105.339 148.538C107.502 148.553 108.401 147.124 108.627 145.135L105.585 137.732V137.737Z" fill="#5B4C39"/>
<path d="M64.3342 107.013C69.1593 106.144 73.1982 108.92 73.7223 113.829C74.2464 118.738 74.4417 136.828 73.6041 140.956C72.0831 148.42 59.2984 148.399 58.2964 140.056C57.7004 135.085 57.6027 117.608 58.3427 112.832C58.7589 110.128 61.6879 107.486 64.3393 107.008L64.3342 107.013ZM64.8635 108.031C62.3404 108.396 59.7866 110.812 59.3601 113.346C58.6458 117.633 58.7743 134.988 59.319 139.547C60.2234 147.083 71.1684 147.361 72.5764 140.447C73.4294 136.242 73.1416 119.643 72.7151 114.842C72.3195 110.354 69.5858 107.352 64.8635 108.036V108.031Z" fill="#5B4C39"/>
<path d="M63.3315 22.2152C89.3119 19.2029 96.4288 58.6254 71.1781 65.0202C41.1023 72.6384 34.6791 25.5411 63.3315 22.2152ZM63.8402 23.2484C36.7705 26.1271 41.9398 70.6748 70.5666 63.8944C94.8307 58.1473 87.8115 20.6936 63.8454 23.2433L63.8402 23.2484Z" fill="#5B4C39"/>
<path d="M64.8371 132.186C73.0279 130.34 72.5551 143.624 64.4414 141.1C60.1867 139.773 60.6594 133.127 64.8371 132.186ZM64.8422 133.209C60.5824 134.473 62.6429 142.385 67.951 139.922C71.214 138.406 69.7392 131.754 64.8422 133.209Z" fill="#5B4C39"/>
<path d="M64.8522 112.626C70.7975 111.567 71.8868 120.373 66.6764 121.19C61.7331 121.966 59.9141 113.5 64.8522 112.626ZM64.8471 113.664C61.137 114.723 63.5367 121.061 66.6712 120.182C70.5662 119.093 69.4306 112.353 64.8471 113.664Z" fill="#5B4C39"/>
<path d="M63.3211 25.2886C86.8401 21.8445 90.7557 60.3777 66.2706 60.8455C43.4607 61.2824 43.3374 28.2136 63.3211 25.2886ZM64.8781 26.3219C43.5686 28.2907 45.1924 62.7012 68.7988 59.5552C88.1042 56.9798 84.7744 24.4867 64.8781 26.3219Z" fill="#5B4C39"/>
</svg>
