<svg width="201" height="270" viewBox="0 0 201 270" fill="none" xmlns="http://www.w3.org/2000/svg">
<mask id="mask0_3587_2023" style="mask-type:luminance" maskUnits="userSpaceOnUse" x="9" y="0" width="183" height="261">
<path d="M191.329 0H9.5V261H191.329V0Z" fill="white"/>
</mask>
<g mask="url(#mask0_3587_2023)">
<path fill-rule="evenodd" clip-rule="evenodd" d="M61.9974 260.886C63.1937 256.715 64.2868 252.504 65.5943 248.377C70.144 234.027 75.8688 220.099 82.1706 206.387C84.6771 200.921 87.2285 195.471 89.9228 190.089C93.3556 183.223 91.8549 178.079 86.5748 172.421C84.9947 170.729 83.097 169.45 80.9187 168.506C76.8878 166.771 73.4788 164.164 70.3928 161.187C65.7981 156.756 61.214 152.31 56.741 147.77C50.373 141.299 45.5163 133.878 41.848 125.714C40.4479 122.596 38.8492 119.536 38.7195 116.094C38.5952 112.922 38.7751 109.748 38.7698 106.572C38.7698 102.657 38.7698 98.7344 38.6534 94.8168C38.6057 93.2437 37.8858 91.8199 36.9039 90.5149C37.2903 93.7116 37.8117 96.8831 37.0045 100.12C36.6392 97.9503 36.274 95.7753 35.8611 93.3348C35.8082 93.7192 35.7764 93.8431 35.7764 93.9595C35.7049 99.2351 35.7049 104.511 35.5461 109.784C35.3556 115.985 36.0781 122.083 37.1739 128.18C37.6953 131.114 37.8647 134.129 37.997 137.116C38.1743 141.223 38.7275 145.264 39.9212 149.227C40.8793 152.389 43.2692 154.571 45.5666 156.784C52.7233 163.671 59.7106 170.709 65.9754 178.352C69.1779 182.264 71.9543 186.498 74.9186 190.59C75.051 190.775 75.1118 191.005 75.0695 191.296C72.3593 188.231 69.6517 185.165 66.7747 181.913C60.4041 194.584 53.4776 206.761 45.8445 218.569C38.2061 230.398 30.4671 242.163 21.897 253.41C21.8097 253.362 21.7171 253.319 21.6218 253.271C21.8573 252.805 22.0558 252.32 22.3285 251.882C27.8283 243.154 33.3626 234.457 38.8228 225.714C45.8498 214.47 52.8212 203.19 59.8086 191.931C59.8562 191.852 59.8641 191.751 59.9488 191.463C56.9104 194.594 53.3744 196.576 49.2693 197.651C46.1092 198.478 42.8828 198.708 39.6327 198.638C32.7671 198.493 26.1741 196.852 19.5785 195.254C16.204 194.439 12.8453 193.564 9.48926 192.522C10.7306 192.641 11.9825 192.689 13.2052 192.904C17.8952 193.726 22.5667 194.591 27.246 195.449C34.4398 196.771 41.6627 197.335 48.8803 195.772C53.1706 194.844 57.1565 193.205 59.9224 189.751C63.2519 185.583 63.6992 180.972 61.3225 176.288C60.5179 174.697 59.0595 173.387 57.7997 172.034C52.501 166.324 47.1837 160.631 41.8294 154.966C38.5422 151.493 36.2343 147.538 35.0274 142.983C33.2964 136.453 30.9779 130.11 28.1406 123.944C27.0714 121.615 26.894 119.23 27.1322 116.741C27.9633 108.117 28.7309 99.4905 29.5196 90.8639C29.6493 89.4223 29.7551 87.9833 29.8795 86.4153C30.7688 86.9236 31.5152 87.3535 32.1769 87.7329C31.2267 85.3455 30.1151 82.9833 29.3422 80.5276C27.6404 75.128 27.4684 69.6045 28.0162 64.0128C28.5932 58.2187 29.7551 52.5535 31.7349 47.0427C36.7345 33.1151 44.6217 21.0186 56.651 11.6307C64.0195 5.87957 72.3116 1.93675 81.8292 0.614048C83.3669 0.401607 84.9338 0.340909 86.1433 0.239746C82.8852 1.0364 79.2778 1.75466 75.7709 2.80675C67.7355 5.19672 60.8381 9.46073 54.8169 15.0272C44.2724 24.7844 37.4544 36.671 33.1059 49.9385C30.1892 58.856 29.1649 67.9682 30.3956 77.2676C30.8218 80.4644 31.5628 83.5953 32.9338 86.5594C33.0291 86.5518 33.1297 86.5442 33.2276 86.5367C33.2276 84.5159 33.0847 82.4851 33.2514 80.4821C33.9608 72.1108 37.5312 64.8752 42.9834 58.3906C47.1123 53.4817 52.1093 49.4858 57.363 45.7579C61.6586 42.7155 65.1867 38.9674 68.7068 35.1637C70.3981 33.3402 72.4228 31.7874 74.3125 30.1283C74.5931 29.883 74.9583 29.7439 75.2892 29.5542C75.2124 29.5011 75.1277 29.4429 75.0483 29.3898C73.6747 30.8718 72.3116 32.364 70.9327 33.8384C68.278 36.671 65.7795 39.6578 62.9026 42.2704C59.8615 45.0346 56.4684 47.4423 53.2077 49.9815C46.9138 54.8854 41.7447 60.6491 38.3252 67.7507C35.8505 72.8746 34.4954 78.2717 34.0031 83.8811C33.9158 84.9105 33.8152 85.9373 33.7914 86.9691C33.7464 88.6307 33.8999 88.9469 35.2418 90.5174C35.3953 90.0242 35.5276 89.6095 35.6573 89.1896C37.3803 89.3085 38.1267 90.1456 40.2202 94.4147C40.3076 92.9175 40.4214 91.6302 40.4479 90.3429C40.5537 85.8917 40.559 81.433 40.7363 76.9742C40.9269 72.2373 41.4907 67.5358 43.1766 63.0239C43.2613 62.7912 43.3592 62.5712 43.6398 62.3866C43.4651 63.3299 43.256 64.2657 43.1237 65.209C42.7584 67.8595 42.2238 70.4998 42.1285 73.1553C41.7897 82.4269 41.5171 91.6985 41.3954 100.968C41.3239 106.658 43.0072 112.07 44.8573 117.427C46.5618 122.361 47.5807 127.399 47.4246 132.626C47.4061 133.211 47.6919 133.883 48.0333 134.394C53.0118 141.88 58.9246 148.653 65.3667 155.014C68.6036 158.216 71.7876 161.478 75.6729 164.005C80.1512 166.91 85.0714 168.362 90.5078 168.633C98.4214 169.02 105.176 166.435 111.287 161.928C114.889 159.278 118.441 156.562 121.956 153.807C127.207 149.7 130.83 144.551 132.561 138.236C134.623 130.704 136.793 123.193 138.731 115.631C140.809 107.546 141.105 99.3236 139.702 91.1168C139.289 88.7041 138.286 86.3141 137.177 84.0885C134.771 79.2529 130.553 76.6758 124.989 76.5772C117.39 76.4457 110.345 78.4386 104.067 82.5761C100.915 84.6651 98.8846 87.5989 98.0033 91.2685C97.7995 90.1102 98.2732 88.0693 99.1387 86.0814C101.526 80.6237 105.859 77.2246 111.605 75.3658C116.586 73.7522 121.689 73.0845 126.876 74.3035C134.014 75.9702 138.141 80.6161 140.176 87.1209C142.116 93.3373 141.973 99.7182 141.595 106.099C141.28 111.43 140.107 116.597 138.479 121.688C138.437 121.82 138.453 121.956 138.429 122.224C140.684 119.748 142.5 117.159 143.95 114.334C144.093 114.053 144.038 113.653 144.003 113.312C143.648 109.733 143.291 106.16 142.91 102.576C142.637 99.9938 142.296 97.4142 142.042 94.8295C141.835 92.6621 141.632 90.4896 141.584 88.3222C141.441 81.997 140.65 75.7578 139.218 69.5868C139.178 69.3921 139.162 69.1898 139.197 68.9799C141.431 73.7674 142.283 78.8533 142.749 84.0733C143.937 81.476 145.551 79.306 148.537 78.1022C147.436 79.2883 146.425 80.2823 145.512 81.3672C143.548 83.7066 142.587 86.39 142.672 89.392C142.709 90.7779 142.722 92.174 142.889 93.5548C143.111 95.358 144.464 96.008 145.967 94.8902C147.169 93.9873 148.076 92.7278 149.09 91.5973C149.347 91.3065 149.495 90.9347 149.765 90.4795C149.027 93.8887 146.634 97.3105 143.72 96.7591C144.038 101.602 144.355 106.44 144.67 111.276C144.855 111.284 145.038 111.289 145.221 111.291C145.779 107.586 146.332 103.881 146.88 100.209C147.531 102.869 147.547 105.629 147.042 108.357C146.697 110.234 146.02 112.06 145.517 113.906C145.427 114.227 145.387 114.612 145.464 114.931C147.809 124.584 147.378 134.344 146.578 144.101C146.335 147.045 145.922 149.971 145.591 152.907C145.575 153.036 145.53 153.15 145.438 153.274C145.848 141.094 146.899 128.911 144.667 116.6C144.411 116.956 144.26 117.176 144.101 117.381C143.109 118.711 142.277 120.206 141.079 121.334C138.411 123.858 137.122 126.926 136.386 130.353C135.584 134.076 134.758 137.798 133.647 141.44C132.59 144.905 130.465 147.864 127.829 150.439C127.006 151.25 126.514 152.133 126.323 153.216C125.021 160.426 124.743 167.664 125.81 174.92C126.029 176.43 126.31 177.94 126.635 179.434C127.607 183.873 130.584 187.022 134.123 189.74C138.252 192.924 143.05 194.824 148.196 195.929C154.749 197.333 161.408 197.707 168.093 197.424C173.972 197.161 179.84 196.703 185.715 196.341C187.576 196.227 189.431 196.139 191.329 196.21C190.003 196.483 188.685 196.791 187.354 197.029C178.649 198.569 169.888 199.594 161.021 199.366C152.904 199.151 145.049 197.732 137.881 193.843C134.2 191.837 131.05 189.252 128.708 185.836C128.634 185.727 128.525 185.643 128.26 185.618C129.478 188.868 130.695 192.118 131.913 195.357C126.08 185.297 120.079 168.873 125.619 152.72C123.711 154.207 121.927 155.623 120.106 157.012C116.546 159.713 113.007 162.447 109.387 165.077C105.128 168.162 100.264 169.642 94.9172 169.652C91.9661 169.657 89.0177 169.619 86.0666 169.606H84.7856C86.1883 170.679 87.4879 171.546 88.6312 172.571C93.6891 177.118 94.8034 182.032 92.0561 188.496C90.2907 192.669 88.0993 196.68 86.3683 200.863C82.1892 210.947 78.0629 221.053 74.1087 231.217C70.3504 240.886 66.8409 250.64 63.2255 260.357C63.1672 260.519 63.1514 260.696 63.1196 260.873H61.9947L61.9974 260.886ZM36.5492 131.721H36.6392C36.6234 131.483 36.6207 131.246 36.5863 131.015C36.0199 127.174 35.4217 123.34 34.8898 119.493C34.109 113.846 34.6727 108.17 34.7204 102.508C34.7415 99.5538 34.6727 96.5846 34.3922 93.6484C34.199 91.6479 33.3547 89.8042 31.3193 88.6181C31.2452 88.9646 31.1579 89.2301 31.1314 89.5083C30.8085 93.092 30.4883 96.6782 30.1813 100.262C29.6704 106.084 29.202 111.908 28.6567 117.728C28.4582 119.829 28.6409 121.832 29.4666 123.802C32.1425 130.158 34.4875 136.62 36.3243 143.251C36.9965 145.674 37.9838 148.003 39.5189 150.08C36.8377 142.158 36.274 133.866 34.5483 125.775C34.6568 125.752 34.7654 125.727 34.8739 125.704C35.435 127.71 35.9934 129.713 36.5519 131.721H36.5492ZM40.4505 104.695C40.3393 104.7 40.2229 104.703 40.1144 104.705C40.0191 108.297 39.8338 111.888 39.8682 115.479C39.8947 117.945 40.5246 120.338 41.6521 122.586C43.0628 125.403 44.5 128.206 45.9477 131.003C46.1886 131.473 46.5221 131.898 46.8132 132.348C46.9535 132.298 47.0885 132.257 47.2261 132.207C46.3791 128.676 45.7677 125.077 44.627 121.64C42.7823 116.081 40.6702 110.613 40.4505 104.698V104.695ZM62.9158 177.664C63.3578 179.743 63.8104 181.857 64.2418 183.888C64.6335 183.132 65.1284 182.27 65.5255 181.367C65.6287 181.124 65.5387 180.684 65.3614 180.466C64.5726 179.49 63.7125 178.552 62.9158 177.664Z" fill="#5B4C39"/>
</g>
<path fill-rule="evenodd" clip-rule="evenodd" d="M90.0681 3.5C93.6332 3.96282 97.246 4.22837 100.766 4.91881C122.591 9.2157 137.095 22.0457 146.234 40.953C149.413 47.521 151.281 54.4987 152.329 61.6635C152.785 64.7591 153.163 67.8648 153.557 70.8087C154.844 46.871 145.591 20.7103 112.705 5.69017C112.742 5.60671 112.777 5.51567 112.822 5.43221C115.429 6.51718 118.134 7.44788 120.646 8.72253C130.311 13.6441 137.812 20.814 143.714 29.5519C147.933 35.8013 151.009 42.5387 152.904 49.7466C155.323 58.9473 155.894 68.2366 153.65 77.5562C152.636 81.7696 150.643 85.5683 147.912 89.0053C147.801 89.1469 147.708 89.3037 147.605 89.4504C147.528 89.4024 147.451 89.3442 147.375 89.2987C147.695 88.6917 147.991 88.0797 148.338 87.4879C150.503 83.8308 151.882 79.8905 152.716 75.7934C152.888 74.9589 152.703 74.0231 152.53 73.1582C151.133 66.1451 149.998 59.0637 148.203 52.1315C145.39 41.2742 140.213 31.4665 132.312 23.1053C124.404 14.7367 114.616 9.24099 103.259 6.35026C98.924 5.24253 94.4854 4.51416 90.0919 3.61381C90.084 3.57587 90.0707 3.53288 90.0654 3.50506L90.0681 3.5Z" fill="#5B4C39"/>
<path fill-rule="evenodd" clip-rule="evenodd" d="M35.9297 65.3562C36.5702 59.8656 38.5341 54.9162 42.6418 51.024C44.7141 49.0563 47.1835 47.4681 49.5311 45.7761C50.5369 45.0528 51.6697 44.4737 52.7787 43.8869C56.754 41.7979 59.2975 38.6062 60.8882 34.5875C62.3492 30.9002 63.9557 27.2558 66.4675 24.0641C68.1296 21.9498 70.149 20.23 72.7005 19.1653C76.1703 17.706 79.5872 17.8173 82.8771 19.6534C85.7911 21.2872 87.6623 23.7429 88.991 26.6994C85.9314 23.4622 82.1386 23.3509 78.2638 24.4738C76.2868 25.0454 74.5055 26.2694 72.6634 27.2457C72.1711 27.5036 71.7688 27.9234 71.2686 28.2067C72.8725 25.8066 75.0137 24.0413 77.8986 23.1966C80.765 22.3544 83.5573 22.6503 86.2887 23.8719C84.5207 21.9801 82.4033 20.6954 79.8334 20.1896C74.3758 19.1122 70.3793 21.4414 67.1291 25.3261C64.9032 27.9917 63.5137 31.1025 62.1692 34.2259C61.4466 35.9001 60.6553 37.544 59.8004 39.1525C58.3738 41.8333 55.9759 43.5784 53.3239 45.0225C48.9409 47.4023 44.9338 50.1944 41.8742 54.0993C39.3995 57.2581 37.6262 60.7634 36.2579 64.471C36.1467 64.7669 36.0382 65.0628 35.9297 65.3562Z" fill="#5B4C39"/>
<path fill-rule="evenodd" clip-rule="evenodd" d="M84.5235 90.6143C83.6157 88.9982 82.9937 87.587 82.0859 86.3528C79.4339 82.7514 75.6491 80.6169 71.3799 79.2057C66.1315 77.4707 60.7507 76.7778 55.227 77.5567C50.8388 78.1764 47.4034 80.144 45.4766 84.1424C45.9318 81.2416 47.2869 78.7985 49.6584 76.9321C52.4983 74.6913 55.9258 74.0262 59.4803 74.016C64.7155 74.0009 69.7363 75.0327 74.4184 77.3367C79.0925 79.6382 82.6761 82.8855 84.055 87.9285C84.2694 88.7125 84.3435 89.5268 84.5262 90.6118L84.5235 90.6143Z" fill="#5B4C39"/>
<path fill-rule="evenodd" clip-rule="evenodd" d="M37.9121 48.9904C39.0925 45.3081 40.7838 41.8762 42.7794 38.5884C47.5832 30.6345 53.5727 23.6416 61.2243 18.022C65.2738 15.0554 69.625 12.5895 74.6061 11.3402C78.6132 10.3336 82.5304 10.3463 86.0082 12.9107C89.1657 15.24 90.8728 18.4165 91.5874 22.1014C91.741 22.8955 91.7912 23.7099 91.7754 24.5268C91.3704 23.2824 91.0263 22.0129 90.5552 20.7913C88.5596 15.6244 84.4651 12.7818 78.7271 12.8121C75.1408 12.8273 71.8006 14.0058 68.6193 15.541C63.0585 18.2142 58.2944 21.8864 53.9988 26.1403C47.9405 32.1418 43.277 39.0714 39.3413 46.4765C38.9576 47.2049 38.5711 47.9333 38.1741 48.6541C38.1106 48.7729 38.0021 48.8817 37.9148 48.9879L37.9121 48.9904Z" fill="#5B4C39"/>
<path fill-rule="evenodd" clip-rule="evenodd" d="M101.96 22.3421C105.411 19.3603 109.281 17.3775 114.053 17.3927C118.216 17.4078 121.141 19.2971 122.967 22.7695C123.692 24.1529 124.272 25.6273 124.756 27.1169C126.13 31.3784 127.21 35.7385 128.787 39.9317C131.172 46.2696 135.761 50.9408 141.798 54.3525C141.888 54.4056 141.973 54.4815 142.007 54.7066C141.634 54.5751 141.25 54.4688 140.888 54.3221C134.168 51.568 129.819 46.6945 127.472 40.2175C126.191 36.7072 125.391 33.0324 124.309 29.4487C123.782 27.7138 123.247 25.9536 122.461 24.3198C120.548 20.3466 116.588 18.5029 112.06 19.2389C108.775 19.77 105.623 20.6729 102.643 22.1069C102.431 22.2156 102.196 22.2687 101.965 22.3446L101.96 22.3421Z" fill="#5B4C39"/>
<path fill-rule="evenodd" clip-rule="evenodd" d="M142.813 68.6915C139.825 66.8251 137.445 64.4073 135.394 61.6708C132.266 57.5004 130.304 52.7786 128.309 48.0669C126.53 43.856 124.913 39.5718 122.126 35.8161C118.579 31.0337 113.834 28.2213 107.643 27.9179C104.941 27.7838 102.228 27.8926 99.4648 27.6852C100.436 27.4829 101.394 27.2502 102.368 27.0883C106.553 26.4004 110.676 26.5269 114.66 28.0747C119.133 29.8147 122.208 33.0215 124.272 37.0453C126.392 41.1778 128.24 45.4392 130.116 49.6856C133.202 56.6531 137.114 63.0997 142.728 68.5195C142.77 68.5651 142.786 68.6333 142.815 68.6966L142.813 68.6915Z" fill="#5B4C39"/>
<path fill-rule="evenodd" clip-rule="evenodd" d="M53.6052 96.5167C52.5836 95.7023 51.5646 94.888 50.543 94.0761C59.6768 97.4701 68.7232 98.0038 77.7618 93.803C77.8068 93.9218 77.8517 94.0458 77.8967 94.1646C76.1234 95.0675 74.3951 96.0716 72.5636 96.8556C69.5146 98.158 66.2803 98.894 62.9428 98.9522C60.8969 98.9876 58.9701 99.3416 57.0751 100.022C56.4584 100.245 55.8046 100.366 55.0662 100.346C55.8205 99.8222 56.5748 99.2936 57.3318 98.7625C57.3265 98.6714 57.3238 98.5753 57.3133 98.4792C56.244 98.4792 55.1588 98.3578 54.1134 98.502C51.869 98.808 49.7119 98.6487 47.4648 97.9532C49.6193 97.5637 51.6308 97.2071 53.6396 96.8454C53.6264 96.7392 53.6132 96.6229 53.6026 96.5167H53.6052Z" fill="#5B4C39"/>
<path fill-rule="evenodd" clip-rule="evenodd" d="M104.303 94.6067C113.595 97.6036 122.771 97.9703 131.776 93.4028C131.815 93.5394 131.86 93.681 131.897 93.8252C130.831 94.6572 129.761 95.4893 128.438 96.5237C130.791 96.9284 133.004 97.3178 135.095 97.682C133.213 98.4635 131.056 98.4534 128.856 98.2713C127.615 98.16 126.36 98.2485 125.111 98.2485C125.082 98.332 125.056 98.4154 125.029 98.509C125.765 98.9061 126.501 99.3133 127.234 99.7204C127.226 99.7963 127.218 99.8646 127.21 99.9379C126.559 99.8494 125.91 99.7533 125.257 99.6699C122.906 99.374 120.556 99.0224 118.201 98.8075C113.397 98.3547 108.897 96.9966 104.636 94.8672C104.512 94.8039 104.417 94.6977 104.308 94.6041L104.303 94.6067Z" fill="#5B4C39"/>
<path d="M85.3496 132.467C86.7547 131.482 88.1155 130.997 89.7441 131.501H89.7451C90.8466 131.838 91.9855 131.793 93.0264 131.56L93.0283 131.559C94.1433 131.301 95.1057 131.497 96.0088 132.06C98.6271 133.688 101.202 135.584 104.153 136.859L104.2 136.885L105.158 137.403L104.369 138.017C103.469 138.709 102.621 139.491 101.907 140.356C101.226 141.181 100.554 141.805 99.6387 142.331C97.1879 143.723 94.6256 144.7 91.8154 144.914C90.4409 145.018 89.0552 144.799 87.6738 144.45H87.6748C85.0475 143.767 82.189 142.43 80.1592 140.72L80.1582 140.719L79.54 140.185L78.9229 139.641C78.8808 139.601 78.8048 139.521 78.6934 139.403C78.5827 139.286 78.4476 139.144 78.3105 139.008C78.1751 138.873 78.0282 138.733 77.8916 138.626C77.8236 138.573 77.7485 138.519 77.6719 138.478C77.6295 138.455 77.5653 138.425 77.4883 138.406L75.2637 137.253C79.2594 136.862 82.3434 134.564 85.3486 132.467H85.3496Z" stroke="#5B4C39" stroke-width="0.814286"/>
<path fill-rule="evenodd" clip-rule="evenodd" d="M72.0203 135.857C75.8845 137.519 80.8073 136.874 83.9966 135.906C88.4749 134.558 92.8525 134.52 97.3069 135.969C99.6466 136.735 102.084 137.256 104.615 137.018C105.456 137.003 107.264 135.994 108.275 135.976C107.473 136.821 105.485 137.954 104.617 138.336C101.047 138.596 97.659 137.653 94.2526 136.851C91.2989 136.153 88.4113 136.224 85.5344 137.185C82.7924 138.106 79.9763 138.634 77.0543 138.536C76.0036 138.331 74.9687 138.058 74.0582 137.486C73.7036 137.264 71.2104 135.959 72.0203 135.857Z" fill="#5B4C39"/>
<path fill-rule="evenodd" clip-rule="evenodd" d="M80.3623 141.443C81.1299 141.329 81.5692 141.911 82.1171 142.22C84.4674 143.542 86.8917 144.63 89.6417 144.928C94.0061 145.394 97.6771 143.77 101.165 141.524C101.475 141.324 101.676 140.786 102.235 141.056C100.321 143.244 98.082 145.014 95.1998 145.884C90.8856 147.182 87.0082 146.087 83.414 143.747C82.35 143.049 81.3813 142.215 80.3649 141.443H80.3623Z" fill="#5B4C39"/>
<path fill-rule="evenodd" clip-rule="evenodd" d="M88.3099 121.255C87.7462 120.959 87.1665 120.691 86.6187 120.37C85.687 119.826 84.721 119.576 83.6649 120.018C83.0747 120.256 83.0006 120.026 83.1409 119.533C83.5511 118.116 85.3456 117.664 86.6928 118.668C87.5371 119.292 88.0347 120.162 88.3073 121.255H88.3099Z" fill="#5B4C39"/>
<path fill-rule="evenodd" clip-rule="evenodd" d="M91.405 121.195C91.9555 120.874 92.5219 120.575 93.0539 120.239C93.9644 119.655 94.9145 119.369 95.9865 119.761C96.5846 119.981 96.6508 119.74 96.4867 119.263C96.0182 117.869 94.2052 117.482 92.9004 118.539C92.0852 119.197 91.6273 120.084 91.4023 121.192L91.405 121.195Z" fill="#5B4C39"/>
<path d="M153.841 65.3569C153.841 65.3569 154.703 65.8754 156.069 66.973C157.408 68.0883 159.327 69.7196 161.246 72.0286C162.22 73.1718 163.191 74.4768 164.094 75.9386C165.028 77.3827 165.841 79.0139 166.545 80.7514C167.236 82.499 167.762 84.3755 168.088 86.3254C168.329 88.2804 168.487 90.2961 168.27 92.2966C168.228 93.3006 167.966 94.2794 167.826 95.2682C167.569 96.2318 167.349 97.208 167.026 98.1387C166.397 100.01 165.565 101.776 164.637 103.404C163.734 105.053 162.646 106.515 161.622 107.891C160.518 109.211 159.491 110.47 158.401 111.505C157.869 112.033 157.385 112.562 156.882 113.025C156.366 113.472 155.873 113.897 155.413 114.297C154.955 114.694 154.523 115.066 154.126 115.412C153.708 115.733 153.324 116.029 152.978 116.297C151.588 117.36 150.778 117.941 150.778 117.941C150.778 117.941 151.469 117.226 152.705 116.017C153.015 115.716 153.356 115.384 153.732 115.02C154.081 114.638 154.463 114.224 154.867 113.784C155.272 113.344 155.701 112.876 156.154 112.382C156.585 111.872 157.035 111.333 157.506 110.774C158.48 109.676 159.37 108.376 160.367 107.051C161.273 105.665 162.215 104.203 163.027 102.613C163.869 101.037 164.539 99.3325 165.131 97.5798C165.42 96.7022 165.61 95.7918 165.843 94.8914C165.963 93.9683 166.195 93.0578 166.225 92.1271C166.452 90.2759 166.322 88.4069 166.127 86.5859C165.828 84.7751 165.449 82.9972 164.846 81.3305C164.224 79.674 163.57 78.0807 162.76 76.6467C161.971 75.2077 161.146 73.8748 160.299 72.6938C158.623 70.324 157.001 68.4727 155.794 67.2461C154.59 66.012 153.838 65.3569 153.838 65.3569H153.841Z" fill="#5B4C39"/>
<path d="M150.778 80.3563C150.778 80.3563 150.895 80.4448 151.096 80.632C151.302 80.8115 151.604 81.0821 151.954 81.4564C152.321 81.8156 152.716 82.2936 153.176 82.8398C153.592 83.4114 154.121 84.0336 154.561 84.7872C154.788 85.159 155.045 85.5434 155.278 85.9531C155.492 86.3755 155.712 86.8105 155.937 87.2606C156.384 88.1585 156.755 89.1625 157.107 90.2045C157.366 91.2692 157.752 92.3567 157.84 93.5125C157.903 94.0866 158.012 94.6658 158.036 95.25L158.049 97.0127L158.036 97.8954L157.911 98.7679C157.827 99.3471 157.742 99.9262 157.657 100.498C157.451 101.636 157.017 102.706 156.72 103.763C156.323 104.787 155.804 105.73 155.376 106.633C154.955 107.546 154.317 108.285 153.843 109.018C153.346 109.739 152.901 110.404 152.382 110.907C151.893 111.423 151.464 111.874 151.112 112.245C150.4 112.976 149.984 113.376 149.984 113.376C149.984 113.376 150.27 112.867 150.786 112.01C151.048 111.588 151.366 111.074 151.734 110.483C152.136 109.921 152.441 109.203 152.822 108.454C153.01 108.077 153.203 107.688 153.404 107.283C153.608 106.881 153.843 106.479 153.981 106.021C154.293 105.126 154.672 104.2 155 103.229C155.222 102.23 155.516 101.214 155.707 100.166C155.77 99.6379 155.836 99.1043 155.902 98.5707L156.003 97.7689L155.998 96.9596L156.022 95.341C156.011 94.8023 155.916 94.2712 155.871 93.7401C155.804 92.6754 155.55 91.6486 155.36 90.6445C155.259 90.1413 155.071 89.6683 154.955 89.1853C154.82 88.7098 154.703 88.2394 154.518 87.7993C154.19 86.9066 153.878 86.0593 153.518 85.3057C153.197 84.5293 152.808 83.8616 152.515 83.2369C152.165 82.6476 151.898 82.1013 151.628 81.6841C151.117 80.8216 150.776 80.3538 150.776 80.3538L150.778 80.3563Z" fill="#5B4C39"/>
<path d="M153.139 57.6822C153.139 57.6822 153.896 57.8011 155.163 58.2285C156.426 58.6559 158.204 59.3944 160.137 60.6438C162.074 61.8678 164.144 63.6356 165.904 65.8992C166.764 67.0398 167.584 68.2765 168.243 69.6169C168.892 70.9598 169.461 72.3685 169.866 73.8177C170.072 74.541 170.25 75.2694 170.371 76.0079C170.528 76.7388 170.618 77.4747 170.697 78.2031C170.808 78.9315 170.824 79.6598 170.845 80.3756C170.888 81.0913 170.858 81.7994 170.835 82.4924C170.824 83.1904 170.792 83.8682 170.7 84.5283C170.615 85.1909 170.581 85.8409 170.456 86.4656C170.348 87.0877 170.242 87.6947 170.144 88.2814C170.027 88.8631 169.871 89.417 169.744 89.9531C169.509 91.028 169.191 91.989 168.91 92.8388C168.656 93.6936 168.376 94.422 168.132 95.0163C167.645 96.2 167.367 96.8777 167.367 96.8777C167.367 96.8777 167.505 96.1645 167.738 94.9127C167.876 94.293 168.011 93.5368 168.148 92.6668C168.294 91.7994 168.463 90.8231 168.585 89.7559C168.741 88.6911 168.831 87.5303 168.934 86.3088C169.006 85.6992 168.985 85.0695 169.014 84.4322C169.024 84.111 169.037 83.7898 169.048 83.461C169.04 83.1348 169.035 82.806 169.03 82.4747C169.03 81.1495 168.9 79.7863 168.73 78.4155C168.643 77.7302 168.548 77.0397 168.389 76.3594C168.267 75.6715 168.085 74.9937 167.886 74.3235C167.534 72.9704 167.029 71.6604 166.449 70.411C165.846 69.1667 165.187 67.973 164.43 66.8855C163.649 65.8182 162.868 64.7864 162.003 63.9063C161.142 63.0236 160.29 62.2143 159.435 61.534C157.736 60.1632 156.148 59.1946 154.999 58.58C153.851 57.9579 153.144 57.6797 153.144 57.6797L153.139 57.6822Z" fill="#5B4C39"/>
<path opacity="0.5" d="M90.3675 36.15C103.378 36.0105 136.885 36.883 137.268 59.2582C137.65 81.6334 87.0152 80.5859 87.0152 80.5859C87.0152 80.5859 51.0391 80.2207 51.0391 61.0513C51.0391 41.882 90.3648 36.15 90.3648 36.15H90.3675Z" fill="#FFE3E3"/>
<path opacity="0.5" d="M109.779 123.113C114.442 115.307 127.119 95.5615 139.295 101.852C151.471 108.142 132.464 138.057 132.464 138.057C132.464 138.057 119.162 159.423 108.85 153.838C98.5343 148.253 109.779 123.111 109.779 123.111V123.113Z" fill="#FFE3E3"/>
<path opacity="0.5" d="M71.9963 126.677C67.3327 118.87 54.6558 99.1248 42.4797 105.415C30.3037 111.705 49.3109 141.62 49.3109 141.62C49.3109 141.62 62.6125 162.986 72.9252 157.401C83.2407 151.816 71.9963 126.674 71.9963 126.674V126.677Z" fill="#FFE3E3"/>
</svg>
