<svg width="201" height="270" viewBox="0 0 201 270" fill="none" xmlns="http://www.w3.org/2000/svg">
<mask id="mask0_3596_1984" style="mask-type:luminance" maskUnits="userSpaceOnUse" x="36" y="17" width="157" height="239">
<path d="M36.1553 17.1533H192.846V256H36.1553V17.1533Z" fill="white"/>
</mask>
<g mask="url(#mask0_3596_1984)">
<path fill-rule="evenodd" clip-rule="evenodd" d="M68.585 249.539C69.6161 245.723 70.557 241.87 71.6855 238.093C75.6068 224.96 80.5402 212.215 85.969 199.668C88.1286 194.665 90.3287 189.678 92.6498 184.754C95.6089 178.471 94.3141 173.762 89.7656 168.585C88.403 167.037 86.7685 165.865 84.8916 165.001C81.4169 163.413 78.4792 161.028 75.8206 158.302C71.8613 154.249 67.9103 150.179 64.0567 146.024C58.5685 140.101 54.3835 133.312 51.2236 125.84C50.0167 122.986 48.6399 120.186 48.527 117.037C48.4189 114.136 48.5746 111.23 48.571 108.323C48.571 104.741 48.571 101.15 48.4712 97.5649C48.4308 96.1257 47.8095 94.8226 46.9637 93.628C47.2975 96.5536 47.7466 99.455 47.0493 102.419C46.7345 100.433 46.4197 98.4437 46.0645 96.2088C46.0193 96.5608 45.992 96.6741 45.992 96.7814C45.9303 101.61 45.9314 106.437 45.7936 111.263C45.6285 116.937 46.251 122.517 47.1954 128.098C47.6456 130.784 47.7917 133.541 47.9058 136.275C48.0578 140.034 48.5342 143.732 49.5641 147.358C50.3897 150.251 52.4495 152.248 54.4286 154.274C60.5963 160.576 66.6178 167.016 72.0169 174.01C74.7764 177.592 77.1701 181.465 79.7229 185.209C79.837 185.377 79.8904 185.587 79.8536 185.853C77.517 183.048 75.1851 180.242 72.7059 177.267C67.2165 188.863 61.2461 200.006 54.6686 210.812C48.0851 221.635 41.4162 232.402 34.0321 242.694C33.956 242.649 33.8765 242.609 33.7957 242.567C33.9976 242.142 34.1687 241.698 34.4051 241.297C39.1437 233.311 43.9132 225.35 48.6185 217.35C54.6733 207.059 60.6806 196.738 66.7034 186.433C66.7449 186.362 66.7521 186.268 66.8245 186.005C64.2064 188.869 61.1593 190.686 57.6205 191.67C54.8978 192.427 52.1169 192.638 49.3158 192.572C43.4 192.44 37.7182 190.939 32.0352 189.477C29.1272 188.731 26.2334 187.93 23.3408 186.977C24.4111 187.085 25.4898 187.13 26.5423 187.326C30.5836 188.079 34.6094 188.869 38.6412 189.655C44.8397 190.867 51.0656 191.383 57.2855 189.951C60.9835 189.102 64.4178 187.601 66.8008 184.441C69.6696 180.626 70.0545 176.407 68.0065 172.12C67.3128 170.664 66.0559 169.465 64.9702 168.228C60.4038 163.002 55.8209 157.791 51.2082 152.607C48.375 149.429 46.3864 145.809 45.347 141.642C43.855 135.667 41.8569 129.863 39.4133 124.219C38.4915 122.087 38.3383 119.906 38.545 117.627C39.2613 109.735 39.923 101.839 40.6024 93.9463C40.7153 92.6275 40.8044 91.3112 40.9125 89.8744C41.6787 90.3396 42.3214 90.7326 42.8927 91.0798C42.0731 88.8943 41.1156 86.7342 40.4492 84.4861C38.9821 79.5439 38.8336 74.4908 39.3076 69.3738C39.8042 64.0711 40.8068 58.8866 42.5114 53.8432C46.8188 41.0971 53.6161 30.0277 63.9818 21.4367C70.3313 16.1738 77.4778 12.5648 85.678 11.3558C87.0025 11.1605 88.3543 11.105 89.395 11.0122C86.5867 11.7415 83.4779 12.3996 80.4559 13.3616C73.5303 15.5482 67.5872 19.4501 62.3995 24.5454C53.312 33.474 47.4365 44.3517 43.6898 56.4939C41.1762 64.6546 40.2936 72.9925 41.3544 81.5039C41.7215 84.4283 42.3594 87.2948 43.5413 90.0082C43.6245 90.0009 43.71 89.9937 43.7944 89.9877C43.7944 88.1385 43.6708 86.281 43.8146 84.4464C44.4263 76.7859 47.5031 70.1645 52.2013 64.2291C55.7591 59.7365 60.0665 56.0792 64.5936 52.6691C68.2952 49.8858 71.3362 46.4539 74.3702 42.9751C75.8266 41.3068 77.5728 39.8844 79.2002 38.3668C79.4414 38.1426 79.7574 38.016 80.0425 37.8412C79.976 37.7918 79.9035 37.7388 79.8358 37.6905C78.6514 39.0478 77.4766 40.4124 76.2887 41.7625C74.0007 44.3541 71.847 47.0868 69.3679 49.4795C66.7473 52.0085 63.8227 54.2132 61.0144 56.5373C55.5904 61.0238 51.1357 66.2988 48.1885 72.7972C46.055 77.4863 44.8873 82.4249 44.4632 87.5587C44.3871 88.5002 44.3004 89.4392 44.2802 90.3855C44.2422 91.9055 44.3741 92.196 45.5311 93.6329C45.6642 93.182 45.777 92.8011 45.8899 92.4178C47.3748 92.5263 48.0186 93.2929 49.8219 97.1997C49.8979 95.8303 49.9953 94.6514 50.0179 93.4725C50.1093 89.3994 50.1129 85.3179 50.2661 81.2387C50.4301 76.9028 50.9159 72.6007 52.3688 68.4721C52.4412 68.26 52.5256 68.0575 52.7679 67.8887C52.6182 68.7518 52.4365 69.6076 52.3236 70.4719C52.01 72.8972 51.5491 75.3141 51.4659 77.7442C51.1737 86.228 50.9385 94.7129 50.834 103.197C50.7722 108.404 52.2226 113.357 53.818 118.26C55.2875 122.774 56.1642 127.386 56.0311 132.17C56.0145 132.705 56.2616 133.321 56.555 133.788C60.8446 140.638 65.9395 146.836 71.4919 152.657C74.2811 155.588 77.0252 158.572 80.3739 160.886C84.2334 163.545 88.4731 164.873 93.1583 165.12C99.9769 165.473 105.799 163.11 111.064 158.986C114.168 156.559 117.228 154.075 120.257 151.553C124.782 147.795 127.905 143.082 129.396 137.304C131.172 130.411 133.043 123.538 134.712 116.619C136.502 109.219 136.757 101.696 135.548 94.1849C135.193 91.9778 134.328 89.7888 133.372 87.754C131.298 83.3289 127.664 80.9711 122.869 80.8807C116.321 80.7602 110.25 82.584 104.84 86.3702C102.123 88.2808 100.375 90.9665 99.6146 94.3248C99.4388 93.264 99.8474 91.3968 100.592 89.5778C102.65 84.5826 106.382 81.4738 111.336 79.7717C115.629 78.2951 120.027 77.684 124.497 78.799C130.649 80.325 134.204 84.5765 135.958 90.5277C137.63 96.2173 137.506 102.056 137.181 107.895C136.91 112.774 135.9 117.501 134.497 122.16C134.46 122.28 134.474 122.406 134.453 122.651C136.395 120.385 137.961 118.015 139.211 115.429C139.335 115.172 139.286 114.806 139.258 114.494C138.952 111.22 138.644 107.948 138.316 104.668C138.082 102.305 137.786 99.9456 137.569 97.5806C137.39 95.5977 137.215 93.6099 137.173 91.6258C137.051 85.8374 136.369 80.1273 135.135 74.4812C135.1 74.3027 135.087 74.1171 135.117 73.9267C137.042 78.3072 137.776 82.9625 138.177 87.7383C139.202 85.3625 140.593 83.3759 143.165 82.2742C142.217 83.3591 141.344 84.2692 140.559 85.2624C138.866 87.4032 138.038 89.8587 138.111 92.607C138.142 93.8751 138.154 95.1529 138.298 96.4162C138.49 98.0652 139.656 98.6607 140.949 97.6385C141.985 96.8127 142.767 95.6592 143.64 94.6249C143.862 94.3597 143.989 94.0186 144.221 93.6027C143.585 96.7235 141.523 99.8528 139.011 99.349C139.285 103.781 139.557 108.208 139.83 112.634C139.991 112.641 140.148 112.645 140.306 112.647C140.787 109.257 141.263 105.865 141.736 102.505C142.296 104.94 142.31 107.464 141.876 109.963C141.58 111.68 140.995 113.35 140.563 115.041C140.485 115.335 140.45 115.687 140.518 115.979C142.54 124.813 142.167 133.743 141.478 142.673C141.268 145.367 140.913 148.045 140.626 150.732C140.612 150.85 140.573 150.955 140.493 151.067C140.847 139.922 141.752 128.772 139.83 117.506C139.609 117.832 139.48 118.033 139.342 118.221C138.487 119.438 137.771 120.807 136.737 121.838C134.438 124.149 133.328 126.955 132.693 130.091C132.002 133.498 131.29 136.905 130.333 140.238C129.422 143.408 127.591 146.116 125.319 148.472C124.608 149.216 124.185 150.022 124.02 151.013C122.899 157.612 122.658 164.234 123.577 170.876C123.767 172.258 124.007 173.64 124.289 175.008C125.126 179.069 127.691 181.952 130.742 184.439C134.299 187.353 138.435 189.092 142.868 190.104C148.515 191.388 154.253 191.731 160.015 191.472C165.082 191.232 170.138 190.811 175.201 190.482C176.803 190.379 178.403 190.297 180.039 190.363C178.897 190.612 177.761 190.896 176.613 191.113C169.111 192.523 161.562 193.46 153.921 193.251C146.927 193.055 140.156 191.756 133.981 188.197C130.809 186.361 128.094 183.997 126.075 180.87C126.012 180.77 125.919 180.694 125.691 180.67C126.74 183.644 127.79 186.619 128.837 189.582C123.811 180.375 118.639 165.344 123.413 150.564C121.769 151.925 120.232 153.222 118.662 154.492C115.594 156.964 112.544 159.466 109.424 161.872C105.755 164.695 101.562 166.048 96.9549 166.059C94.4115 166.063 91.8706 166.03 89.3284 166.017C89.0208 166.017 88.7107 166.017 88.2249 166.017C89.4342 166.999 90.5544 167.793 91.5379 168.73C95.8976 172.892 96.8563 177.388 94.4899 183.305C92.9682 187.124 91.0806 190.796 89.5874 194.622C85.9856 203.849 82.4314 213.098 79.0232 222.399C75.785 231.247 72.7605 240.173 69.6446 249.067C69.5947 249.215 69.5817 249.378 69.5544 249.539C69.2301 249.539 68.9093 249.539 68.585 249.539ZM46.6549 131.337C46.6822 131.337 46.7036 131.337 46.7321 131.337C46.7178 131.119 46.7167 130.902 46.687 130.692C46.1987 127.176 45.6844 123.667 45.2246 120.148C44.5511 114.98 45.0381 109.788 45.0797 104.605C45.0987 101.902 45.0381 99.1838 44.7958 96.4969C44.6283 94.6671 43.9013 92.9795 42.1467 91.8946C42.0826 92.2117 42.0077 92.4552 41.984 92.7095C41.706 95.9882 41.4304 99.2706 41.1643 102.551C40.7248 107.878 40.3209 113.209 39.8517 118.533C39.6806 120.456 39.8386 122.289 40.549 124.091C42.8559 129.908 44.8754 135.82 46.4577 141.888C47.0374 144.106 47.8879 146.237 49.2113 148.137C46.902 140.888 46.4161 133.3 44.9288 125.895C45.0215 125.874 45.1153 125.851 45.2092 125.831C45.6927 127.665 46.1738 129.499 46.6549 131.337ZM50.0179 106.606C49.9228 106.609 49.8219 106.612 49.728 106.615C49.6461 109.901 49.4869 113.188 49.5154 116.474C49.538 118.731 50.082 120.921 51.0525 122.978C52.269 125.556 53.5068 128.12 54.7553 130.68C54.962 131.112 55.2495 131.499 55.5001 131.911C55.6213 131.865 55.7377 131.827 55.8553 131.781C55.1247 128.55 54.5997 125.257 53.6161 122.111C52.0266 117.024 50.2068 112.019 50.0179 106.606ZM69.3774 173.382C69.7587 175.286 70.1483 177.219 70.5201 179.078C70.8575 178.386 71.284 177.598 71.6261 176.771C71.7152 176.549 71.638 176.145 71.4847 175.946C70.804 175.052 70.0628 174.195 69.3774 173.382Z" fill="#5B4C39"/>
</g>
<path fill-rule="evenodd" clip-rule="evenodd" d="M92.7744 14C95.8476 14.4231 98.9599 14.6666 101.994 15.2982C120.802 19.2303 133.299 30.9723 141.175 48.2749C143.913 54.2851 145.524 60.6714 146.428 67.2277C146.82 70.0604 147.147 72.9016 147.485 75.5957C148.595 53.6896 140.62 29.7488 112.281 16.0046C112.313 15.9275 112.343 15.8455 112.381 15.7684C114.627 16.7616 116.959 17.6138 119.124 18.7795C127.453 23.2829 133.917 29.844 139.003 37.8408C142.64 43.5605 145.29 49.7262 146.922 56.3211C149.007 64.7397 149.499 73.2415 147.566 81.7711C146.692 85.626 144.974 89.1024 142.622 92.2474C142.526 92.3776 142.446 92.521 142.357 92.6536C142.292 92.609 142.225 92.556 142.158 92.515C142.434 91.9605 142.689 91.4 142.989 90.8575C144.855 87.5101 146.042 83.9059 146.762 80.1546C146.91 79.3904 146.751 78.5345 146.602 77.7426C145.398 71.3237 144.419 64.8434 142.874 58.5005C140.449 48.5642 135.988 39.5898 129.181 31.9378C122.367 24.2786 113.93 19.2508 104.144 16.6049C100.408 15.5912 96.5829 14.9258 92.797 14.1C92.7899 14.0663 92.7792 14.0265 92.7744 14Z" fill="#5B4C39"/>
<path fill-rule="evenodd" clip-rule="evenodd" d="M46.1201 70.6064C46.6713 65.581 48.3641 61.0523 51.9053 57.4903C53.6907 55.6906 55.8183 54.2356 57.8413 52.6879C58.7085 52.0261 59.6849 51.4957 60.6388 50.9593C64.0636 49.0487 66.2565 46.1268 67.6274 42.4502C68.8865 39.0763 70.2705 35.7409 72.4349 32.8201C73.8675 30.8854 75.6078 29.3124 77.8066 28.3372C80.7966 27.0028 83.7403 27.1041 86.5758 28.7844C89.0859 30.2791 90.6991 32.5272 91.8454 35.2322C89.2082 32.2705 85.9415 32.1668 82.6022 33.195C80.8988 33.7182 79.3628 34.8392 77.7769 35.7312C77.3516 35.9675 77.0071 36.3508 76.5747 36.6112C77.9563 34.4149 79.8011 32.7984 82.2886 32.0258C84.7595 31.2555 87.165 31.5255 89.5195 32.643C87.9966 30.912 86.1719 29.7367 83.9576 29.2738C79.2547 28.2878 75.8109 30.4202 73.0098 33.9737C71.0925 36.4123 69.8951 39.2595 68.7357 42.1175C68.112 43.6496 67.4313 45.154 66.6937 46.627C65.4642 49.08 63.3984 50.6772 61.1116 51.9984C57.3352 54.1754 53.882 56.732 51.2448 60.3049C49.1125 63.1955 47.5848 66.4043 46.404 69.7964C46.3078 70.0676 46.214 70.3376 46.1201 70.6064Z" fill="#5B4C39"/>
<path fill-rule="evenodd" clip-rule="evenodd" d="M87.998 93.7195C87.2152 92.2416 86.6794 90.9482 85.8966 89.8199C83.611 86.5231 80.349 84.5715 76.67 83.2805C72.1476 81.6918 67.51 81.0577 62.75 81.7726C58.9677 82.3403 56.0074 84.14 54.3467 87.7984C54.7387 85.1429 55.9076 82.9081 57.9496 81.2012C60.3979 79.1496 63.3511 78.5408 66.4135 78.5324C70.9241 78.5179 75.2516 79.463 79.287 81.57C83.314 83.6771 86.4038 86.6485 87.5917 91.2628C87.777 91.98 87.8412 92.7262 87.998 93.7195Z" fill="#5B4C39"/>
<path fill-rule="evenodd" clip-rule="evenodd" d="M47.8301 55.6294C48.8469 52.2591 50.3045 49.1202 52.0234 46.1115C56.1621 38.8331 61.3248 32.4336 67.9189 27.2912C71.4079 24.5766 75.1581 22.3189 79.4512 21.1761C82.9045 20.2552 86.2806 20.2661 89.2765 22.613C91.9968 24.7454 93.4675 27.6505 94.084 31.0244C94.2171 31.7501 94.2586 32.4974 94.2467 33.2436C93.8987 32.1045 93.6017 30.9425 93.1943 29.825C91.4742 25.0974 87.9472 22.4949 83.0019 22.5238C79.9122 22.5383 77.0338 23.6171 74.2909 25.0202C69.5001 27.4672 65.3934 30.8267 61.6907 34.7202C56.471 40.2133 52.4523 46.5538 49.0596 53.3307C48.7281 53.9961 48.3955 54.6627 48.0534 55.3245C47.9976 55.4342 47.9061 55.533 47.8301 55.6294Z" fill="#5B4C39"/>
<path fill-rule="evenodd" clip-rule="evenodd" d="M103.023 31.2417C105.997 28.5127 109.332 26.6997 113.444 26.713C117.033 26.7274 119.552 28.456 121.125 31.6335C121.751 32.9004 122.25 34.2492 122.666 35.6114C123.849 39.5121 124.78 43.502 126.14 47.3377C128.194 53.137 132.151 57.4126 137.352 60.5334C137.43 60.5828 137.503 60.6515 137.531 60.8565C137.209 60.7371 136.879 60.6383 136.565 60.5057C130.776 57.9864 127.028 53.5263 125.005 47.5981C123.901 44.3868 123.211 41.0225 122.278 37.7438C121.825 36.155 121.365 34.5458 120.687 33.0499C119.038 29.4131 115.625 27.7267 111.723 28.3993C108.892 28.8863 106.175 29.712 103.608 31.0235C103.426 31.1224 103.223 31.1706 103.023 31.2417Z" fill="#5B4C39"/>
<path fill-rule="evenodd" clip-rule="evenodd" d="M138.227 73.6583C135.651 71.9502 133.601 69.7371 131.833 67.2334C129.137 63.4171 127.446 59.0968 125.727 54.7851C124.195 50.9313 122.8 47.0101 120.398 43.5735C117.342 39.1966 113.253 36.623 107.918 36.3446C105.589 36.2228 103.251 36.3204 100.87 36.1312C101.708 35.9468 102.532 35.7334 103.372 35.5839C106.978 34.9535 110.531 35.0704 113.963 36.4856C117.818 38.0767 120.468 41.0131 122.247 44.6945C124.074 48.4771 125.666 52.3766 127.282 56.2617C129.942 62.6384 133.313 68.5365 138.151 73.4968C138.187 73.539 138.202 73.6017 138.227 73.6583Z" fill="#5B4C39"/>
<path fill-rule="evenodd" clip-rule="evenodd" d="M61.3535 99.1221C60.472 98.3759 59.5954 97.6322 58.7139 96.8884C66.5851 99.9948 74.3814 100.482 82.1705 96.6377C82.2097 96.7462 82.2478 96.8607 82.287 96.968C80.7581 97.7949 79.2696 98.7134 77.6921 99.4294C75.0644 100.622 72.2764 101.295 69.4016 101.348C67.6388 101.38 65.978 101.704 64.3458 102.327C63.8137 102.53 63.2506 102.642 62.6139 102.624C63.2637 102.144 63.9146 101.661 64.5656 101.176C64.5609 101.093 64.5585 101.004 64.5502 100.917C63.6295 100.917 62.6946 100.805 61.7918 100.937C59.8579 101.218 57.9988 101.071 56.0625 100.436C57.9192 100.08 59.6524 99.7525 61.3844 99.4222C61.3725 99.3246 61.3606 99.2185 61.3535 99.1221Z" fill="#5B4C39"/>
<path fill-rule="evenodd" clip-rule="evenodd" d="M105.041 97.3735C113.05 100.116 120.957 100.452 128.715 96.2729C128.749 96.3983 128.789 96.5273 128.82 96.6587C127.901 97.4205 126.978 98.1811 125.838 99.1274C127.864 99.4987 129.772 99.853 131.573 100.187C129.952 100.902 128.094 100.892 126.198 100.727C125.129 100.625 124.047 100.706 122.97 100.706C122.945 100.782 122.923 100.86 122.899 100.945C123.532 101.309 124.166 101.68 124.798 102.053C124.791 102.122 124.785 102.186 124.777 102.253C124.215 102.172 123.657 102.084 123.094 102.007C121.07 101.736 119.044 101.414 117.013 101.219C112.873 100.804 108.997 99.5625 105.324 97.6134C105.217 97.5555 105.134 97.4579 105.041 97.3735Z" fill="#5B4C39"/>
<path d="M88.7412 132.029C89.9495 131.131 91.1014 130.699 92.4785 131.152H92.4795C93.4425 131.465 94.4355 131.423 95.3398 131.207H95.3438C96.2854 130.975 97.0968 131.149 97.8662 131.656V131.657C100.118 133.146 102.344 134.885 104.892 136.054L104.898 136.057C104.899 136.057 104.901 136.058 104.904 136.06C104.908 136.062 104.911 136.064 104.917 136.067C104.922 136.069 104.93 136.073 104.938 136.077L105.734 136.537L105.064 137.089C104.288 137.724 103.555 138.442 102.938 139.235C102.352 139.988 101.775 140.556 100.992 141.033C98.8852 142.305 96.686 143.196 94.2764 143.391C93.1024 143.485 91.9155 143.285 90.7285 142.968H90.7295C88.4728 142.344 86.0157 141.125 84.2715 139.564L84.2695 139.562L83.7393 139.075C83.5667 138.914 83.3936 138.75 83.2129 138.584C83.1788 138.551 83.1123 138.477 83.0107 138.363C82.9154 138.255 82.7991 138.125 82.6807 137.999C82.5636 137.875 82.435 137.746 82.3154 137.647C82.2561 137.597 82.1893 137.547 82.1201 137.507C82.0844 137.487 82.0279 137.458 81.958 137.439L80.0879 136.411C83.5194 136.032 86.1725 133.932 88.7412 132.029Z" stroke="#5B4C39" stroke-width="0.783477"/>
<path fill-rule="evenodd" clip-rule="evenodd" d="M77.223 135.121C80.5527 136.641 84.796 136.052 87.5436 135.166C91.4032 133.932 95.176 133.897 99.013 135.224C101.03 135.924 103.129 136.403 105.31 136.185C106.036 136.17 107.593 135.247 108.465 135.231C107.774 136.005 106.062 137.04 105.312 137.391C102.235 137.629 99.3159 136.766 96.3817 136.033C93.8372 135.395 91.3473 135.459 88.8693 136.338C86.5066 137.18 84.0797 137.664 81.5625 137.573C80.6561 137.386 79.7651 137.137 78.9799 136.613C78.6746 136.409 76.5269 135.215 77.223 135.121Z" fill="#5B4C39"/>
<path fill-rule="evenodd" clip-rule="evenodd" d="M84.4121 140.234C85.0726 140.129 85.4527 140.663 85.9231 140.945C87.9485 142.155 90.0369 143.151 92.408 143.423C96.1689 143.85 99.3335 142.363 102.338 140.309C102.604 140.125 102.777 139.634 103.258 139.879C101.61 141.88 99.6804 143.502 97.1953 144.297C93.4783 145.483 90.1367 144.482 87.0386 142.342C86.1227 141.704 85.2876 140.939 84.4121 140.234Z" fill="#5B4C39"/>
<path fill-rule="evenodd" clip-rule="evenodd" d="M91.2606 121.759C90.776 121.489 90.2759 121.243 89.8043 120.949C89.0012 120.451 88.1697 120.222 87.2597 120.627C86.7513 120.844 86.6884 120.633 86.8071 120.183C87.16 118.888 88.7078 118.473 89.8684 119.391C90.5966 119.963 91.0243 120.758 91.2606 121.759Z" fill="#5B4C39"/>
<path fill-rule="evenodd" clip-rule="evenodd" d="M93.9268 121.706C94.4007 121.413 94.889 121.139 95.3487 120.832C96.1327 120.298 96.9524 120.035 97.8766 120.395C98.391 120.597 98.448 120.377 98.3078 119.94C97.9051 118.664 96.3418 118.31 95.218 119.278C94.5148 119.88 94.1216 120.693 93.9268 121.706Z" fill="#5B4C39"/>
<path d="M147.73 70.6057C147.73 70.6057 148.473 71.0794 149.65 72.0836C150.805 73.1033 152.458 74.5981 154.112 76.71C154.951 77.7551 155.789 78.9496 156.566 80.2876C157.37 81.61 158.071 83.1011 158.677 84.691C159.272 86.2906 159.726 88.0084 160.007 89.7912C160.214 91.5812 160.351 93.4243 160.164 95.2553C160.127 96.1739 159.902 97.0707 159.781 97.9748C159.558 98.8559 159.37 99.7491 159.093 100.603C158.55 102.315 157.835 103.931 157.033 105.422C156.255 106.931 155.318 108.268 154.436 109.527C153.485 110.737 152.6 111.888 151.66 112.835C151.201 113.32 150.783 113.802 150.35 114.225C149.904 114.635 149.481 115.023 149.085 115.389C148.689 115.752 148.317 116.092 147.975 116.409C147.615 116.703 147.285 116.975 146.986 117.219C145.788 118.191 145.091 118.724 145.091 118.724C145.091 118.724 145.687 118.069 146.752 116.963C147.019 116.688 147.313 116.384 147.637 116.051C147.938 115.702 148.265 115.323 148.615 114.919C148.963 114.517 149.334 114.088 149.725 113.637C150.096 113.169 150.484 112.677 150.89 112.164C151.729 111.16 152.495 109.969 153.356 108.756C154.137 107.488 154.949 106.15 155.649 104.695C156.375 103.253 156.952 101.692 157.462 100.089C157.711 99.2863 157.875 98.4533 158.075 97.63C158.177 96.7862 158.379 95.9521 158.404 95.101C158.6 93.4062 158.488 91.6969 158.319 90.031C158.063 88.3748 157.735 86.7475 157.216 85.2226C156.68 83.7074 156.116 82.2489 155.419 80.9362C154.738 79.6186 154.028 78.4 153.298 77.3187C151.854 75.1501 150.457 73.4565 149.416 72.3343C148.378 71.2048 147.73 70.6057 147.73 70.6057Z" fill="#5B4C39"/>
<path d="M145.091 84.3328C145.091 84.3328 145.191 84.4147 145.365 84.5847C145.542 84.7498 145.803 84.9969 146.104 85.3381C146.42 85.6672 146.759 86.1047 147.157 86.6038C147.515 87.1269 147.972 87.6959 148.35 88.3866C148.547 88.7277 148.767 89.0785 148.969 89.4546C149.153 89.8415 149.342 90.2393 149.538 90.6504C149.924 91.4725 150.243 92.3898 150.545 93.3433C150.77 94.3185 151.101 95.3117 151.176 96.3713C151.232 96.8968 151.323 97.4272 151.346 97.9612L151.357 99.5753L151.345 100.383L151.238 101.182C151.164 101.712 151.092 102.242 151.019 102.766C150.841 103.808 150.468 104.788 150.211 105.754C149.869 106.692 149.423 107.554 149.052 108.382C148.69 109.217 148.14 109.894 147.732 110.565C147.305 111.226 146.921 111.833 146.473 112.294C146.051 112.766 145.682 113.177 145.379 113.517C144.766 114.186 144.407 114.551 144.407 114.551C144.407 114.551 144.653 114.087 145.099 113.301C145.324 112.914 145.599 112.444 145.915 111.904C146.262 111.39 146.524 110.733 146.853 110.048C147.015 109.703 147.182 109.348 147.356 108.978C147.53 108.61 147.733 108.241 147.852 107.822C148.122 107.002 148.449 106.156 148.73 105.267C148.922 104.352 149.174 103.422 149.338 102.463C149.394 101.98 149.451 101.492 149.508 101.003L149.595 100.268L149.591 99.5283L149.613 98.0468C149.603 97.555 149.522 97.0668 149.483 96.581C149.426 95.6058 149.206 94.668 149.044 93.7483C148.958 93.2878 148.795 92.8551 148.694 92.4139C148.578 91.9787 148.477 91.5472 148.318 91.1458C148.035 90.3297 147.765 89.5546 147.455 88.8627C147.179 88.1515 146.845 87.5416 146.591 86.9702C146.289 86.4302 146.06 85.9311 145.826 85.5502C145.386 84.7619 145.091 84.3328 145.091 84.3328Z" fill="#5B4C39"/>
<path d="M147.128 63.5857C147.128 63.5857 147.78 63.6942 148.872 64.0859C149.959 64.4765 151.494 65.1527 153.157 66.2955C154.827 67.4165 156.61 69.0342 158.126 71.1039C158.867 72.1478 159.574 73.2797 160.143 74.5056C160.702 75.7351 161.192 77.0237 161.54 78.3509C161.718 79.0126 161.87 79.6805 161.975 80.3543C162.11 81.0221 162.187 81.6959 162.256 82.3637C162.351 83.0303 162.365 83.6957 162.383 84.3514C162.42 85.0072 162.394 85.6533 162.375 86.2886C162.365 86.9262 162.338 87.5482 162.26 88.1521C162.187 88.7585 162.156 89.3539 162.049 89.9241C161.957 90.4931 161.865 91.0488 161.78 91.5864C161.68 92.1192 161.544 92.6267 161.435 93.1173C161.232 94.1009 160.959 94.9796 160.718 95.7571C160.498 96.5394 160.258 97.206 160.047 97.7497C159.627 98.8334 159.387 99.4529 159.387 99.4529C159.387 99.4529 159.505 98.8008 159.707 97.6545C159.824 97.0879 159.942 96.3948 160.06 95.5992C160.184 94.8048 160.332 93.9128 160.435 92.9352C160.57 91.9601 160.646 90.8993 160.736 89.7819C160.797 89.225 160.779 88.6488 160.803 88.0641C160.813 87.77 160.823 87.4759 160.833 87.1757C160.827 86.878 160.822 86.5767 160.816 86.2741C160.816 85.0602 160.703 83.815 160.559 82.5602C160.484 81.9322 160.402 81.3017 160.265 80.6797C160.159 80.0493 160.004 79.4309 159.833 78.8174C159.529 77.5794 159.094 76.38 158.594 75.2361C158.075 74.0982 157.506 73.006 156.853 72.0092C156.18 71.0316 155.507 70.0877 154.761 69.2837C154.02 68.4761 153.286 67.7347 152.548 67.114C151.085 65.8591 149.716 64.9731 148.727 64.4102C147.737 63.84 147.128 63.5857 147.128 63.5857Z" fill="#5B4C39"/>
<mask id="mask1_3596_1984" style="mask-type:luminance" maskUnits="userSpaceOnUse" x="142" y="152" width="31" height="32">
<path d="M142.762 152.913H172.412V183.463H142.762V152.913Z" fill="white"/>
</mask>
<g mask="url(#mask1_3596_1984)">
<path d="M157.613 183.463C157.455 181.391 157.363 179.506 157.15 177.632C157.003 176.328 156.775 175.03 156.447 173.758C155.853 171.476 154.396 170.006 152.145 169.332C150.7 168.9 149.228 168.674 147.733 168.541C146.076 168.398 144.419 168.276 142.767 168.1C143.95 168.023 145.133 167.989 146.31 167.856C147.99 167.668 149.664 167.42 151.337 167.166C151.779 167.099 152.211 166.933 152.636 166.779C154.451 166.116 155.672 164.855 156.31 163.009C156.796 161.595 157.036 160.131 157.172 158.643C157.335 156.798 157.461 154.946 157.619 152.913C157.756 154.726 157.832 156.356 158.017 157.97C158.175 159.385 158.388 160.805 158.699 162.197C159.276 164.773 160.885 166.375 163.421 167.05C165.204 167.525 167.025 167.718 168.857 167.862C170.035 167.955 171.218 168.017 172.406 168.166C171.381 168.237 170.356 168.299 169.331 168.382C167.39 168.536 165.455 168.707 163.552 169.193C160.912 169.868 159.299 171.515 158.65 174.196C158.175 176.152 158 178.141 157.848 180.136C157.76 181.181 157.695 182.231 157.613 183.463Z" fill="#5B4C39"/>
</g>
<path d="M166.447 180.909C166.409 180.61 166.355 180.317 166.333 180.019C166.165 177.814 165.449 177.101 163.268 176.957C162.99 176.94 162.708 176.919 162.407 176.786C162.669 176.742 162.936 176.686 163.198 176.658C165.542 176.455 166.159 175.835 166.327 173.492C166.344 173.293 166.361 173.094 166.399 172.895C166.409 172.824 166.475 172.758 166.529 172.668C166.617 173.337 166.677 173.984 166.786 174.62C166.961 175.67 167.576 176.299 168.618 176.487C168.978 176.554 169.343 176.598 169.703 176.654C169.97 176.692 170.243 176.725 170.504 176.863C169.883 176.946 169.262 177.013 168.645 177.118C167.609 177.295 166.977 177.907 166.797 178.963C166.687 179.604 166.622 180.251 166.535 180.892C166.513 180.892 166.481 180.903 166.447 180.909Z" fill="#5B4C39"/>
<path d="M144.288 159.914C145.099 159.803 145.727 159.737 146.354 159.626C147.39 159.45 148.017 158.819 148.192 157.769C148.301 157.139 148.366 156.498 148.552 155.845C148.59 156.144 148.633 156.443 148.661 156.741C148.824 158.93 149.549 159.649 151.735 159.786C152.008 159.803 152.28 159.825 152.57 159.974C152.276 160.013 151.981 160.068 151.686 160.091C149.489 160.273 148.824 160.953 148.655 163.179C148.633 163.478 148.573 163.771 148.432 164.047C148.377 163.511 148.356 162.965 148.263 162.433C148 160.947 147.482 160.433 146.017 160.168C145.684 160.107 145.339 160.107 145.007 160.068C144.827 160.051 144.647 159.991 144.288 159.914Z" fill="#5B4C39"/>
<mask id="mask2_3596_1984" style="mask-type:luminance" maskUnits="userSpaceOnUse" x="8" y="29" width="31" height="31">
<path d="M8.5 29.3586H38.1504V59.9088H8.5V29.3586Z" fill="white"/>
</mask>
<g mask="url(#mask2_3596_1984)">
<path d="M23.3524 59.9085C23.1945 57.8364 23.1018 55.9524 22.8892 54.0779C22.7419 52.7737 22.5126 51.4754 22.1859 50.2049C21.592 47.9219 20.1356 46.4524 17.8833 45.7774C16.4388 45.3471 14.9669 45.1205 13.4725 44.9879C11.8154 44.8432 10.1571 44.7227 8.50586 44.5455C9.68902 44.4683 10.8722 44.4346 12.0494 44.302C13.7291 44.1139 15.4029 43.8656 17.0767 43.6113C17.5186 43.545 17.9498 43.3786 18.3751 43.2243C20.1902 42.5614 21.4114 41.3017 22.0493 39.455C22.5352 38.041 22.7751 36.5764 22.9105 35.089C23.0745 33.2435 23.2004 31.3919 23.3584 29.3584C23.495 31.1713 23.571 32.8011 23.7563 34.4151C23.9143 35.8303 24.127 37.2503 24.4382 38.6425C25.0155 41.2185 26.624 42.8205 29.1602 43.4956C30.9432 43.9705 32.7643 44.1634 34.5961 44.308C35.7733 44.402 36.9565 44.4623 38.1456 44.6118C37.1204 44.6829 36.0952 44.7444 35.0701 44.8275C33.129 44.9818 31.1939 45.153 29.2908 45.64C26.6513 46.3138 25.0381 47.9604 24.3883 50.6413C23.9143 52.5977 23.7397 54.5866 23.5877 56.5816C23.4997 57.6267 23.4344 58.6766 23.3524 59.9085Z" fill="#5B4C39"/>
</g>
<path d="M32.1866 57.3562C32.1486 57.0585 32.0939 56.7656 32.0725 56.4666C31.9027 54.2619 31.1887 53.5483 29.0077 53.4048C28.7298 53.388 28.4458 53.3663 28.1465 53.2337C28.4078 53.1891 28.6751 53.1336 28.9364 53.1059C31.2814 52.9022 31.8979 52.2826 32.0666 49.9393C32.0832 49.7404 32.0999 49.5415 32.1379 49.3426C32.1486 49.2715 32.2139 49.2052 32.2686 49.116C32.3553 49.785 32.4159 50.4323 32.5251 51.0675C32.6986 52.1175 33.3151 52.7467 34.3569 52.9347C34.7169 53.001 35.0815 53.0456 35.4415 53.1011C35.7088 53.1397 35.982 53.1722 36.2433 53.3108C35.622 53.394 34.9996 53.4603 34.3842 53.5652C33.3484 53.7424 32.7152 54.3559 32.5358 55.4107C32.4265 56.0519 32.3612 56.6993 32.2733 57.3393C32.2519 57.3393 32.2199 57.3502 32.1866 57.3562Z" fill="#5B4C39"/>
<path d="M10.0264 36.3618C10.8389 36.2509 11.4661 36.1846 12.0933 36.0749C13.1292 35.8977 13.7564 35.2672 13.9311 34.2173C14.0403 33.5869 14.1057 32.9468 14.291 32.2947C14.329 32.5924 14.373 32.8914 14.3991 33.1891C14.563 35.3781 15.2888 36.0966 17.4746 36.2352C17.7478 36.2509 18.0199 36.2738 18.3085 36.422C18.0151 36.4606 17.7205 36.5161 17.4259 36.539C15.2283 36.721 14.563 37.4008 14.3943 39.6272C14.373 39.9262 14.3124 40.2191 14.171 40.4951C14.1164 39.9599 14.0938 39.4127 14.0011 38.8823C13.7398 37.3948 13.2219 36.8813 11.7548 36.6161C11.4222 36.5546 11.0789 36.5546 10.7462 36.5161C10.5669 36.5004 10.3863 36.4389 10.0264 36.3618Z" fill="#5B4C39"/>
</svg>
