<svg width="24" height="24" viewBox="0 0 24 24" fill="none" xmlns="http://www.w3.org/2000/svg">
<g clip-path="url(#clip0_1912_3074)">
<path d="M0.197416 13.9999C2.85169 12.5636 7.30992 10.1692 8.69892 10.3128C10.4352 10.4924 13.9077 13.1854 15.2248 13.1255C16.542 13.0657 16.7815 14.7413 15.2248 14.861C13.6682 14.9807 11.453 13.4846 10.974 13.7838M0.197266 22.9999C2.15304 21.0051 6.32804 17.0274 7.38176 17.0753C8.69892 17.1351 13.7281 19.9478 15.2248 19.888C16.4223 19.8401 20.5932 15.0006 22.5291 12.5869C22.8284 11.789 22.9242 10.3607 20.9126 11.031L17.7993 13.4247" stroke="#5B4C39"/>
<path d="M10.372 17.284L11.3929 15.4567L10.4921 15.1732M9.59138 14.8896L10.4921 15.1732M10.4921 15.1732L10.8524 14.0705M13.3745 16.4649V17.6621L14.9358 18.0402L16.0767 19.6155M8.33033 13.6924V15.4567L6.76904 17.284" stroke="#5B4C39"/>
<path d="M13.0016 8.05012C13.0495 6.65344 15.2972 2.89672 16.4151 1C17.513 3.06915 19.7692 6.40242 19.7692 8.05012C19.7692 10.197 18.1803 11.1538 16.4151 11.1538C14.6146 11.1538 12.9417 9.79597 13.0016 8.05012Z" stroke="#5B4C39"/>
</g>
<defs>
<clipPath id="clip0_1912_3074">
<rect width="24" height="24" fill="white"/>
</clipPath>
</defs>
</svg>
