<svg width="847" height="43" viewBox="0 0 847 43" fill="none" xmlns="http://www.w3.org/2000/svg">
<rect x="0.5" y="0.5" width="846" height="42" rx="21" stroke="#5B4C39"/>
<path d="M50.6 30L44.3 23.7C43.8 24.1 43.225 24.4167 42.575 24.65C41.925 24.8833 41.2333 25 40.5 25C38.6833 25 37.1458 24.3708 35.8875 23.1125C34.6292 21.8542 34 20.3167 34 18.5C34 16.6833 34.6292 15.1458 35.8875 13.8875C37.1458 12.6292 38.6833 12 40.5 12C42.3167 12 43.8542 12.6292 45.1125 13.8875C46.3708 15.1458 47 16.6833 47 18.5C47 19.2333 46.8833 19.925 46.65 20.575C46.4167 21.225 46.1 21.8 45.7 22.3L52 28.6L50.6 30ZM40.5 23C41.75 23 42.8125 22.5625 43.6875 21.6875C44.5625 20.8125 45 19.75 45 18.5C45 17.25 44.5625 16.1875 43.6875 15.3125C42.8125 14.4375 41.75 14 40.5 14C39.25 14 38.1875 14.4375 37.3125 15.3125C36.4375 16.1875 36 17.25 36 18.5C36 19.75 36.4375 20.8125 37.3125 21.6875C38.1875 22.5625 39.25 23 40.5 23Z" fill="#5B4C39"/>
<path d="M81 20.68L81.82 20.4C82.0867 20.7333 82.3333 21.1067 82.56 21.52C82.7867 21.92 82.9333 22.2733 83 22.58L82.16 22.9C82.08 22.5933 81.9267 22.2333 81.7 21.82C81.4867 21.3933 81.2533 21.0133 81 20.68ZM77.72 18.94L78.34 18.34C78.7267 18.6067 79.12 18.9267 79.52 19.3C79.92 19.6733 80.22 20.0133 80.42 20.32L79.8 21.02C79.6133 20.7133 79.32 20.3667 78.92 19.98C78.5333 19.58 78.1333 19.2333 77.72 18.94ZM80.12 17.02L81.06 17.42C80.7933 17.78 80.5133 18.14 80.22 18.5C79.9267 18.8467 79.6467 19.1467 79.38 19.4L78.66 19.06C78.8867 18.78 79.14 18.44 79.42 18.04C79.7133 17.64 79.9467 17.3 80.12 17.02ZM81.56 18.4L82.44 18.82C82.12 19.1933 81.7667 19.5867 81.38 20C81.0067 20.4133 80.6333 20.8133 80.26 21.2C79.8867 21.5733 79.5267 21.9 79.18 22.18L78.52 21.84C78.8533 21.5333 79.2067 21.18 79.58 20.78C79.9667 20.3667 80.3333 19.9533 80.68 19.54C81.0267 19.1133 81.32 18.7333 81.56 18.4ZM83.6 22.92H84.7V28.24H83.6V22.92ZM77.48 21.68C78.1067 21.6533 78.8333 21.62 79.66 21.58C80.4867 21.54 81.36 21.4867 82.28 21.42V22.32C81.4267 22.3867 80.6 22.4467 79.8 22.5C79.0133 22.5533 78.28 22.6 77.6 22.64L77.48 21.68ZM86.4 20.56L87.24 20.3C87.5333 20.6467 87.8067 21.04 88.06 21.48C88.3133 21.92 88.4867 22.3067 88.58 22.64L87.72 22.98C87.6133 22.6467 87.44 22.2533 87.2 21.8C86.96 21.3467 86.6933 20.9333 86.4 20.56ZM82.6 18.9L83.24 18.32C83.6533 18.6 84.06 18.9333 84.46 19.32C84.8733 19.7067 85.1867 20.0533 85.4 20.36L84.72 21.04C84.52 20.72 84.22 20.36 83.82 19.96C83.42 19.56 83.0133 19.2067 82.6 18.9ZM85.1 16.96L86.08 17.38C85.7867 17.7667 85.48 18.1533 85.16 18.54C84.84 18.9133 84.54 19.24 84.26 19.52L83.52 19.18C83.7867 18.8867 84.0667 18.5267 84.36 18.1C84.6667 17.66 84.9133 17.28 85.1 16.96ZM86.54 18.46L87.44 18.88C87.1067 19.2533 86.74 19.6467 86.34 20.06C85.94 20.4733 85.54 20.8667 85.14 21.24C84.74 21.6133 84.36 21.94 84 22.22L83.32 21.84C83.68 21.5467 84.0533 21.2067 84.44 20.82C84.84 20.42 85.2267 20.0133 85.6 19.6C85.9733 19.1733 86.2867 18.7933 86.54 18.46ZM82.84 21.68C83.4933 21.6533 84.24 21.62 85.08 21.58C85.9333 21.5267 86.8333 21.4733 87.78 21.42V22.3C86.94 22.3667 86.1133 22.4267 85.3 22.48C84.5 22.52 83.7533 22.5667 83.06 22.62L82.84 21.68ZM78.26 23.2H79.3V25.08H81.74V26.04H78.26V23.2ZM86.66 23.2H87.68V26.04H84.4V25.08H86.66V23.2ZM81.2 22.92H82.28V24.72C82.28 25.2133 82.2133 25.6933 82.08 26.16C81.9467 26.6133 81.68 27.0333 81.28 27.42C80.88 27.82 80.26 28.1733 79.42 28.48C79.3533 28.3333 79.2467 28.1733 79.1 28C78.9533 27.8267 78.82 27.6867 78.7 27.58C79.4333 27.3533 79.98 27.0867 80.34 26.78C80.7 26.4733 80.9333 26.14 81.04 25.78C81.1467 25.42 81.2 25.0533 81.2 24.68V22.92ZM75.54 13.64H81.14V14.66H75.54V13.64ZM84.72 13.64H90.48V14.66H84.72V13.64ZM89.92 11.06H91.38V26.7C91.38 27.1267 91.3333 27.46 91.24 27.7C91.1467 27.9533 90.96 28.1467 90.68 28.28C90.4267 28.4 90.08 28.4733 89.64 28.5C89.2133 28.5267 88.6867 28.54 88.06 28.54C88.0333 28.4067 87.9933 28.2467 87.94 28.06C87.8867 27.8867 87.8333 27.7067 87.78 27.52C87.7267 27.3333 87.66 27.18 87.58 27.06C88.0333 27.0733 88.4467 27.08 88.82 27.08C89.1933 27.08 89.4467 27.08 89.58 27.08C89.7133 27.0667 89.8 27.0333 89.84 26.98C89.8933 26.9267 89.92 26.8333 89.92 26.7V11.06ZM75.64 11.06H82.08V17.2H75.64V16.1H80.66V12.16H75.64V11.06ZM90.66 11.06V12.16H85.3V16.1H90.66V17.2H83.86V11.06H90.66ZM74.74 11.06H76.18V28.62H74.74V11.06ZM101.6 11.5H104.32V12.84H101.6V11.5ZM105.18 14.56H111.6V15.76H105.18V14.56ZM111.6 14.48H113.36V15.84H111.6V14.48ZM105.8 20.02H112.52V21.26H105.8V20.02ZM105.34 22.82H113.1V24.1H105.34V22.82ZM108.22 10.24H109.48V26.28H108.22V10.24ZM103.96 11.5H104.14L104.36 11.44L105.24 11.64C105.053 12.3333 104.82 13.1267 104.54 14.02C104.273 14.9 103.993 15.7933 103.7 16.7C103.407 17.6067 103.12 18.46 102.84 19.26L101.62 19C101.833 18.4133 102.053 17.7867 102.28 17.12C102.507 16.44 102.72 15.7667 102.92 15.1C103.133 14.42 103.327 13.7867 103.5 13.2C103.687 12.6 103.84 12.0867 103.96 11.66V11.5ZM106.1 11.9H112.28V18.48H106.1V17.3H111.14V13.08H106.1V11.9ZM102.82 20.08C103.047 21.52 103.353 22.6933 103.74 23.6C104.14 24.5067 104.613 25.2 105.16 25.68C105.707 26.16 106.32 26.4933 107 26.68C107.693 26.8533 108.453 26.94 109.28 26.94C109.413 26.94 109.667 26.94 110.04 26.94C110.427 26.94 110.847 26.94 111.3 26.94C111.767 26.94 112.2 26.94 112.6 26.94C113 26.9267 113.287 26.92 113.46 26.92C113.367 27.08 113.273 27.2933 113.18 27.56C113.087 27.8267 113.027 28.0533 113 28.24H112.22H109.2C108.227 28.24 107.34 28.1333 106.54 27.92C105.753 27.7067 105.053 27.3267 104.44 26.78C103.827 26.22 103.3 25.4267 102.86 24.4C102.42 23.36 102.06 22.0267 101.78 20.4L102.82 20.08ZM102.72 17.48H104.88V18.74H102.34L102.72 17.48ZM104.42 17.48H104.66L104.9 17.46L105.66 17.6C105.5 19.6 105.213 21.32 104.8 22.76C104.4 24.2 103.887 25.4 103.26 26.36C102.633 27.3067 101.893 28.06 101.04 28.62C100.973 28.5267 100.88 28.4267 100.76 28.32C100.64 28.2133 100.513 28.1 100.38 27.98C100.26 27.8733 100.147 27.7867 100.04 27.72C101.307 26.96 102.3 25.7867 103.02 24.2C103.753 22.6 104.22 20.4467 104.42 17.74V17.48ZM94.78 26.66C95.6333 26.5 96.6667 26.3067 97.88 26.08C99.1067 25.84 100.353 25.5867 101.62 25.32L101.72 26.62C100.56 26.8467 99.4 27.08 98.24 27.32C97.08 27.5733 96.0333 27.7933 95.1 27.98L94.78 26.66ZM95.8 15.18H101.06V16.44H95.8V15.18ZM95 18.54H101.38V19.84H95V18.54ZM95.32 21.18L96.3 20.96C96.4867 21.5733 96.6467 22.2333 96.78 22.94C96.9133 23.6333 96.9933 24.24 97.02 24.76L95.98 25C95.9667 24.48 95.9 23.8667 95.78 23.16C95.66 22.4533 95.5067 21.7933 95.32 21.18ZM100.26 20.74L101.28 20.98C101.147 21.5933 101.007 22.2267 100.86 22.88C100.713 23.5333 100.567 24.1 100.42 24.58L99.5 24.36C99.5933 24.0267 99.6867 23.6467 99.78 23.22C99.8867 22.7933 99.98 22.36 100.06 21.92C100.14 21.48 100.207 21.0867 100.26 20.74ZM97.76 15.72H99V26.38L97.76 26.56V15.72ZM97.88 10.2H98.66V10.52H99.08V10.9C98.84 11.4067 98.54 11.9733 98.18 12.6C97.8333 13.2133 97.4133 13.84 96.92 14.48C96.44 15.12 95.8867 15.7333 95.26 16.32C95.1933 16.2267 95.1067 16.12 95 16C94.8933 15.88 94.78 15.7667 94.66 15.66C94.54 15.54 94.4333 15.4533 94.34 15.4C94.9133 14.88 95.4267 14.32 95.88 13.72C96.3333 13.12 96.7267 12.52 97.06 11.92C97.4067 11.3067 97.68 10.7333 97.88 10.2ZM98.04 10.2H99.12C99.48 10.5467 99.84 10.94 100.2 11.38C100.573 11.8067 100.913 12.2267 101.22 12.64C101.54 13.0533 101.8 13.4267 102 13.76L101 14.82C100.827 14.5 100.587 14.12 100.28 13.68C99.9867 13.24 99.6667 12.8 99.32 12.36C98.9733 11.9067 98.6333 11.5133 98.3 11.18H98.04V10.2ZM119.66 15.98H129.26V17.36H119.66V15.98ZM116.42 21H133.64V22.44H116.42V21ZM124.22 19.5H125.82V26.74C125.82 27.18 125.747 27.52 125.6 27.76C125.467 28 125.22 28.1867 124.86 28.32C124.513 28.44 124.06 28.5067 123.5 28.52C122.953 28.5467 122.26 28.56 121.42 28.56C121.38 28.4133 121.32 28.2467 121.24 28.06C121.173 27.8867 121.093 27.7133 121 27.54C120.92 27.3667 120.84 27.2067 120.76 27.06C121.213 27.0733 121.647 27.08 122.06 27.08C122.473 27.0933 122.827 27.1 123.12 27.1C123.427 27.1 123.64 27.1 123.76 27.1C123.947 27.0867 124.067 27.0533 124.12 27C124.187 26.9333 124.22 26.8333 124.22 26.7V19.5ZM128.82 15.98H129.2L129.54 15.9L130.52 16.66C130.093 17.14 129.593 17.6267 129.02 18.12C128.46 18.6 127.867 19.06 127.24 19.5C126.627 19.9267 126.013 20.2933 125.4 20.6C125.307 20.4667 125.173 20.32 125 20.16C124.827 19.9867 124.68 19.8467 124.56 19.74C125.093 19.46 125.627 19.12 126.16 18.72C126.693 18.32 127.193 17.9067 127.66 17.48C128.127 17.0533 128.513 16.6533 128.82 16.28V15.98ZM124.18 10.16H125.76V13.4H124.18V10.16ZM116.6 12.36H133.4V17.08H131.86V13.8H118.08V17.08H116.6V12.36ZM147.12 10.94L148.22 11.92C147.713 12.2133 147.147 12.4933 146.52 12.76C145.893 13.0133 145.3 13.2333 144.74 13.42C144.7 13.2733 144.633 13.1067 144.54 12.92C144.46 12.72 144.38 12.5467 144.3 12.4C144.807 12.2 145.32 11.9733 145.84 11.72C146.36 11.4533 146.787 11.1933 147.12 10.94ZM144 11.96L145.34 12.38V18.82H144V11.96ZM144 18.14H153.04V13.08H150.5V11.84H154.4V19.4H144V18.14ZM144.6 15.02H147.5V16.16H144.6V15.02ZM150.6 15.02H153.64V16.16H150.6V15.02ZM148.4 10.2H149.78V21.5H148.4V10.2ZM143.46 21.22H153.3V22.5H143.46V21.22ZM152.86 21.22H153.16L153.42 21.16L154.34 21.6C153.873 22.6667 153.247 23.6 152.46 24.4C151.687 25.1867 150.8 25.86 149.8 26.42C148.8 26.9667 147.72 27.42 146.56 27.78C145.4 28.14 144.213 28.42 143 28.62C142.933 28.4333 142.833 28.2133 142.7 27.96C142.58 27.72 142.453 27.5133 142.32 27.34C143.467 27.1933 144.58 26.9733 145.66 26.68C146.753 26.3733 147.773 25.98 148.72 25.5C149.667 25.02 150.493 24.4467 151.2 23.78C151.92 23.1 152.473 22.3133 152.86 21.42V21.22ZM146.08 22.34C146.627 23.2333 147.36 24.02 148.28 24.7C149.213 25.38 150.287 25.9467 151.5 26.4C152.713 26.8533 154.02 27.1867 155.42 27.4C155.313 27.5067 155.193 27.64 155.06 27.8C154.94 27.96 154.827 28.12 154.72 28.28C154.627 28.44 154.54 28.5867 154.46 28.72C153.033 28.4533 151.7 28.0533 150.46 27.52C149.22 27 148.113 26.3533 147.14 25.58C146.18 24.7933 145.387 23.88 144.76 22.84L146.08 22.34ZM136.56 20.84C137.427 20.6 138.46 20.3133 139.66 19.98C140.873 19.6333 142.093 19.28 143.32 18.92L143.52 20.26C142.373 20.62 141.227 20.98 140.08 21.34C138.947 21.7 137.913 22.02 136.98 22.3L136.56 20.84ZM136.84 14.22H143.3V15.64H136.84V14.22ZM139.62 10.2H141.06V26.86C141.06 27.2733 141.007 27.5933 140.9 27.82C140.793 28.0467 140.613 28.22 140.36 28.34C140.093 28.4467 139.747 28.5133 139.32 28.54C138.907 28.58 138.367 28.6 137.7 28.6C137.673 28.4133 137.613 28.1867 137.52 27.92C137.427 27.6667 137.333 27.44 137.24 27.24C137.693 27.2533 138.107 27.26 138.48 27.26C138.853 27.26 139.107 27.2533 139.24 27.24C139.373 27.24 139.467 27.2133 139.52 27.16C139.587 27.1067 139.62 27.0067 139.62 26.86V10.2ZM160.24 11H173.42V16.56H160.14V15.48H171.94V12.08H160.24V11ZM168.82 18.64V20.6H173.42V18.64H168.82ZM167.4 17.58H174.9V21.66H167.4V17.58ZM160.74 13.26H172.58V14.28H160.74V13.26ZM158.72 17.58H166.02V18.7H158.72V17.58ZM157.92 22.94H176.1V24.22H157.92V22.94ZM170.46 21.62H171.94V26.96C171.94 27.36 171.88 27.6667 171.76 27.88C171.653 28.1067 171.44 28.2733 171.12 28.38C170.787 28.4867 170.34 28.5467 169.78 28.56C169.233 28.5867 168.533 28.6 167.68 28.6C167.653 28.4 167.587 28.1733 167.48 27.92C167.387 27.68 167.287 27.4667 167.18 27.28C167.62 27.2933 168.033 27.3 168.42 27.3C168.82 27.3 169.16 27.3 169.44 27.3C169.72 27.3 169.92 27.3 170.04 27.3C170.2 27.2867 170.307 27.2533 170.36 27.2C170.427 27.1467 170.46 27.0533 170.46 26.92V21.62ZM161.62 18H163.04V20.94H161.62V18ZM158.32 20.9C159 20.86 159.773 20.8133 160.64 20.76C161.52 20.7067 162.453 20.64 163.44 20.56C164.44 20.48 165.44 20.4067 166.44 20.34V21.48C164.987 21.6 163.553 21.72 162.14 21.84C160.74 21.9467 159.507 22.04 158.44 22.12L158.32 20.9ZM161.26 24.96L162.26 24.08C162.66 24.2933 163.067 24.54 163.48 24.82C163.893 25.1 164.28 25.3867 164.64 25.68C165 25.9733 165.287 26.2467 165.5 26.5L164.42 27.48C164.22 27.2267 163.94 26.9467 163.58 26.64C163.233 26.3333 162.853 26.0333 162.44 25.74C162.04 25.4467 161.647 25.1867 161.26 24.96Z" fill="#5B4C39"/>
</svg>
