<svg width="1920" height="488" viewBox="0 0 1920 488" fill="none" xmlns="http://www.w3.org/2000/svg">
<g clip-path="url(#clip0_2550_2595)">
<path d="M208.863 58.998C244.123 94.1923 284.345 126.708 333.043 145.893C398.99 171.879 486.795 169.486 539.805 120.705C600.845 64.5352 635.825 8.68169 733.779 1.42916C802.848 -3.68673 884.91 20.7492 922.864 72.8109C945.392 103.702 957.808 139.558 976.506 172.45C1021.36 251.325 1097.27 270.074 1186.28 227.943C1228.79 207.825 1276.91 184.563 1321.76 198.03C1380.57 215.68 1402.76 288.596 1463.93 298.948C1497.35 304.606 1530.6 289.093 1562.65 277.823C1638.93 250.964 1670.6 309.436 1739.8 302.033C1757.16 300.182 1772.9 291.741 1789.89 287.859C1807.44 283.857 1841.82 287.874 1835.73 309.993" stroke="url(#paint0_linear_2550_2595)" stroke-width="1.0073" stroke-miterlimit="10" stroke-linecap="round" stroke-linejoin="round"/>
<path d="M212.059 76.9941C247.114 112.023 288.191 142.703 337.093 159.917C372.148 172.315 412.873 176.784 451.069 171.066C484.786 165.996 516.644 153.085 541.495 130.786C587.144 89.7838 619.17 48.6009 672.57 26.7379C690.284 19.4704 710.413 14.3846 734.093 12.0072C802.493 5.14587 883.198 26.2414 923.272 75.7753C947.249 105.432 961.245 140.717 980.538 173.564C990.426 190.447 1001.58 204.801 1013.92 216.538C1058.05 258.352 1116.35 263.408 1187.43 237.272C1209.94 228.996 1233.79 217.576 1257.58 209.135C1288.49 198.211 1321.13 194.088 1351.85 203.176C1407.35 219.803 1429.69 287.122 1487.5 297.504C1519.04 303.147 1550.45 289.59 1580.71 279.644C1652.38 256.095 1683.37 309.421 1748.48 302.048C1764.85 300.182 1779.74 292.283 1795.76 288.431C1812.31 284.459 1844.18 287.679 1839.24 307.254" stroke="url(#paint1_linear_2550_2595)" stroke-width="1.0073" stroke-miterlimit="10" stroke-linecap="round" stroke-linejoin="round"/>
<path d="M215.238 95.0052C250.07 129.853 292.021 158.698 341.128 173.94C376.183 184.925 416.405 188.069 453.895 181.539C487.036 175.746 518.299 162.58 543.15 140.853C588.558 101.069 621.457 60.7438 674.003 38.3843C691.512 30.9061 711.307 25.5193 734.373 22.5702C802.086 13.9334 881.508 31.7186 923.626 78.7246C949.09 107.148 964.61 141.846 984.517 174.648C994.554 191.304 1005.69 205.734 1017.88 217.742C1061.11 260.068 1117.34 267.125 1188.53 246.571C1215.5 238.792 1243.43 225.144 1271.3 214.928C1307.15 201.807 1345.96 197.654 1381.91 208.292C1434.17 223.76 1456.57 285.632 1511.03 296.03C1540.68 301.657 1570.27 290.041 1598.76 281.434C1665.82 261.181 1696.14 309.376 1757.14 302.018C1772.53 300.153 1786.56 292.765 1801.62 288.958C1817.18 285 1846.53 287.438 1842.72 304.486" stroke="url(#paint2_linear_2550_2595)" stroke-width="1.0073" stroke-miterlimit="10" stroke-linecap="round" stroke-linejoin="round"/>
<path d="M218.414 113.015C253.042 147.698 295.885 174.617 345.159 187.963C380.251 197.473 419.934 199.354 456.737 192.026C489.301 185.511 519.951 172.104 544.82 150.948C589.987 112.383 623.759 72.9159 675.45 50.0599C692.754 42.371 712.233 36.6683 734.649 33.1774C801.693 22.735 879.851 37.225 923.995 81.7182C950.965 108.908 967.991 143.034 988.529 175.79C998.734 192.222 1009.79 206.742 1021.87 219.02C1064.1 261.933 1119.07 271.879 1189.64 255.96C1221.28 248.812 1253.12 232.818 1285.01 220.825C1325.81 205.523 1370.75 201.4 1411.94 213.513C1460.9 227.927 1483.45 284.247 1534.56 294.645C1562.33 300.257 1590.06 290.582 1616.81 283.314C1679.22 266.342 1708.89 309.421 1765.82 302.093C1780.21 300.227 1793.4 293.366 1807.49 289.574C1822.06 285.647 1848.88 287.287 1846.23 301.792" stroke="url(#paint3_linear_2550_2595)" stroke-width="1.0073" stroke-miterlimit="10" stroke-linecap="round" stroke-linejoin="round"/>
<path d="M221.594 131.012C256.017 165.529 299.715 190.582 349.175 201.972C384.267 210.052 423.449 210.624 459.545 202.499C491.533 195.261 521.588 181.599 546.457 161.015C591.401 123.669 626.028 85.074 676.882 61.7064C693.982 53.8068 713.146 47.7731 734.911 43.7406C801.285 31.4624 878.217 42.6723 924.35 84.6677C952.844 110.608 971.449 144.132 992.508 176.889C1002.9 193.064 1013.88 207.675 1025.83 220.239C1067.15 263.679 1121.13 277.281 1190.74 265.274C1227.17 258.984 1262.76 240.401 1298.73 226.634C1344.47 209.149 1395.57 205.057 1442 218.659C1487.67 232.036 1510.34 282.788 1558.09 293.201C1583.97 298.798 1609.86 291.049 1634.84 285.12C1692.61 271.413 1721.62 309.376 1774.46 302.093C1787.86 300.227 1800.21 293.893 1813.33 290.131C1826.92 286.234 1851.21 287.092 1849.7 299.054" stroke="url(#paint4_linear_2550_2595)" stroke-width="1.0073" stroke-miterlimit="10" stroke-linecap="round" stroke-linejoin="round"/>
<path d="M224.793 149.022C258.993 183.374 303.565 206.576 353.229 215.995C388.321 222.661 427.02 221.909 462.409 212.986C493.821 205.026 523.263 191.123 548.151 171.096C592.853 134.969 628.354 97.2314 678.353 73.3673C695.267 65.2571 714.096 58.8773 735.229 54.3181C800.934 40.1591 876.658 48.1189 924.742 87.6316C954.779 112.308 974.853 145.276 996.525 177.987C1007.08 193.937 1018.01 208.622 1029.83 221.457C1070.26 265.424 1123.38 283.194 1191.87 274.587C1233.19 269.396 1272.47 248 1312.47 232.441C1363.17 212.76 1420.38 208.713 1472.07 223.79C1514.43 236.143 1537.26 281.298 1581.64 291.726C1605.64 297.308 1629.67 291.5 1652.91 286.911C1705.99 276.453 1734.39 309.33 1783.15 302.063C1795.56 300.182 1807.07 294.374 1819.22 290.657C1831.83 286.79 1853.59 286.85 1853.22 296.27" stroke="url(#paint5_linear_2550_2595)" stroke-width="1.0073" stroke-miterlimit="10" stroke-linecap="round" stroke-linejoin="round"/>
<path d="M227.969 167.019C261.964 201.205 307.372 222.556 357.26 230.019C392.352 235.271 430.548 233.194 465.232 223.474C496.068 214.777 524.915 200.633 549.821 181.178C594.281 146.269 630.656 109.39 679.8 85.0289C696.51 76.708 715.004 69.9671 735.505 64.9114C800.523 48.8415 875.094 53.5661 925.111 90.6112C956.709 114.024 978.252 146.435 1000.52 179.116C1011.22 194.825 1022.14 209.586 1033.81 222.722C1073.34 267.2 1125.68 277.958 1192.97 283.947C1239.14 288.055 1282.11 255.629 1326.18 238.295C1381.83 216.432 1445.18 212.43 1502.11 228.966C1541.16 240.311 1564.11 279.869 1605.15 290.312C1627.25 295.879 1649.43 291.982 1670.93 288.762C1719.32 281.524 1747.14 309.346 1791.8 302.108C1803.24 300.227 1813.89 294.946 1825.08 291.244C1836.69 287.393 1855.91 286.67 1856.71 293.562" stroke="url(#paint6_linear_2550_2595)" stroke-width="1.0073" stroke-miterlimit="10" stroke-linecap="round" stroke-linejoin="round"/>
<path d="M231.148 185.03C264.921 219.035 311.203 238.566 361.295 244.043C396.387 247.88 434.081 244.479 468.058 233.947C498.318 224.527 526.552 210.143 551.477 191.244C595.695 157.554 632.944 121.532 681.233 96.6753C697.738 88.1438 715.897 81.0417 735.767 75.4744C800.097 57.4484 873.552 58.9531 925.466 93.5606C958.644 115.679 981.599 147.578 1004.5 180.2C1015.35 195.683 1026.23 210.504 1037.77 223.926C1076.43 268.9 1128.27 286.279 1194.07 293.246C1244.81 298.633 1291.78 263.213 1339.9 244.088C1400.49 220.044 1469.97 216.101 1532.16 234.082C1567.89 244.419 1591.01 278.38 1628.69 288.822C1648.91 294.374 1669.19 292.373 1688.96 290.537C1732.61 286.49 1759.87 309.286 1800.45 302.078C1810.88 300.197 1820.69 295.443 1830.91 291.771C1841.54 287.949 1858.24 286.43 1860.17 290.778" stroke="url(#paint7_linear_2550_2595)" stroke-width="1.0073" stroke-miterlimit="10" stroke-linecap="round" stroke-linejoin="round"/>
<path d="M234.328 203.041C267.896 236.881 315.033 254.576 365.329 258.066C400.422 260.504 437.614 255.764 470.903 244.434C500.587 234.293 528.226 219.652 553.151 201.325C597.128 168.854 635.25 133.705 682.702 108.336C699.003 99.5942 716.828 92.1159 736.084 86.0671C799.689 66.055 872.067 64.3396 925.876 96.5397C960.652 117.364 984.946 148.782 1008.53 181.328C1019.5 196.601 1030.43 211.452 1041.77 225.174C1079.66 270.6 1130.54 295.172 1195.2 302.605C1250.59 308.97 1301.46 270.841 1353.64 249.941C1419.18 223.7 1494.77 219.848 1562.22 239.273C1594.64 248.602 1617.91 276.95 1652.22 287.423C1670.55 292.96 1688.95 292.839 1707.01 292.403C1745.9 291.47 1772.63 309.316 1809.11 302.123C1818.55 300.242 1827.51 295.999 1836.77 292.373C1846.4 288.581 1860.58 286.264 1863.66 288.085" stroke="url(#paint8_linear_2550_2595)" stroke-width="1.0073" stroke-miterlimit="10" stroke-linecap="round" stroke-linejoin="round"/>
<path d="M237.523 221.037C270.887 254.711 318.86 270.661 369.38 272.075C404.472 273.159 441.163 267.035 473.746 254.907C502.853 244.043 529.878 229.147 554.822 211.392C598.576 180.14 637.553 145.848 684.15 119.998C700.247 111.045 717.737 103.175 736.361 96.6452C799.223 74.6017 870.578 69.6814 926.228 99.5041C962.621 119.005 988.308 149.926 1012.51 182.442C1023.64 197.488 1034.52 212.415 1045.72 226.423C1082.73 272.361 1132.41 304.471 1196.28 311.949C1256.41 318.991 1311.11 278.455 1367.33 255.78C1437.82 227.356 1519.52 223.595 1592.26 244.434C1621.34 252.77 1644.76 275.506 1675.73 285.978C1692.18 291.501 1708.68 293.216 1725.04 294.224C1759.17 296.331 1785.36 309.301 1817.77 302.139C1826.23 300.243 1834.33 296.541 1842.62 292.93C1851.27 289.168 1862.92 286.054 1867.14 285.331" stroke="url(#paint9_linear_2550_2595)" stroke-width="1.0073" stroke-miterlimit="10" stroke-linecap="round" stroke-linejoin="round"/>
<path d="M240.703 239.047C273.844 272.557 322.69 286.655 373.414 286.099C408.507 285.768 444.695 278.319 476.591 265.394C505.122 253.808 531.553 238.671 556.496 221.473C600.008 191.44 639.859 158.006 685.602 131.659C701.493 122.495 718.631 114.235 736.642 107.223C798.722 83.103 869.092 74.9928 926.601 102.468C964.592 120.615 991.692 151.084 1016.51 183.54C1027.79 198.346 1038.64 213.348 1049.7 227.642C1085.82 274.091 1133.57 316.704 1197.39 321.263C1262.75 325.927 1320.78 286.053 1381.05 261.587C1456.5 230.982 1544.23 227.461 1622.29 249.565C1648.06 256.938 1671.64 274.031 1699.24 284.519C1713.8 290.026 1728.43 293.532 1743.07 296.029C1772.48 301.055 1798.11 309.271 1826.42 302.138C1833.87 300.243 1841.14 297.053 1848.46 293.487C1856.12 289.74 1865.24 285.843 1870.62 282.593" stroke="url(#paint10_linear_2550_2595)" stroke-width="1.0073" stroke-miterlimit="10" stroke-linecap="round" stroke-linejoin="round"/>
<path d="M243.879 257.058C299.51 313.378 403.002 309.556 479.432 275.882C555.862 242.207 616.251 185.676 687.067 143.32C757.884 100.963 850.726 73.1268 926.988 105.447C984.422 129.778 1018.47 181.915 1053.71 228.891C1088.94 275.867 1135.14 323.79 1198.54 330.607C1268.41 338.13 1330.49 293.667 1394.82 267.425C1475.21 234.623 1569.08 231.178 1652.4 254.726C1721.68 274.302 1803.2 343.02 1874.16 279.854" stroke="url(#paint11_linear_2550_2595)" stroke-width="1.0073" stroke-miterlimit="10" stroke-linecap="round" stroke-linejoin="round"/>
<path d="M246.074 267.696C308.396 327.055 420.123 322.737 501.961 284.533C575.027 250.422 633.669 195.848 702.831 155.538C774.057 114.009 866.174 91.288 940.503 125.339C996.97 151.445 1032.1 202.167 1070.48 243.335C1108.47 284.097 1153.64 324.317 1215.11 327.281C1282.49 330.531 1343.36 287.016 1407.13 262.339C1485.57 231.99 1575.94 230.801 1656.46 254.259C1723.85 273.955 1811.75 345.006 1878.22 278.409" stroke="url(#paint12_linear_2550_2595)" stroke-width="1.0073" stroke-miterlimit="10" stroke-linecap="round" stroke-linejoin="round"/>
<path d="M248.266 278.335C317.279 340.733 437.277 336.039 524.506 293.186C594.356 258.864 651.157 206.065 718.628 167.741C790.3 127.055 881.822 109.209 954.051 145.216C1009.68 172.947 1045.54 222.286 1087.28 257.781C1127.84 292.253 1172.11 324.859 1231.7 323.956C1296.57 322.978 1356.26 280.336 1419.47 257.254C1495.94 229.327 1582.83 230.426 1660.52 253.778C1726.03 273.58 1820.32 346.963 1882.29 276.965" stroke="url(#paint13_linear_2550_2595)" stroke-width="1.0073" stroke-miterlimit="10" stroke-linecap="round" stroke-linejoin="round"/>
<path d="M250.441 288.972C326.146 354.411 454.471 349.46 547.016 301.822C613.743 267.47 668.612 216.266 734.391 179.944C806.527 140.1 897.325 127.295 967.584 165.107C1022.3 194.554 1058.68 242.357 1104.09 272.225C1146.91 300.393 1190.57 325.431 1248.3 320.631C1310.63 315.439 1369.14 273.64 1431.81 252.168C1506.27 226.649 1589.73 230.049 1664.61 253.296C1728.24 273.218 1828.91 348.934 1886.39 275.52" stroke="url(#paint14_linear_2550_2595)" stroke-width="1.0073" stroke-miterlimit="10" stroke-linecap="round" stroke-linejoin="round"/>
<path d="M252.633 299.61C335.029 368.088 471.774 363.032 569.56 310.474C633.257 276.243 686.137 226.528 750.17 192.146C822.789 153.175 912.825 145.396 981.113 184.984C1034.92 216.176 1071.5 262.46 1120.87 286.67C1165.63 308.623 1208.99 326.032 1264.88 317.29C1324.66 307.946 1381.96 266.914 1444.15 247.067C1516.6 223.925 1596.62 229.658 1668.7 252.8C1730.45 272.827 1837.49 350.874 1890.48 274.046" stroke="url(#paint15_linear_2550_2595)" stroke-width="1.0073" stroke-miterlimit="10" stroke-linecap="round" stroke-linejoin="round"/>
<path d="M254.828 310.249C343.897 381.766 489.173 376.725 592.089 319.126C652.85 285.12 703.648 236.805 765.952 204.365C839.073 166.296 928.328 163.543 994.646 204.876C1047.53 237.829 1084.01 282.728 1137.65 301.115C1184.09 317.02 1227.41 326.695 1281.48 313.965C1338.69 300.498 1394.81 260.188 1456.5 241.981C1526.92 221.187 1603.52 229.282 1672.79 252.334C1732.66 272.466 1846.08 352.861 1894.57 272.617" stroke="url(#paint16_linear_2550_2595)" stroke-width="1.0073" stroke-miterlimit="10" stroke-linecap="round" stroke-linejoin="round"/>
<path d="M257.02 320.901C352.78 395.458 506.68 390.598 614.633 327.793C672.532 294.103 721.23 247.112 781.749 216.597C855.391 179.462 943.809 181.719 1008.19 224.798C1060.13 259.526 1096.35 303.327 1154.47 315.605C1202.39 325.731 1245.87 327.432 1298.1 310.684C1352.74 293.155 1407.67 253.477 1468.85 236.94C1537.22 218.463 1610.49 228.845 1676.88 251.897C1734.91 272.044 1854.67 354.862 1898.66 271.202" stroke="url(#paint17_linear_2550_2595)" stroke-width="1.0073" stroke-miterlimit="10" stroke-linecap="round" stroke-linejoin="round"/>
<path d="M259.215 331.539C361.666 409.135 524.358 404.606 637.163 336.43C692.273 303.116 738.797 257.434 797.513 228.785C871.712 192.598 959.238 199.88 1021.71 244.66C1072.67 281.193 1108.62 324.197 1171.24 330.02C1220.63 334.624 1264.29 328.154 1314.66 307.329C1366.78 285.782 1420.44 246.646 1481.16 231.825C1547.46 215.634 1617.35 228.439 1680.93 251.385C1737.09 271.653 1863.22 356.803 1902.73 269.727" stroke="url(#paint18_linear_2550_2595)" stroke-width="1.0073" stroke-miterlimit="10" stroke-linecap="round" stroke-linejoin="round"/>
<path d="M261.406 342.177C370.549 422.813 542.219 418.795 659.707 345.081C712.104 312.219 756.397 267.786 813.31 241.003C888.086 205.809 974.682 218.072 1035.26 264.551C1085.24 302.89 1121.22 340.552 1188.04 344.464C1238.88 347.444 1282.78 328.936 1331.26 304.004C1380.88 278.469 1433.24 239.829 1493.5 226.739C1557.72 212.79 1624.19 228.168 1685.02 250.904C1739.24 271.367 1871.8 358.759 1906.82 268.283" stroke="url(#paint19_linear_2550_2595)" stroke-width="1.0073" stroke-miterlimit="10" stroke-linecap="round" stroke-linejoin="round"/>
<path d="M263.582 352.815C379.416 436.505 560.249 433.165 682.217 353.733C731.937 321.353 773.981 278.168 829.073 253.221C904.443 219.065 990.074 236.293 1048.77 284.443C1097.73 324.603 1133.66 366.854 1204.81 358.924C1257.52 353.056 1301.31 329.764 1347.82 300.693C1394.99 271.202 1445.99 232.968 1505.81 221.653C1567.94 209.901 1631.05 227.792 1689.06 250.422C1741.4 271.006 1880.34 360.73 1910.86 266.823" stroke="url(#paint20_linear_2550_2595)" stroke-width="1.0073" stroke-miterlimit="10" stroke-linecap="round" stroke-linejoin="round"/>
<path d="M265.777 363.454C388.303 450.183 578.541 447.731 704.765 362.386C751.865 330.532 791.622 288.581 844.855 265.425C920.858 232.367 1005.34 254.591 1062.3 304.335C1110.15 346.406 1146.54 388.432 1221.61 373.37C1276.3 362.401 1319.92 330.577 1364.44 297.354C1409.23 263.92 1458.8 226.047 1518.19 216.553C1578.22 206.968 1637.98 227.401 1693.18 249.941C1743.65 270.631 1888.94 362.687 1914.98 265.379" stroke="url(#paint21_linear_2550_2595)" stroke-width="1.0073" stroke-miterlimit="10" stroke-linecap="round" stroke-linejoin="round"/>
<path d="M267.969 374.091C397.167 463.86 597.126 462.521 727.291 371.022C771.844 339.71 809.241 299.008 860.634 277.627C937.305 245.713 1020.8 272.737 1075.83 324.211C1122.71 368.058 1159.66 410.038 1238.4 387.814C1295.24 371.759 1338.56 331.404 1381.01 294.028C1423.47 256.652 1471.59 219.065 1530.51 211.466C1588.46 203.988 1644.86 227.025 1697.25 249.459C1745.84 270.269 1897.51 364.657 1919.07 263.934" stroke="url(#paint22_linear_2550_2595)" stroke-width="1.0073" stroke-miterlimit="10" stroke-linecap="round" stroke-linejoin="round"/>
<path d="M243.711 359.12C318.356 410.309 419.302 433.571 513.501 422.903C585.191 414.778 654.967 391.757 712.122 359.511C725.858 351.762 738.962 343.457 751.824 335.286C781.526 316.402 809.629 297.519 844.424 286.971C854.814 283.826 865.316 281.629 875.929 280.411C941.523 272.947 1010.55 299.806 1060.7 340.643C1073.71 351.176 1086.17 361.377 1098.75 370.39C1134.23 395.834 1171.13 411.558 1228.77 394.585C1268.32 382.834 1301.89 360.128 1333.21 334.805C1347.31 323.414 1360.96 311.482 1374.51 299.776C1417.94 262.234 1466.29 224.166 1524.47 213.362C1540.53 210.428 1556.47 209.721 1572.27 210.519C1598.35 211.858 1624.02 217.44 1649.46 225.189C1663.68 229.508 1677.68 234.789 1691.38 240.447C1712.21 249.053 1747.68 269.953 1784 285.527C1839.48 309.331 1899.4 322.451 1916.62 265.123" stroke="url(#paint23_linear_2550_2595)" stroke-width="1.0212" stroke-miterlimit="10" stroke-linecap="round" stroke-linejoin="round"/>
<path d="M219.438 344.133C294.771 395.127 399.564 420.074 494.005 406.908C567.182 396.707 638.184 373.354 696.956 347.955C710.952 341.906 724.316 335.647 737.364 329.658C767.234 315.936 794.445 302.439 828.218 296.285C838.273 294.449 848.459 293.366 858.793 293.2C923.048 292.177 992.49 319.788 1045.57 357.059C1059.37 366.734 1072.79 375.837 1086.19 383.812C1123.66 406.111 1162.15 418.976 1219.14 401.341C1259.06 388.988 1293.41 366.117 1325.57 340.718C1340.05 329.282 1354.1 317.305 1368.02 305.508C1412.43 267.816 1460.97 229.116 1518.46 215.228C1534.24 211.421 1549.95 209.721 1565.51 209.3C1591.33 208.607 1616.81 211.752 1642.55 217.666C1657.16 221.021 1671.55 225.821 1685.56 231.418C1707.9 240.341 1743.07 262.174 1778.35 278.665C1832.94 304.184 1892.77 320.39 1914.2 266.327" stroke="url(#paint24_linear_2550_2595)" stroke-width="1.0351" stroke-miterlimit="10" stroke-linecap="round" stroke-linejoin="round"/>
<path d="M195.184 329.162C271.204 379.96 379.845 406.547 474.528 390.944C549.192 378.636 621.291 354.952 681.81 336.445C696.01 332.096 709.635 327.898 722.906 324.091C752.775 315.515 779.243 307.404 812.012 305.644C821.714 305.117 831.603 305.147 841.658 306.02C904.612 311.467 974.537 339.725 1030.45 373.505C1045.04 382.322 1059.37 390.327 1073.62 397.264C1113.03 416.433 1153.16 426.334 1209.51 408.127C1249.81 395.112 1284.94 372.151 1317.93 346.661C1332.8 335.181 1347.22 323.173 1361.54 311.256C1406.91 273.399 1455.66 234.172 1512.46 217.109C1527.96 212.459 1543.43 209.736 1558.73 208.096C1584.28 205.357 1609.62 206.035 1635.6 210.142C1650.64 212.52 1665.36 216.838 1679.71 222.39C1703.54 231.629 1738.43 254.41 1772.68 271.789C1826.38 299.038 1886.1 318.298 1911.77 267.5" stroke="url(#paint25_linear_2550_2595)" stroke-width="1.0489" stroke-miterlimit="10" stroke-linecap="round" stroke-linejoin="round"/>
<path d="M170.926 314.191C247.634 364.793 360.104 392.976 455.028 374.965C531.179 360.52 604.226 336.475 666.641 324.904C681.046 322.241 694.838 320.074 708.443 318.479C738.164 314.973 764 312.31 795.821 314.973C805.17 315.756 814.761 316.914 824.538 318.81C886.209 330.788 956.636 359.617 1015.35 389.921C1030.74 397.866 1045.98 404.802 1061.09 410.686C1102.39 426.741 1144.2 433.647 1199.92 414.884C1240.57 401.206 1276.5 378.155 1310.33 352.575C1325.57 341.064 1340.4 328.997 1355.09 316.99C1401.42 278.967 1450.4 239.228 1506.49 218.99C1521.72 213.498 1536.94 209.736 1552 206.893C1577.31 202.093 1602.5 200.302 1628.7 202.634C1644.17 204.019 1659.24 207.871 1673.91 213.378C1699.24 222.902 1733.83 246.676 1767.07 264.943C1819.85 293.938 1879.5 316.252 1909.39 268.72" stroke="url(#paint26_linear_2550_2595)" stroke-width="1.0628" stroke-miterlimit="10" stroke-linecap="round" stroke-linejoin="round"/>
<path d="M146.652 299.204C224.067 349.611 340.348 379.358 435.532 358.985C513.151 342.373 587.09 317.862 651.457 313.363C666.029 312.34 679.988 312.19 693.965 312.867C723.407 314.281 748.741 317.185 779.596 324.287C788.592 326.364 797.904 328.681 807.383 331.6C867.791 350.168 938.7 379.494 1000.2 406.322C1016.41 413.394 1032.53 419.277 1048.51 424.077C1091.67 437.063 1135.16 440.915 1190.28 421.61C1231.28 407.255 1268.01 384.113 1302.67 358.473C1318.3 346.918 1333.53 334.82 1348.58 322.692C1395.9 284.519 1445.08 244.269 1500.46 220.826C1515.4 214.491 1530.4 209.691 1545.19 205.629C1570.25 198.752 1595.3 194.464 1621.74 195.066C1637.63 195.427 1653.05 198.828 1668.02 204.305C1694.86 214.115 1729.11 238.912 1761.34 258.021C1813.2 288.792 1872.77 314.116 1906.9 269.848" stroke="url(#paint27_linear_2550_2595)" stroke-width="1.0767" stroke-miterlimit="10" stroke-linecap="round" stroke-linejoin="round"/>
<path d="M122.395 284.233C200.497 334.444 320.588 365.726 416.051 343.006C495.157 324.182 569.932 299.129 636.307 301.838C651.027 302.44 665.172 304.245 679.503 307.27C708.684 313.424 733.498 322.03 763.386 333.631C772.029 336.987 781.043 340.493 790.225 344.405C849.332 369.623 920.781 399.371 985.054 422.753C1002.08 428.953 1019.07 433.798 1035.93 437.514C1080.94 447.46 1126.13 448.212 1180.63 428.381C1221.96 413.334 1259.51 390.132 1295.01 364.402C1311.01 352.801 1326.63 340.673 1342.07 328.44C1390.36 290.101 1439.79 249.37 1494.43 222.707C1509.12 215.545 1523.85 209.676 1538.41 204.425C1563.22 195.472 1588.15 188.656 1614.8 187.543C1631.14 186.866 1646.92 189.83 1662.18 195.277C1690.52 205.373 1724.46 231.193 1755.69 251.16C1806.62 283.721 1866.13 312.054 1904.48 271.037" stroke="url(#paint28_linear_2550_2595)" stroke-width="1.0906" stroke-miterlimit="10" stroke-linecap="round" stroke-linejoin="round"/>
<path d="M98.1211 269.246C176.911 319.277 300.812 352.034 396.535 327.026C477.091 305.991 552.796 280.246 621.122 290.297C636.029 292.494 650.378 296.225 665.025 301.657C694.076 312.446 718.276 326.83 747.161 342.945C755.469 347.58 764.168 352.259 773.071 357.195C830.839 389.094 902.864 419.217 969.907 439.169C987.751 444.481 1005.59 448.303 1023.34 450.936C1070.2 457.887 1117.08 455.495 1170.98 435.137C1212.67 419.398 1251 396.136 1287.35 370.315C1303.75 358.684 1319.75 346.496 1335.57 334.158C1384.82 295.653 1434.49 254.455 1488.41 224.573C1502.82 216.583 1517.31 209.646 1531.63 203.206C1556.16 192.147 1580.97 182.803 1607.85 180.019C1624.62 178.289 1640.75 180.832 1656.33 186.249C1686.19 196.616 1719.76 223.489 1750 244.284C1799.97 278.651 1859.44 309.963 1902.05 272.226" stroke="url(#paint29_linear_2550_2595)" stroke-width="1.1045" stroke-miterlimit="10" stroke-linecap="round" stroke-linejoin="round"/>
<path d="M73.8633 254.274C153.341 304.109 281.015 338.326 377.054 311.061C459.06 287.769 535.787 261.286 605.972 278.786C621.065 282.547 635.693 288.205 650.581 296.074C679.614 311.452 703.126 331.66 730.97 352.304C738.943 358.217 747.307 364.101 755.95 370.014C812.306 408.624 884.981 439.079 954.794 455.615C973.456 460.039 992.173 462.867 1010.8 464.387C1059.49 468.375 1108.06 462.777 1161.37 441.937C1203.4 425.491 1242.54 402.169 1279.73 376.273C1296.5 364.597 1312.89 352.379 1329.1 339.936C1379.32 301.281 1429.26 259.601 1482.4 226.483C1496.55 217.666 1510.77 209.661 1524.84 202.017C1549.09 188.866 1573.8 176.949 1600.9 172.526C1618.09 169.712 1634.58 171.863 1650.47 177.25C1681.86 187.888 1715.06 215.815 1744.33 237.452C1793.31 273.655 1852.79 307.931 1899.61 273.444" stroke="url(#paint30_linear_2550_2595)" stroke-width="1.1184" stroke-miterlimit="10" stroke-linecap="round" stroke-linejoin="round"/>
<path d="M49.6094 239.303C129.775 288.942 261.222 324.603 357.577 295.081C441.014 269.517 518.894 242.252 590.807 267.245C606.123 272.571 621.048 280.14 636.104 290.477C665.248 310.444 687.961 336.475 714.745 361.633C722.384 368.81 730.414 375.897 738.797 382.804C793.703 428.124 867.084 458.88 939.666 472.031C959.146 475.567 978.736 477.402 998.234 477.809C1048.79 478.862 1099.03 470.03 1151.74 448.693C1194.09 431.54 1234.07 408.172 1272.1 382.187C1289.25 370.465 1306.03 358.202 1322.61 345.653C1373.82 306.833 1424.01 264.702 1476.4 228.334C1490.29 218.704 1504.23 209.601 1518.08 200.783C1542.05 185.526 1566.61 171.036 1593.97 164.972C1611.57 161.075 1628.44 162.835 1644.63 168.192C1677.53 179.086 1710.36 208.096 1738.68 230.546C1786.66 268.584 1846.14 305.824 1897.19 274.602" stroke="url(#paint31_linear_2550_2595)" stroke-width="1.1323" stroke-miterlimit="10" stroke-linecap="round" stroke-linejoin="round"/>
<path d="M25.3359 224.316C106.189 273.76 241.317 310.699 338.062 279.101C422.838 251.114 502.074 223.188 575.623 255.719C591.18 262.595 606.421 272.12 621.626 284.879C650.956 309.481 672.907 341.244 698.52 370.977C705.862 379.418 713.501 387.709 721.642 395.623C775.061 447.67 849.168 478.621 924.519 488.477C944.835 491.08 965.281 491.983 985.633 491.26C1038.09 489.395 1089.93 477.252 1142.08 455.479C1184.72 437.559 1225.55 414.191 1264.42 388.13C1281.95 376.379 1299.14 364.07 1316.09 351.416C1368.27 312.43 1418.8 269.908 1470.36 230.245C1484.01 219.802 1497.63 209.585 1511.27 199.609C1534.92 182.2 1559.38 165.167 1587 157.494C1604.99 152.498 1622.28 153.852 1638.76 159.209C1673.2 170.313 1705.62 200.452 1732.98 223.729C1779.91 263.633 1839.45 303.793 1894.72 275.836" stroke="url(#paint32_linear_2550_2595)" stroke-width="1.1462" stroke-miterlimit="10" stroke-linecap="round" stroke-linejoin="round"/>
<path d="M1.07812 209.345C82.6379 258.593 221.557 297.083 318.581 263.122C422.984 226.589 519.042 192.057 607.182 279.267C645.174 316.869 668.983 368.179 704.522 408.414C770.431 483.03 873.403 513.41 973.085 504.668C1072.77 495.926 1169.49 451.523 1256.78 394.029C1344.08 336.535 1423.45 265.921 1504.49 198.361C1527.85 178.876 1552.13 159.21 1580.06 149.941C1637.76 130.786 1688.52 181.494 1727.33 216.823C1773.2 258.593 1832.79 301.687 1892.31 276.995" stroke="url(#paint33_linear_2550_2595)" stroke-width="1.1601" stroke-miterlimit="10" stroke-linecap="round" stroke-linejoin="round"/>
</g>
<defs>
<linearGradient id="paint0_linear_2550_2595" x1="1022.65" y1="0.763672" x2="1022.65" y2="309.993" gradientUnits="userSpaceOnUse">
<stop stop-color="#DBCDB7"/>
<stop offset="1" stop-color="white"/>
</linearGradient>
<linearGradient id="paint1_linear_2550_2595" x1="1025.91" y1="10.7451" x2="1025.91" y2="307.254" gradientUnits="userSpaceOnUse">
<stop stop-color="#DBCDB7"/>
<stop offset="1" stop-color="white"/>
</linearGradient>
<linearGradient id="paint2_linear_2550_2595" x1="1029.15" y1="20.4648" x2="1029.15" y2="304.486" gradientUnits="userSpaceOnUse">
<stop stop-color="#DBCDB7"/>
<stop offset="1" stop-color="white"/>
</linearGradient>
<linearGradient id="paint3_linear_2550_2595" x1="1032.41" y1="29.9424" x2="1032.41" y2="302.94" gradientUnits="userSpaceOnUse">
<stop stop-color="#DBCDB7"/>
<stop offset="1" stop-color="white"/>
</linearGradient>
<linearGradient id="paint4_linear_2550_2595" x1="1035.68" y1="39.0498" x2="1035.68" y2="303.031" gradientUnits="userSpaceOnUse">
<stop stop-color="#DBCDB7"/>
<stop offset="1" stop-color="white"/>
</linearGradient>
<linearGradient id="paint5_linear_2550_2595" x1="1039.01" y1="47.8018" x2="1039.01" y2="303.122" gradientUnits="userSpaceOnUse">
<stop stop-color="#DBCDB7"/>
<stop offset="1" stop-color="white"/>
</linearGradient>
<linearGradient id="paint6_linear_2550_2595" x1="1042.34" y1="56.1738" x2="1042.34" y2="303.321" gradientUnits="userSpaceOnUse">
<stop stop-color="#DBCDB7"/>
<stop offset="1" stop-color="white"/>
</linearGradient>
<linearGradient id="paint7_linear_2550_2595" x1="1045.66" y1="64.085" x2="1045.66" y2="303.497" gradientUnits="userSpaceOnUse">
<stop stop-color="#DBCDB7"/>
<stop offset="1" stop-color="white"/>
</linearGradient>
<linearGradient id="paint8_linear_2550_2595" x1="1049" y1="71.585" x2="1049" y2="303.836" gradientUnits="userSpaceOnUse">
<stop stop-color="#DBCDB7"/>
<stop offset="1" stop-color="white"/>
</linearGradient>
<linearGradient id="paint9_linear_2550_2595" x1="1052.33" y1="78.6172" x2="1052.33" y2="312.76" gradientUnits="userSpaceOnUse">
<stop stop-color="#DBCDB7"/>
<stop offset="1" stop-color="white"/>
</linearGradient>
<linearGradient id="paint10_linear_2550_2595" x1="1055.66" y1="85.2012" x2="1055.66" y2="321.638" gradientUnits="userSpaceOnUse">
<stop stop-color="#DBCDB7"/>
<stop offset="1" stop-color="white"/>
</linearGradient>
<linearGradient id="paint11_linear_2550_2595" x1="1059.02" y1="91.3672" x2="1059.02" y2="331.452" gradientUnits="userSpaceOnUse">
<stop stop-color="#DBCDB7"/>
<stop offset="1" stop-color="white"/>
</linearGradient>
<linearGradient id="paint12_linear_2550_2595" x1="1062.15" y1="108.803" x2="1062.15" y2="327.453" gradientUnits="userSpaceOnUse">
<stop stop-color="#DBCDB7"/>
<stop offset="1" stop-color="white"/>
</linearGradient>
<linearGradient id="paint13_linear_2550_2595" x1="1065.28" y1="125.792" x2="1065.28" y2="325.322" gradientUnits="userSpaceOnUse">
<stop stop-color="#DBCDB7"/>
<stop offset="1" stop-color="white"/>
</linearGradient>
<linearGradient id="paint14_linear_2550_2595" x1="1068.42" y1="142.498" x2="1068.42" y2="337.853" gradientUnits="userSpaceOnUse">
<stop stop-color="#DBCDB7"/>
<stop offset="1" stop-color="white"/>
</linearGradient>
<linearGradient id="paint15_linear_2550_2595" x1="1071.56" y1="158.841" x2="1071.56" y2="350.457" gradientUnits="userSpaceOnUse">
<stop stop-color="#DBCDB7"/>
<stop offset="1" stop-color="white"/>
</linearGradient>
<linearGradient id="paint16_linear_2550_2595" x1="1074.7" y1="174.839" x2="1074.7" y2="363.117" gradientUnits="userSpaceOnUse">
<stop stop-color="#DBCDB7"/>
<stop offset="1" stop-color="white"/>
</linearGradient>
<linearGradient id="paint17_linear_2550_2595" x1="1077.84" y1="190.489" x2="1077.84" y2="375.86" gradientUnits="userSpaceOnUse">
<stop stop-color="#DBCDB7"/>
<stop offset="1" stop-color="white"/>
</linearGradient>
<linearGradient id="paint18_linear_2550_2595" x1="1080.97" y1="205.741" x2="1080.97" y2="388.649" gradientUnits="userSpaceOnUse">
<stop stop-color="#DBCDB7"/>
<stop offset="1" stop-color="white"/>
</linearGradient>
<linearGradient id="paint19_linear_2550_2595" x1="1084.11" y1="220.694" x2="1084.11" y2="401.511" gradientUnits="userSpaceOnUse">
<stop stop-color="#DBCDB7"/>
<stop offset="1" stop-color="white"/>
</linearGradient>
<linearGradient id="paint20_linear_2550_2595" x1="1087.22" y1="217.936" x2="1087.22" y2="414.448" gradientUnits="userSpaceOnUse">
<stop stop-color="#DBCDB7"/>
<stop offset="1" stop-color="white"/>
</linearGradient>
<linearGradient id="paint21_linear_2550_2595" x1="1090.38" y1="214.129" x2="1090.38" y2="427.455" gradientUnits="userSpaceOnUse">
<stop stop-color="#DBCDB7"/>
<stop offset="1" stop-color="white"/>
</linearGradient>
<linearGradient id="paint22_linear_2550_2595" x1="1093.52" y1="210.028" x2="1093.52" y2="440.542" gradientUnits="userSpaceOnUse">
<stop stop-color="#DBCDB7"/>
<stop offset="1" stop-color="white"/>
</linearGradient>
<linearGradient id="paint23_linear_2550_2595" x1="1080.16" y1="210.214" x2="1080.16" y2="425.443" gradientUnits="userSpaceOnUse">
<stop stop-color="#DBCDB7"/>
<stop offset="1" stop-color="white"/>
</linearGradient>
<linearGradient id="paint24_linear_2550_2595" x1="1066.82" y1="209.205" x2="1066.82" y2="410.384" gradientUnits="userSpaceOnUse">
<stop stop-color="#DBCDB7"/>
<stop offset="1" stop-color="white"/>
</linearGradient>
<linearGradient id="paint25_linear_2550_2595" x1="1053.48" y1="206.45" x2="1053.48" y2="417.747" gradientUnits="userSpaceOnUse">
<stop stop-color="#DBCDB7"/>
<stop offset="1" stop-color="white"/>
</linearGradient>
<linearGradient id="paint26_linear_2550_2595" x1="1040.16" y1="201.618" x2="1040.16" y2="426.166" gradientUnits="userSpaceOnUse">
<stop stop-color="#DBCDB7"/>
<stop offset="1" stop-color="white"/>
</linearGradient>
<linearGradient id="paint27_linear_2550_2595" x1="1026.77" y1="195.01" x2="1026.77" y2="434.958" gradientUnits="userSpaceOnUse">
<stop stop-color="#DBCDB7"/>
<stop offset="1" stop-color="white"/>
</linearGradient>
<linearGradient id="paint28_linear_2550_2595" x1="1013.44" y1="187.447" x2="1013.44" y2="444.339" gradientUnits="userSpaceOnUse">
<stop stop-color="#DBCDB7"/>
<stop offset="1" stop-color="white"/>
</linearGradient>
<linearGradient id="paint29_linear_2550_2595" x1="1000.08" y1="179.481" x2="1000.08" y2="454.457" gradientUnits="userSpaceOnUse">
<stop stop-color="#DBCDB7"/>
<stop offset="1" stop-color="white"/>
</linearGradient>
<linearGradient id="paint30_linear_2550_2595" x1="986.736" y1="171.287" x2="986.736" y2="465.585" gradientUnits="userSpaceOnUse">
<stop stop-color="#DBCDB7"/>
<stop offset="1" stop-color="white"/>
</linearGradient>
<linearGradient id="paint31_linear_2550_2595" x1="973.402" y1="162.865" x2="973.402" y2="477.892" gradientUnits="userSpaceOnUse">
<stop stop-color="#DBCDB7"/>
<stop offset="1" stop-color="white"/>
</linearGradient>
<linearGradient id="paint32_linear_2550_2595" x1="960.03" y1="154.385" x2="960.03" y2="491.5" gradientUnits="userSpaceOnUse">
<stop stop-color="#DBCDB7"/>
<stop offset="1" stop-color="white"/>
</linearGradient>
<linearGradient id="paint33_linear_2550_2595" x1="946.692" y1="145.749" x2="946.692" y2="506.126" gradientUnits="userSpaceOnUse">
<stop stop-color="#DBCDB7"/>
<stop offset="1" stop-color="white"/>
</linearGradient>
<clipPath id="clip0_2550_2595">
<rect width="1920" height="507" fill="white"/>
</clipPath>
</defs>
</svg>
