<svg width="48" height="48" viewBox="0 0 48 48" fill="none" xmlns="http://www.w3.org/2000/svg">
<path d="M33.7589 29.9392C34.3449 30.5252 35.2949 30.525 35.8806 29.9387C36.4658 29.353 36.4657 28.4038 35.8803 27.8182L25.386 17.3203C25.2009 17.134 24.9807 16.9862 24.7382 16.8853C24.4957 16.7844 24.2357 16.7324 23.973 16.7324C23.7103 16.7324 23.4503 16.7844 23.2078 16.8853C22.9653 16.9862 22.7451 17.134 22.56 17.3203L12.0602 27.8183C11.4747 28.4037 11.4746 29.353 12.0601 29.9384C12.6455 30.5238 13.5946 30.5238 14.18 29.9385L23.97 20.1503L33.7589 29.9392Z" fill="#CBB9A3"/>
</svg>
