<svg width="48" height="48" viewBox="0 0 48 48" fill="none" xmlns="http://www.w3.org/2000/svg">
<path d="M33.7589 18.0608C34.3449 17.4748 35.2949 17.475 35.8806 18.0613C36.4658 18.647 36.4657 19.5962 35.8803 20.1818L25.386 30.6797C25.2009 30.866 24.9807 31.0138 24.7382 31.1147C24.4957 31.2156 24.2357 31.2676 23.973 31.2676C23.7103 31.2676 23.4503 31.2156 23.2078 31.1147C22.9653 31.0138 22.7451 30.866 22.56 30.6797L12.0602 20.1817C11.4747 19.5963 11.4746 18.647 12.0601 18.0616C12.6455 17.4762 13.5946 17.4762 14.18 18.0615L23.97 27.8497L33.7589 18.0608Z" fill="#CBB9A3"/>
</svg>
