<svg width="40" height="40" viewBox="0 0 40 40" fill="none" xmlns="http://www.w3.org/2000/svg">
<path d="M39.8696 33.8513C39.2706 31.2935 38.1602 28.8777 36.6027 26.7434C35.0453 24.6091 33.0716 22.7989 30.796 21.4173C32.3357 19.4435 33.2817 17.0868 33.5271 14.6135C33.7725 12.1402 33.3076 9.64895 32.1849 7.42113C31.0622 5.19331 29.3264 3.31774 27.1737 2.00635C25.0209 0.694956 22.537 0 20.0027 0C17.4683 0 14.9844 0.694956 12.8317 2.00635C10.6789 3.31774 8.94313 5.19331 7.82041 7.42113C6.69769 9.64895 6.23278 12.1402 6.4782 14.6135C6.72363 17.0868 7.66962 19.4435 9.20929 21.4173C6.93168 22.7966 4.95636 24.6059 3.39811 26.7402C1.83985 28.8744 0.729744 31.2911 0.13229 33.8496C-0.0423327 34.5876 -0.0441014 35.3547 0.127117 36.0935C0.298335 36.8322 0.638087 37.5233 1.12084 38.1147C1.59534 38.7039 2.20009 39.1797 2.88948 39.5063C3.57887 39.8329 4.33489 40.0017 5.10052 40H34.8929C35.6585 40.0017 36.4146 39.8329 37.1039 39.5063C37.7933 39.1797 38.3981 38.7039 38.8726 38.1147C39.3568 37.5243 39.6981 36.8338 39.8708 36.0953C40.0435 35.3569 40.0431 34.5896 39.8696 33.8513ZM19.9967 3.36093C22.0124 3.36093 23.9827 3.94697 25.6587 5.04496C27.3346 6.14295 28.6408 7.70356 29.4122 9.52944C30.1835 11.3553 30.3854 13.3645 29.9921 15.3028C29.5989 17.2412 28.6283 19.0217 27.203 20.4191C25.7777 21.8166 23.9618 22.7683 21.9849 23.1539C20.008 23.5394 17.9589 23.3415 16.0967 22.5852C14.2345 21.8289 12.6428 20.5482 11.523 18.9049C10.4032 17.2617 9.80547 15.3297 9.80547 13.3534C9.80817 10.704 10.8828 8.16395 12.7934 6.29058C14.704 4.4172 17.2947 3.36357 19.9967 3.36093ZM36.2161 36.0413C36.0591 36.2381 35.8582 36.397 35.6288 36.5059C35.3995 36.6147 35.1477 36.6706 34.8929 36.6692H5.10052C4.84571 36.6706 4.59396 36.6147 4.36459 36.5059C4.13523 36.397 3.93434 36.2381 3.77736 36.0413C3.61307 35.8405 3.49719 35.6059 3.43836 35.355C3.37954 35.1041 3.3793 34.8434 3.43765 34.5924C3.96489 32.3361 4.97076 30.214 6.3898 28.3641C7.80885 26.5142 9.60926 24.978 11.6739 23.8555C14.0514 25.6843 16.9859 26.6783 20.0078 26.6783C23.0296 26.6783 25.9641 25.6843 28.3416 23.8555C30.4017 24.9826 32.1975 26.521 33.613 28.3714C35.0285 30.2218 36.0322 32.3428 36.5592 34.5974C36.6165 34.8479 36.6154 35.1078 36.556 35.3578C36.4966 35.6078 36.3804 35.8415 36.2161 36.0413Z" fill="#48270D"/>
</svg>
