<svg width="46" height="42" viewBox="0 0 46 42" fill="none" xmlns="http://www.w3.org/2000/svg">
<path d="M17.0708 0.238281C7.76367 0.238281 0.218752 7.7832 0.218752 17.0904C0.217433 19.7015 0.822912 22.2773 1.98742 24.6144L0.30221 30.9027C0.19276 31.311 0.192761 31.7409 0.302212 32.1493C0.411663 32.5576 0.626705 32.9299 0.925709 33.2287C1.22471 33.5276 1.59714 33.7424 2.00553 33.8517C2.41391 33.9609 2.84386 33.9606 3.25213 33.851L9.53555 32.1674C11.8747 33.338 14.4551 33.9459 17.0708 33.9425C26.3796 33.9425 33.9229 26.3975 33.9229 17.0904C33.9229 7.7832 26.3796 0.238281 17.0708 0.238281ZM5.10746 23.6514C4.00267 21.6413 3.42511 19.3841 3.42867 17.0904C3.42867 14.3922 4.22877 11.7546 5.72779 9.51119C7.22681 7.26774 9.35743 5.51919 11.8502 4.48665C14.343 3.45411 17.086 3.18395 19.7323 3.71033C22.3786 4.23672 24.8094 5.53601 26.7173 7.4439C28.6252 9.35179 29.9245 11.7826 30.4509 14.4289C30.9773 17.0752 30.7071 19.8182 29.6746 22.311C28.642 24.8038 26.8935 26.9344 24.65 28.4334C22.4066 29.9324 19.769 30.7325 17.0708 30.7325C14.6859 30.7325 12.4486 30.1227 10.5001 29.0489C10.1372 28.8491 9.71107 28.7973 9.31085 28.9045L3.76411 30.3907L5.2503 24.8407C5.35703 24.441 5.30528 24.0155 5.10586 23.6531M20.2069 36.0979C18.7179 36.3427 17.2053 36.4117 15.7002 36.3034C17.2797 38.0871 19.2204 39.5146 21.3937 40.4911C23.567 41.4676 25.923 41.9708 28.3056 41.9673C30.9213 41.9707 33.5017 41.3628 35.8409 40.1922L42.1243 41.8774C42.5326 41.9868 42.9626 41.9868 43.3709 41.8774C43.7792 41.7679 44.1515 41.5529 44.4504 41.2539C44.7492 40.9549 44.964 40.5825 45.0733 40.1741C45.1825 39.7657 45.1823 39.3357 45.0726 38.9275L43.3874 32.6392C44.5558 30.3034 45.162 27.7269 45.1577 25.1152C45.1583 21.7907 44.1757 18.5403 42.3334 15.773C40.4911 13.0057 37.8714 10.8451 34.8041 9.5631C35.385 10.9321 35.8152 12.383 36.0672 13.8949C37.8826 15.1492 39.3663 16.8257 40.3906 18.7801C41.4149 20.7346 41.9493 22.9086 41.9477 25.1152C41.9513 27.4089 41.3737 29.6661 40.2689 31.6763C40.0695 32.0387 40.0178 32.4642 40.1245 32.8639L41.6123 38.4171L36.0656 36.9293C35.6658 36.8226 35.2404 36.8743 34.8779 37.0737C32.865 38.1826 30.6036 38.7624 28.3056 38.7589C25.3905 38.7631 22.5516 37.8289 20.2085 36.0947M15.4659 19.4978C15.4659 20.3805 16.1881 21.1028 17.0708 21.1028C17.9536 21.1028 18.6758 20.3805 18.6758 19.4978C18.6758 18.0533 19.4943 17.1257 20.4445 16.0471L20.4734 16.015C21.5166 14.8274 22.6882 13.415 22.6882 11.473C22.6882 9.531 21.1956 6.65812 17.0708 6.65812C12.9461 6.65812 11.4535 9.531 11.4535 11.473C11.4535 12.3557 12.1757 13.078 13.0584 13.078C13.9412 13.078 14.6634 12.3557 14.6634 11.473C14.6634 11.2002 14.7757 9.86805 17.0708 9.86805C19.1894 9.86805 19.4622 11.0076 19.4783 11.473C19.4783 12.2434 18.9647 12.8533 18.0659 13.8804L18.0338 13.9158C16.8847 15.2254 15.4659 16.8416 15.4659 19.4978ZM19.077 25.5164C19.077 26.0485 18.8657 26.5588 18.4894 26.935C18.1132 27.3112 17.6029 27.5226 17.0708 27.5226C16.5388 27.5226 16.0285 27.3112 15.6522 26.935C15.276 26.5588 15.0646 26.0485 15.0646 25.5164C15.0646 24.9843 15.276 24.474 15.6522 24.0978C16.0285 23.7216 16.5388 23.5102 17.0708 23.5102C17.6029 23.5102 18.1132 23.7216 18.4894 24.0978C18.8657 24.474 19.077 24.9843 19.077 25.5164Z" fill="#48270D"/>
</svg>
