<svg width="24" height="24" viewBox="0 0 24 24" fill="none" xmlns="http://www.w3.org/2000/svg">
<path d="M13.1084 3.8457C12.6301 5.67029 13.1065 7.72822 14.4814 9.07617C14.8292 9.41847 15.2046 9.70241 15.5586 9.96387C15.83 10.1643 16.0866 10.3499 16.3301 10.5488L16.5684 10.7529C16.8386 11.0224 17.0763 11.2442 17.2754 11.5039C17.2784 11.5082 17.2812 11.5138 17.2852 11.5195C17.3002 11.5413 17.3226 11.5734 17.3496 11.6133C17.4038 11.6931 17.4782 11.8041 17.5586 11.9287C17.7249 12.1864 17.899 12.4745 17.9873 12.668L17.9951 12.6836L18.1152 12.9229C18.9648 14.9987 18.3818 17.4291 16.7061 18.9492C15.2097 20.299 13.0856 20.6825 11.0352 20.4238H11.0342C9.18352 20.1936 7.44531 19.0468 6.44043 17.4414C6.1575 16.9397 5.91359 16.3901 5.78906 15.8564L5.7832 15.832L5.77539 15.8086C5.62694 15.3718 5.57064 14.9293 5.51074 14.4307C5.431 13.0652 5.79562 11.6504 6.51074 10.4912C6.45151 11.7487 6.80977 13.026 7.59766 14.0391C7.6427 14.1135 7.69569 14.1825 7.75684 14.2441L7.83105 14.3135C8.13028 14.5649 8.5619 14.6952 8.99707 14.5127L8.99805 14.5146C9.00263 14.5128 9.00716 14.5107 9.01172 14.5088L9.01074 14.5078C9.3752 14.3561 9.66211 13.9888 9.66211 13.5498C9.66209 13.4312 9.64324 13.3264 9.61914 13.2393L9.54688 13.0342C8.40945 10.0906 9.36492 6.65375 11.7852 4.70996C12.1961 4.38007 12.6372 4.07874 13.1084 3.8457Z" stroke="#5B4C39"/>
</svg>
