<svg width="34" height="34" viewBox="0 0 34 34" fill="none" xmlns="http://www.w3.org/2000/svg">
<path d="M25.334 7.6665C25.8863 7.6665 26.334 8.11422 26.334 8.6665C26.334 9.21879 25.8863 9.6665 25.334 9.6665C24.7817 9.6665 24.334 9.21879 24.334 8.6665C24.334 8.11422 24.7817 7.6665 25.334 7.6665Z" fill="#A38D78" stroke="#A38D78" stroke-width="3"/>
<path d="M23.6667 2C28.2667 2 32 5.73333 32 10.3333V23.6667C32 28.2667 28.2667 32 23.6667 32H10.3333C5.73333 32 2 28.2667 2 23.6667V10.3333C2 5.73333 5.73333 2 10.3333 2H17H23.6667Z" stroke="#A38D78" stroke-width="3" stroke-linecap="round" stroke-linejoin="round"/>
<path d="M16.9997 10.3335C20.683 10.3335 23.6663 13.3168 23.6663 17.0002C23.6663 20.6835 20.683 23.6668 16.9997 23.6668C13.3163 23.6668 10.333 20.6835 10.333 17.0002C10.333 13.3168 13.3163 10.3335 16.9997 10.3335Z" stroke="#A38D78" stroke-width="3" stroke-linecap="round" stroke-linejoin="round"/>
</svg>
