<svg width="38" height="38" viewBox="0 0 38 38" fill="none" xmlns="http://www.w3.org/2000/svg">
<path d="M20.5846 31.6663H17.3911C14.3796 31.6663 12.8738 31.6663 11.9396 30.7384C11.4171 30.2223 11.186 29.5288 11.0846 28.4996M20.5846 6.33295H17.3911C14.3796 6.33295 12.8738 6.33295 11.9396 7.26078C11.4171 7.77695 11.186 8.47045 11.0846 9.49962M4.7513 18.9996H15.8346M7.1263 22.9579C7.1263 22.9579 3.16797 20.0446 3.16797 18.9996C3.16797 17.9546 7.1263 15.0413 7.1263 15.0413M31.0457 31.6663C31.668 30.6894 31.668 29.429 31.668 26.9099V11.0861C31.668 8.56703 31.668 7.3067 31.0457 6.33295C30.9349 6.15878 30.8109 5.99412 30.6736 5.83895C29.9089 4.97445 28.6961 4.6277 26.272 3.93578C23.8447 3.24228 22.6303 2.89553 21.75 3.41487C21.5976 3.50537 21.4558 3.61265 21.3272 3.7347C20.5846 4.43928 20.5846 5.69962 20.5846 8.2282V29.771C20.5846 32.298 20.5846 33.5599 21.3272 34.2629C21.4558 34.385 21.5976 34.4923 21.75 34.5828C22.6287 35.1021 23.8447 34.7569 26.2736 34.0619C28.6961 33.3699 29.9089 33.0232 30.6752 32.1587C30.8114 32.0039 30.9353 31.8403 31.0457 31.6663Z" stroke="#A38D78" stroke-width="2.875" stroke-linecap="round" stroke-linejoin="round"/>
</svg>
