<svg width="1918" height="719" viewBox="0 0 1918 719" fill="none" xmlns="http://www.w3.org/2000/svg">
<path d="M0.632812 -413.635C0.632812 -413.635 367.999 63.9652 718.89 108.939C1069.78 153.912 1536.06 106.888 1665.58 137.55C1795.11 168.211 1917.56 247.92 1917.56 247.92" stroke="url(#paint0_linear_2379_2212)" stroke-miterlimit="10"/>
<path d="M0.632812 -394.243C0.632812 -394.243 109.216 -256.973 268.142 -131.167C406.004 -22.038 572.723 85.1328 737.125 103.793C940.931 127.494 1184.28 125.392 1373.17 128.644C1509.37 130.981 1620.01 132.653 1673.18 147.683C1798.63 183.123 1917.49 263.093 1917.49 263.093" stroke="url(#paint1_linear_2379_2212)" stroke-miterlimit="10"/>
<path d="M0.632812 -374.838C0.632812 -374.838 112.18 -237.724 277.756 -120.498C422.072 -18.329 589.273 81.738 755.345 98.6487C959.663 119.451 1203.93 120.587 1389.03 129.819C1521.45 136.427 1628.83 140.605 1680.75 157.79C1802.05 197.932 1917.38 278.242 1917.38 278.242" stroke="url(#paint2_linear_2379_2212)" stroke-miterlimit="10"/>
<path d="M0.632812 -355.434C0.632812 -355.434 115.249 -218.477 287.37 -109.83C438.231 -14.6079 605.793 78.5903 773.595 93.5161C978.365 111.72 1223.43 115.755 1404.92 131.02C1533.47 141.832 1637.64 148.544 1688.36 167.936C1805.45 212.675 1917.34 293.428 1917.34 293.428" stroke="url(#paint3_linear_2379_2212)" stroke-miterlimit="10"/>
<path d="M0.632812 -336.042C0.632812 -336.042 118.424 -199.268 296.969 -99.1746C454.45 -10.8995 622.283 75.4431 791.815 88.3579C997.021 103.989 1242.7 110.831 1420.78 132.182C1545.35 147.121 1646.37 156.405 1695.94 178.043C1808.76 227.261 1917.25 308.576 1917.25 308.576" stroke="url(#paint4_linear_2379_2212)" stroke-miterlimit="10"/>
<path d="M0.632812 -316.637C0.632812 -316.637 121.689 -180.058 306.583 -88.5055C470.775 -7.20355 638.758 72.3225 810.051 83.2132C1015.68 96.2978 1261.82 105.83 1436.65 133.371C1557.18 152.358 1655.11 164.254 1703.54 188.164C1812.04 241.743 1917.17 323.737 1917.17 323.737" stroke="url(#paint5_linear_2379_2212)" stroke-miterlimit="10"/>
<path d="M0.632812 -297.231C0.632812 -297.231 125.059 -160.888 316.182 -77.8493C487.189 -3.54672 655.247 69.215 828.271 78.0816C1034.32 88.6329 1280.76 100.725 1452.51 134.559C1568.9 157.49 1663.79 172.037 1711.13 198.298C1815.3 256.108 1917.1 338.911 1917.1 338.911" stroke="url(#paint6_linear_2379_2212)" stroke-miterlimit="10"/>
<path d="M0.632812 -277.84C0.632812 -277.84 128.504 -141.797 325.796 -67.1939C503.664 0.0702407 671.722 66.1199 846.521 72.9234C1052.99 80.9674 1299.57 95.4754 1468.4 135.722C1580.59 162.465 1672.52 179.755 1718.74 208.405C1818.6 270.315 1917.04 354.059 1917.04 354.059" stroke="url(#paint7_linear_2379_2212)" stroke-miterlimit="10"/>
<path d="M0.632812 -258.436C0.632812 -258.436 132.025 -122.745 335.41 -56.5257C520.214 3.64769 688.197 63.0506 864.756 67.7908C1071.63 73.3407 1318.23 90.1078 1484.27 136.922C1592.21 167.349 1681.21 187.445 1726.34 218.551C1821.91 284.431 1916.96 369.245 1916.96 369.245" stroke="url(#paint8_linear_2379_2212)" stroke-miterlimit="10"/>
<path d="M0.632812 -239.043C0.632812 -239.043 135.591 -103.77 345.009 -45.8692C536.794 7.14811 704.657 59.9826 882.976 62.6335C1090.26 65.7283 1336.75 84.5456 1500.13 138.085C1603.76 172.05 1689.93 195.059 1733.92 228.646C1825.25 298.378 1916.87 384.381 1916.87 384.381" stroke="url(#paint9_linear_2379_2212)" stroke-miterlimit="10"/>
<path d="M0.632812 -219.639C0.632812 -219.639 139.202 -84.8493 354.623 -35.201C553.419 10.6081 721.192 53.7402 901.211 57.501C1108.84 61.8364 1355.21 78.8124 1516 139.273C1615.32 176.62 1698.67 202.646 1741.5 238.779C1828.63 312.272 1916.8 399.567 1916.8 399.567" stroke="url(#paint10_linear_2379_2212)" stroke-miterlimit="10"/>
<path d="M0.632812 -200.233C0.632812 -200.233 142.843 -65.9925 364.237 -24.5319C570.075 14.0167 737.606 50.5674 919.446 52.3694C1127.53 54.4196 1373.61 72.8842 1531.87 140.475C1626.87 181.047 1707.44 210.207 1749.1 248.925C1832.11 326.062 1916.72 414.742 1916.72 414.742" stroke="url(#paint11_linear_2379_2212)" stroke-miterlimit="10"/>
<path d="M0.632812 -180.842C0.632812 -180.842 146.499 -47.2146 373.836 -13.8764C586.73 17.3464 754.051 50.9066 937.666 47.2111C1146.15 43.0193 1392.01 66.7074 1547.73 141.637C1638.44 185.291 1716.23 217.676 1756.68 259.032C1835.66 339.734 1916.63 429.889 1916.63 429.889" stroke="url(#paint12_linear_2379_2212)" stroke-miterlimit="10"/>
<path d="M0.632812 -161.437C0.632812 -161.437 150.155 -28.4884 383.45 -3.20723C603.416 20.6245 770.526 47.9167 955.902 42.0795C1164.78 35.4981 1410.46 60.3353 1563.6 142.839C1650.06 189.405 1725.09 225.172 1764.28 269.166C1839.3 353.38 1916.57 445.063 1916.57 445.063" stroke="url(#paint13_linear_2379_2212)" stroke-miterlimit="10"/>
<path d="M0.632812 -142.032C0.632812 -142.032 153.811 -9.81535 393.049 7.46099C620.071 23.8494 786.971 44.9388 974.137 36.9339C1183.42 27.9889 1429.01 53.7271 1579.48 144.013C1661.75 193.361 1733.98 232.602 1771.88 279.286C1843.04 366.947 1916.5 460.224 1916.5 460.224" stroke="url(#paint14_linear_2379_2212)" stroke-miterlimit="10"/>
<path d="M0.632812 -122.641C0.632812 -122.641 157.467 8.79276 402.664 18.1165C636.741 27.0224 803.445 41.9743 992.372 31.7887C1202.05 20.4931 1447.68 46.9104 1595.35 145.188C1673.51 197.2 1742.93 240.006 1779.48 289.406C1846.87 380.489 1916.42 475.385 1916.42 475.385" stroke="url(#paint15_linear_2379_2212)" stroke-miterlimit="10"/>
<path d="M0.632812 -103.235C0.632812 -103.235 161.243 36.3204 412.278 28.7856C653.246 21.5513 819.92 39.0235 1010.61 26.6571C1220.69 13.0241 1466.53 39.8984 1611.22 146.39C1685.37 200.948 1751.93 247.423 1787.07 299.54C1850.78 394.018 1916.35 490.559 1916.35 490.559" stroke="url(#paint16_linear_2379_2212)" stroke-miterlimit="10"/>
<path d="M0.632812 -83.8301C0.632812 -83.8301 164.704 45.8926 421.877 39.4548C669.992 33.239 836.365 36.0988 1028.83 21.5125C1239.3 5.55508 1485.59 32.6906 1627.08 147.566C1697.31 204.592 1760.97 254.815 1794.66 309.66C1854.75 407.52 1916.27 505.72 1916.27 505.72" stroke="url(#paint17_linear_2379_2212)" stroke-miterlimit="10"/>
<path d="M0.632812 -64.4385C0.632812 -64.4385 168.285 64.3832 431.491 50.1103C686.602 36.2683 852.84 33.1735 1047.06 16.3673C1257.94 -1.88846 1504.93 25.3254 1642.95 148.754C1709.39 208.17 1770.07 262.206 1802.24 319.794C1858.81 421.036 1916.18 520.894 1916.18 520.894" stroke="url(#paint18_linear_2379_2212)" stroke-miterlimit="10"/>
<path d="M0.632812 -45.0342C0.632812 -45.0342 171.851 82.8473 441.105 60.7785C703.182 39.2973 869.33 30.287 1065.3 11.2217C1276.6 -9.31928 1524.55 17.8031 1658.83 149.929C1721.6 211.682 1779.22 269.583 1809.84 329.913C1862.95 434.551 1916.11 536.054 1916.11 536.054" stroke="url(#paint19_linear_2379_2212)" stroke-miterlimit="10"/>
<path d="M0.632812 -25.6416C0.632812 -25.6416 175.371 101.274 450.704 71.4219C719.732 42.2624 885.789 27.3757 1083.53 6.06433C1295.24 -16.7488 1544.45 10.1777 1674.7 151.092C1733.92 215.169 1788.41 276.949 1817.44 340.008C1867.16 448.041 1916.04 551.19 1916.04 551.19" stroke="url(#paint20_linear_2379_2212)" stroke-miterlimit="10"/>
<path d="M0.632812 -6.23709C0.632812 -6.23709 178.877 119.699 460.318 82.0903C736.252 45.2263 902.279 24.5156 1101.77 0.931987C1313.89 -24.1403 1564.67 2.48594 1690.57 152.293C1746.36 218.669 1797.65 284.366 1825.03 350.154C1871.44 461.608 1915.97 566.376 1915.97 566.376" stroke="url(#paint21_linear_2379_2212)" stroke-miterlimit="10"/>
<path d="M0.632812 13.1676C0.632812 13.1676 182.352 138.098 469.917 92.7589C752.742 48.1774 918.754 21.6556 1119.99 -4.21318C1332.54 -31.5315 1585.19 -5.25786 1706.43 153.468C1758.89 222.155 1806.9 291.757 1832.62 360.274C1875.74 475.176 1915.88 581.537 1915.88 581.537" stroke="url(#paint22_linear_2379_2212)" stroke-miterlimit="10"/>
<path d="M0.632812 32.5597C0.632812 32.5597 185.798 156.471 479.531 103.415C769.232 51.0897 935.244 18.8091 1138.22 -9.35796C1351.21 -38.9092 1606.02 -13.0143 1722.3 154.656C1771.56 225.681 1816.2 299.174 1840.22 370.408C1880.1 488.77 1915.82 596.711 1915.82 596.711" stroke="url(#paint23_linear_2379_2212)" stroke-miterlimit="10"/>
<path d="M0.632812 51.9644C0.632812 51.9644 189.228 174.844 489.145 114.083C785.677 54.0146 951.749 15.9753 1156.46 -14.5031C1369.88 -46.2744 1627.14 -20.7712 1738.18 155.831C1784.32 229.22 1825.55 306.591 1847.81 380.515C1884.51 502.377 1915.74 611.859 1915.74 611.859" stroke="url(#paint24_linear_2379_2212)" stroke-miterlimit="10"/>
<path d="M0.632812 71.3693C0.632812 71.3693 192.628 193.205 498.744 124.752C802.091 56.9135 968.254 13.1677 1174.68 -19.6351C1388.53 -53.6133 1648.52 -28.4626 1754.03 157.02C1797.16 232.824 1834.89 314.035 1855.4 390.649C1888.95 516.036 1915.65 627.033 1915.65 627.033" stroke="url(#paint25_linear_2379_2212)" stroke-miterlimit="10"/>
<path d="M0.632812 90.7607C0.632812 90.7607 195.999 211.551 508.358 135.408C818.506 59.7991 984.759 10.3597 1192.91 -24.7806C1407.22 -60.9525 1670.14 -36.1023 1769.91 158.208C1810.09 236.467 1844.28 321.491 1862.98 400.781C1893.4 529.721 1915.56 642.206 1915.56 642.206" stroke="url(#paint26_linear_2379_2212)" stroke-miterlimit="10"/>
<path d="M0.632812 110.165C0.632812 110.165 199.354 229.912 517.972 146.076C834.876 62.6849 1001.28 7.56517 1211.15 -29.9257C1425.91 -68.2914 1692 -43.6762 1785.78 159.383C1823.09 240.162 1853.68 328.96 1870.58 410.889C1897.9 543.406 1915.5 657.354 1915.5 657.354" stroke="url(#paint27_linear_2379_2212)" stroke-miterlimit="10"/>
<path d="M0.632812 129.57C0.632812 129.57 202.694 248.259 527.571 156.745C851.245 65.571 1017.8 4.79693 1229.38 -35.0575C1444.61 -75.5909 1714.03 -51.1455 1801.65 160.584C1836.15 243.95 1863.1 336.456 1878.18 421.035C1902.43 557.17 1915.43 672.541 1915.43 672.541" stroke="url(#paint28_linear_2379_2212)" stroke-miterlimit="10"/>
<path d="M0.632812 148.962C0.632812 148.962 206.004 266.593 537.185 167.401C867.584 68.4439 1034.33 2.01546 1247.62 -40.2156C1463.31 -82.9168 1736.22 -58.5366 1817.53 161.747C1849.27 247.763 1872.55 343.925 1885.77 431.143C1906.97 570.92 1915.35 687.689 1915.35 687.689" stroke="url(#paint29_linear_2379_2212)" stroke-miterlimit="10"/>
<path d="M0.632812 168.367C0.632812 168.367 209.148 284.575 546.799 178.07C883.773 70.9643 1050.94 -0.530741 1265.85 -45.3474C1482.09 -89.9942 1758.55 -65.81 1833.4 162.935C1862.44 251.654 1882 351.434 1893.37 441.276C1911.53 584.723 1915.29 702.863 1915.29 702.863" stroke="url(#paint30_linear_2379_2212)" stroke-miterlimit="10"/>
<path d="M0.632812 187.772C0.632812 187.772 212.579 303.274 556.398 188.738C900.218 74.2026 1067.42 -3.46912 1284.07 -50.4796C1500.73 -97.49 1780.97 -72.9662 1849.26 164.136C1917.55 401.239 1915.2 718.037 1915.2 718.037" stroke="url(#paint31_linear_2379_2212)" stroke-miterlimit="10"/>
<defs>
<linearGradient id="paint0_linear_2379_2212" x1="1022.51" y1="171.407" x2="1028.46" y2="-430.903" gradientUnits="userSpaceOnUse">
<stop stop-color="#E4D6C0"/>
<stop offset="1" stop-color="white"/>
</linearGradient>
<linearGradient id="paint1_linear_2379_2212" x1="1022.47" y1="187.069" x2="1028.34" y2="-411.402" gradientUnits="userSpaceOnUse">
<stop stop-color="#E4D6C0"/>
<stop offset="1" stop-color="white"/>
</linearGradient>
<linearGradient id="paint2_linear_2379_2212" x1="1022.42" y1="202.71" x2="1028.21" y2="-391.886" gradientUnits="userSpaceOnUse">
<stop stop-color="#E4D6C0"/>
<stop offset="1" stop-color="white"/>
</linearGradient>
<linearGradient id="paint3_linear_2379_2212" x1="1022.39" y1="218.384" x2="1028.11" y2="-372.373" gradientUnits="userSpaceOnUse">
<stop stop-color="#E4D6C0"/>
<stop offset="1" stop-color="white"/>
</linearGradient>
<linearGradient id="paint4_linear_2379_2212" x1="1022.34" y1="234.022" x2="1027.99" y2="-352.871" gradientUnits="userSpaceOnUse">
<stop stop-color="#E4D6C0"/>
<stop offset="1" stop-color="white"/>
</linearGradient>
<linearGradient id="paint5_linear_2379_2212" x1="1022.3" y1="249.674" x2="1027.88" y2="-333.356" gradientUnits="userSpaceOnUse">
<stop stop-color="#E4D6C0"/>
<stop offset="1" stop-color="white"/>
</linearGradient>
<linearGradient id="paint6_linear_2379_2212" x1="1022.26" y1="265.338" x2="1027.76" y2="-313.84" gradientUnits="userSpaceOnUse">
<stop stop-color="#E4D6C0"/>
<stop offset="1" stop-color="white"/>
</linearGradient>
<linearGradient id="paint7_linear_2379_2212" x1="1022.23" y1="280.976" x2="1027.66" y2="-294.339" gradientUnits="userSpaceOnUse">
<stop stop-color="#E4D6C0"/>
<stop offset="1" stop-color="white"/>
</linearGradient>
<linearGradient id="paint8_linear_2379_2212" x1="1022.19" y1="296.651" x2="1027.55" y2="-274.825" gradientUnits="userSpaceOnUse">
<stop stop-color="#E4D6C0"/>
<stop offset="1" stop-color="white"/>
</linearGradient>
<linearGradient id="paint9_linear_2379_2212" x1="1022.14" y1="312.279" x2="1027.43" y2="-255.322" gradientUnits="userSpaceOnUse">
<stop stop-color="#E4D6C0"/>
<stop offset="1" stop-color="white"/>
</linearGradient>
<linearGradient id="paint10_linear_2379_2212" x1="1022.1" y1="327.953" x2="1027.31" y2="-235.808" gradientUnits="userSpaceOnUse">
<stop stop-color="#E4D6C0"/>
<stop offset="1" stop-color="white"/>
</linearGradient>
<linearGradient id="paint11_linear_2379_2212" x1="1022.06" y1="343.616" x2="1027.2" y2="-216.293" gradientUnits="userSpaceOnUse">
<stop stop-color="#E4D6C0"/>
<stop offset="1" stop-color="white"/>
</linearGradient>
<linearGradient id="paint12_linear_2379_2212" x1="1022.01" y1="359.255" x2="1027.08" y2="-196.791" gradientUnits="userSpaceOnUse">
<stop stop-color="#E4D6C0"/>
<stop offset="1" stop-color="white"/>
</linearGradient>
<linearGradient id="paint13_linear_2379_2212" x1="1021.98" y1="374.919" x2="1026.98" y2="-177.276" gradientUnits="userSpaceOnUse">
<stop stop-color="#E4D6C0"/>
<stop offset="1" stop-color="white"/>
</linearGradient>
<linearGradient id="paint14_linear_2379_2212" x1="1021.94" y1="390.57" x2="1026.87" y2="-157.762" gradientUnits="userSpaceOnUse">
<stop stop-color="#E4D6C0"/>
<stop offset="1" stop-color="white"/>
</linearGradient>
<linearGradient id="paint15_linear_2379_2212" x1="1021.9" y1="406.22" x2="1026.76" y2="-138.26" gradientUnits="userSpaceOnUse">
<stop stop-color="#E4D6C0"/>
<stop offset="1" stop-color="white"/>
</linearGradient>
<linearGradient id="paint16_linear_2379_2212" x1="1021.86" y1="421.883" x2="1026.66" y2="-118.745" gradientUnits="userSpaceOnUse">
<stop stop-color="#E4D6C0"/>
<stop offset="1" stop-color="white"/>
</linearGradient>
<linearGradient id="paint17_linear_2379_2212" x1="1021.82" y1="437.536" x2="1026.55" y2="-99.2294" gradientUnits="userSpaceOnUse">
<stop stop-color="#E4D6C0"/>
<stop offset="1" stop-color="white"/>
</linearGradient>
<linearGradient id="paint18_linear_2379_2212" x1="1021.77" y1="453.197" x2="1026.43" y2="-79.7282" gradientUnits="userSpaceOnUse">
<stop stop-color="#E4D6C0"/>
<stop offset="1" stop-color="white"/>
</linearGradient>
<linearGradient id="paint19_linear_2379_2212" x1="1021.73" y1="468.848" x2="1026.32" y2="-60.2137" gradientUnits="userSpaceOnUse">
<stop stop-color="#E4D6C0"/>
<stop offset="1" stop-color="white"/>
</linearGradient>
<linearGradient id="paint20_linear_2379_2212" x1="1021.7" y1="484.476" x2="1026.23" y2="-40.7104" gradientUnits="userSpaceOnUse">
<stop stop-color="#E4D6C0"/>
<stop offset="1" stop-color="white"/>
</linearGradient>
<linearGradient id="paint21_linear_2379_2212" x1="1021.66" y1="500.02" x2="1026.14" y2="-22.3508" gradientUnits="userSpaceOnUse">
<stop stop-color="#E4D6C0"/>
<stop offset="1" stop-color="white"/>
</linearGradient>
<linearGradient id="paint22_linear_2379_2212" x1="1021.61" y1="512.704" x2="1026.43" y2="-29.1671" gradientUnits="userSpaceOnUse">
<stop stop-color="#E4D6C0"/>
<stop offset="1" stop-color="white"/>
</linearGradient>
<linearGradient id="paint23_linear_2379_2212" x1="1021.58" y1="525.397" x2="1026.75" y2="-36.0035" gradientUnits="userSpaceOnUse">
<stop stop-color="#E4D6C0"/>
<stop offset="1" stop-color="white"/>
</linearGradient>
<linearGradient id="paint24_linear_2379_2212" x1="1021.54" y1="538.064" x2="1027.08" y2="-42.8549" gradientUnits="userSpaceOnUse">
<stop stop-color="#E4D6C0"/>
<stop offset="1" stop-color="white"/>
</linearGradient>
<linearGradient id="paint25_linear_2379_2212" x1="1021.49" y1="550.756" x2="1027.41" y2="-49.6986" gradientUnits="userSpaceOnUse">
<stop stop-color="#E4D6C0"/>
<stop offset="1" stop-color="white"/>
</linearGradient>
<linearGradient id="paint26_linear_2379_2212" x1="1021.45" y1="563.446" x2="1027.75" y2="-56.5559" gradientUnits="userSpaceOnUse">
<stop stop-color="#E4D6C0"/>
<stop offset="1" stop-color="white"/>
</linearGradient>
<linearGradient id="paint27_linear_2379_2212" x1="1021.41" y1="576.113" x2="1028.12" y2="-63.4152" gradientUnits="userSpaceOnUse">
<stop stop-color="#E4D6C0"/>
<stop offset="1" stop-color="white"/>
</linearGradient>
<linearGradient id="paint28_linear_2379_2212" x1="1021.37" y1="588.818" x2="1028.5" y2="-70.247" gradientUnits="userSpaceOnUse">
<stop stop-color="#E4D6C0"/>
<stop offset="1" stop-color="white"/>
</linearGradient>
<linearGradient id="paint29_linear_2379_2212" x1="1021.33" y1="601.485" x2="1028.89" y2="-77.0975" gradientUnits="userSpaceOnUse">
<stop stop-color="#E4D6C0"/>
<stop offset="1" stop-color="white"/>
</linearGradient>
<linearGradient id="paint30_linear_2379_2212" x1="1021.3" y1="614.191" x2="1029.3" y2="-83.817" gradientUnits="userSpaceOnUse">
<stop stop-color="#E4D6C0"/>
<stop offset="1" stop-color="white"/>
</linearGradient>
<linearGradient id="paint31_linear_2379_2212" x1="1021.26" y1="626.877" x2="1029.71" y2="-90.7064" gradientUnits="userSpaceOnUse">
<stop stop-color="#E4D6C0"/>
<stop offset="1" stop-color="white"/>
</linearGradient>
</defs>
</svg>
