<svg width="24" height="24" viewBox="0 0 24 24" fill="none" xmlns="http://www.w3.org/2000/svg">
<path d="M9.60059 4.96582C9.66452 4.66553 10.0961 4.66268 10.1611 4.96582L10.6904 7.44434C11.212 9.88301 13.117 11.788 15.5557 12.3096L18.0342 12.8398C18.3364 12.9045 18.3364 13.3348 18.0342 13.3994L15.5557 13.9297C13.1169 14.4513 11.212 16.3562 10.6904 18.7949L10.1611 21.2734C10.0965 21.5756 9.6653 21.5755 9.60059 21.2734L9.07031 18.7949C8.54877 16.3562 6.64391 14.4512 4.20508 13.9297L1.72656 13.3994C1.42459 13.3347 1.42455 12.9046 1.72656 12.8398L4.20508 12.3096C6.64391 11.7881 8.54877 9.8831 9.07031 7.44434L9.60059 4.96582ZM18.0068 1.50684C18.0079 1.50756 18.0087 1.50831 18.0098 1.50977L18.0176 1.52832L18.4941 3.24512C18.6536 3.81886 19.0841 4.27576 19.6416 4.4707L19.7549 4.50586L21.4717 4.98242C21.4835 4.98571 21.4887 4.98919 21.4902 4.99023C21.4917 4.99126 21.4924 4.99215 21.4932 4.99316C21.4952 4.99602 21.5 5.00479 21.5 5.01953C21.5 5.03426 21.4952 5.04304 21.4932 5.0459C21.4924 5.04691 21.4917 5.0478 21.4902 5.04883C21.4887 5.04986 21.4836 5.05334 21.4717 5.05664L19.7549 5.5332C19.1429 5.70326 18.6642 6.18197 18.4941 6.79395L18.0176 8.51074C18.0143 8.52248 18.0109 8.52771 18.0098 8.5293C18.0087 8.53075 18.0078 8.53151 18.0068 8.53223C18.0041 8.53418 17.9953 8.53903 17.9805 8.53906C17.9656 8.53906 17.9559 8.53419 17.9531 8.53223C17.9523 8.5316 17.952 8.53054 17.9512 8.5293L17.9434 8.51074L17.4668 6.79395C17.2967 6.18202 16.8179 5.70332 16.2061 5.5332L14.4893 5.05664C14.477 5.05324 14.471 5.04975 14.4697 5.04883C14.4685 5.04791 14.4675 5.04684 14.4668 5.0459C14.4647 5.04273 14.4609 5.03376 14.4609 5.01953C14.4609 5.00529 14.4647 4.99632 14.4668 4.99316C14.4675 4.99222 14.4685 4.99115 14.4697 4.99023C14.471 4.98931 14.477 4.98582 14.4893 4.98242L16.2061 4.50586C16.8179 4.33574 17.2968 3.85704 17.4668 3.24512L17.9434 1.52832C17.9467 1.51621 17.9502 1.51112 17.9512 1.50977C17.952 1.50852 17.9523 1.50746 17.9531 1.50684C17.9559 1.50487 17.9656 1.5 17.9805 1.5C17.9953 1.50003 18.0041 1.50488 18.0068 1.50684Z" stroke="#5B4C39"/>
</svg>
