<svg width="1920" height="676" viewBox="0 0 1920 676" fill="none" xmlns="http://www.w3.org/2000/svg">
<rect width="1920" height="631" transform="translate(-2 22)" fill="#CBB9A3" fill-opacity="0.4"/>
<path d="M1943.33 303.248C1851.2 302.722 1738.15 273.815 1626.09 207.4C1498.78 131.942 867.537 4.78281 500.959 70.4599C269.66 103.453 48.9437 59.5434 33.586 14.2351C206.918 15.2235 302.208 9.6005 519.229 17.0046C638.849 -10.5762 1461.92 15.4745 1909.78 25.0515L1943.33 303.248Z" fill="#D8C6AB" fill-opacity="0.2"/>
<path d="M-71.0003 301.347C11.2113 301.816 112.394 274.13 213.095 208.928C327.508 134.849 892.117 14.5097 1218.49 84.1386C1424.52 119.626 1621.93 78.1005 1636.12 32.9606C1481.45 32.0786 1396.49 25.4276 1202.77 30.4893C1096.33 1.61939 361.656 18.7866 -38.0629 23.53L-71.0003 301.347Z" fill="#D8C6AB" fill-opacity="0.2"/>
<path d="M1944.9 391.928C1848.02 390.883 1728.68 417.053 1609.76 479.669C1474.66 550.812 808.845 663.663 424.491 593.683C181.837 557.731 -50.9576 596.655 -67.8518 640.403C114.414 642.369 214.513 649.44 442.821 645.912C568.14 674.721 1433.98 663.313 1905.04 661.573L1944.9 391.928Z" fill="#D8C6AB" fill-opacity="0.2"/>
<path d="M-44.9993 470.9C15.8606 471.557 90.4603 489.506 164.299 530.203C248.193 576.44 664.833 655.887 907.173 617.393C1060.06 598.228 1205.74 625.672 1215.76 653.211C1101.26 651.976 1038.3 655.037 894.955 649.751C815.859 666.042 272.22 647.222 -23.6089 639.77L-44.9993 470.9Z" fill="#D8C6AB" fill-opacity="0.2"/>
</svg>
