<svg width="48" height="48" viewBox="0 0 48 48" fill="none" xmlns="http://www.w3.org/2000/svg">
<path d="M32.7819 20.9668L30.614 27.9307L28.4461 20.9668L26.2782 27.9307L24.1104 20.9668M34.8238 27.3432C35.3042 27.7464 35.8227 27.9307 36.9857 27.9307H37.5744C38.534 27.9307 39.3118 27.1506 39.3118 26.1897C39.3118 25.2277 38.534 24.4487 37.5755 24.4487H36.3959C35.4362 24.4487 34.6597 23.6698 34.6597 22.7078C34.6597 21.7469 35.4362 20.9668 36.3959 20.9668H36.9857C38.1487 20.9668 38.666 21.1511 39.1465 21.5543M14.8382 27.9307V23.5949C14.8382 22.1441 13.661 20.9668 12.2101 20.9668C10.7593 20.9668 9.58203 22.1441 9.58203 23.5949M9.58203 27.9307V20.9668M22.0412 26.6047C21.8114 27.0075 21.4792 27.3424 21.0781 27.5753C20.6771 27.8081 20.2216 27.9308 19.7579 27.9307C19.0609 27.9307 18.3924 27.6538 17.8996 27.1609C17.4067 26.6681 17.1298 25.9996 17.1298 25.3026V23.5949C17.1298 22.1441 18.3071 20.9668 19.7579 20.9668C21.2087 20.9668 22.386 22.1441 22.386 23.5949V24.4487H17.1298" stroke="#48270D" stroke-linecap="round" stroke-linejoin="round"/>
<path d="M41.6905 2.44727H7.20402C4.57694 2.44727 2.44727 4.57694 2.44727 7.20402V41.6905C2.44727 44.3176 4.57694 46.4473 7.20402 46.4473H41.6905C44.3176 46.4473 46.4473 44.3176 46.4473 41.6905V7.20402C46.4473 4.57694 44.3176 2.44727 41.6905 2.44727Z" stroke="#48270D" stroke-width="3" stroke-linecap="round" stroke-linejoin="round"/>
</svg>
