<svg width="75" height="122" viewBox="0 0 75 122" fill="none" xmlns="http://www.w3.org/2000/svg">
<rect x="0.5" y="0.5" width="74" height="121" rx="4.5" stroke="#9747FF" stroke-dasharray="10 5"/>
<path d="M20 37.5C20 47.165 27.835 55 37.5 55C47.165 55 55 47.165 55 37.5C55 27.835 47.165 20 37.5 20C27.835 20 20 27.835 20 37.5Z" fill="#665543"/>
<path d="M41.3828 28.0922C40.853 27.5304 39.968 27.5042 39.4061 28.0338L30.6051 36.3331C30.3862 36.5396 30.25 36.8004 30.195 37.0746C30.0263 37.5631 30.1347 38.1262 30.5236 38.5175L39.0528 47.0961C39.5973 47.6437 40.4828 47.6463 41.0305 47.1019C41.578 46.5573 41.5802 45.6718 41.0357 45.1242L33.4505 37.4942L41.3244 30.0688C41.8862 29.539 41.9125 28.654 41.3828 28.0922Z" fill="#FAF9F5"/>
<path d="M55 84.5C55 94.165 47.165 102 37.5 102C27.835 102 20 94.165 20 84.5C20 74.835 27.835 67 37.5 67C47.165 67 55 74.835 55 84.5Z" fill="#665543"/>
<path d="M33.6172 75.0922C34.147 74.5304 35.032 74.5042 35.5939 75.0338L44.3949 83.3331C44.6138 83.5396 44.75 83.8004 44.805 84.0746C44.9737 84.5631 44.8653 85.1262 44.4764 85.5175L35.9472 94.0961C35.4027 94.6437 34.5172 94.6463 33.9695 94.1019C33.422 93.5573 33.4198 92.6718 33.9643 92.1242L41.5495 84.4942L33.6756 77.0688C33.1138 76.539 33.0875 75.654 33.6172 75.0922Z" fill="#FAF9F5"/>
</svg>
