<svg width="29" height="37" viewBox="0 0 29 37" fill="none" xmlns="http://www.w3.org/2000/svg">
<path fill-rule="evenodd" clip-rule="evenodd" d="M0 6.3825C0 2.85754 2.79962 0 6.25312 0H22.7469C26.2004 0 29 2.85754 29 6.3825V30.6175C29 34.1425 26.2004 37 22.7469 37H6.25312C2.79962 37 0 34.1425 0 30.6175V6.3825Z" fill="#A38D78"/>
<path d="M15.5332 24.3984C15.9473 24.3985 16.2832 24.7343 16.2832 25.1484C16.283 25.5624 15.9472 25.8984 15.5332 25.8984H8.82031C8.40628 25.8984 8.07052 25.5624 8.07031 25.1484C8.07031 24.7343 8.40615 24.3985 8.82031 24.3984H15.5332ZM22.2461 17.4287C22.6602 17.4289 22.9961 17.7646 22.9961 18.1787C22.9959 18.5926 22.66 18.9285 22.2461 18.9287H8.82031C8.40629 18.9286 8.07054 18.5927 8.07031 18.1787C8.07031 17.7645 8.40615 17.4288 8.82031 17.4287H22.2461ZM22.2461 10.459C22.6601 10.4592 22.996 10.795 22.9961 11.209C22.9961 11.6231 22.6602 11.9588 22.2461 11.959H8.82031C8.40615 11.9589 8.07031 11.6232 8.07031 11.209C8.07042 10.7949 8.40622 10.459 8.82031 10.459H22.2461Z" fill="#F0EEF1"/>
</svg>
