<svg width="298" height="297" viewBox="0 0 298 297" fill="none" xmlns="http://www.w3.org/2000/svg">
<path d="M80.248 54.1989C79.178 54.1989 78.2665 53.9077 77.5137 53.3253C76.7608 52.7382 76.1855 51.8883 75.7878 50.7756C75.3901 49.6581 75.1912 48.3087 75.1912 46.7273C75.1912 45.1553 75.3901 43.813 75.7878 42.7003C76.1903 41.5829 76.7679 40.7306 77.5208 40.1435C78.2783 39.5516 79.1874 39.2557 80.248 39.2557C81.3087 39.2557 82.2154 39.5516 82.9682 40.1435C83.7258 40.7306 84.3034 41.5829 84.7012 42.7003C85.1036 43.813 85.3049 45.1553 85.3049 46.7273C85.3049 48.3087 85.106 49.6581 84.7083 50.7756C84.3105 51.8883 83.7353 52.7382 82.9824 53.3253C82.2296 53.9077 81.3181 54.1989 80.248 54.1989ZM80.248 52.6364C81.3087 52.6364 82.1325 52.125 82.7196 51.1023C83.3068 50.0795 83.6003 48.6212 83.6003 46.7273C83.6003 45.4678 83.4654 44.3954 83.1955 43.5099C82.9303 42.6245 82.5468 41.9498 82.0449 41.4858C81.5478 41.0218 80.9488 40.7898 80.248 40.7898C79.1969 40.7898 78.3754 41.3082 77.7836 42.3452C77.1917 43.3774 76.8958 44.8381 76.8958 46.7273C76.8958 47.9867 77.0284 49.0568 77.2935 49.9375C77.5587 50.8182 77.9398 51.4882 78.437 51.9474C78.9389 52.4067 79.5426 52.6364 80.248 52.6364ZM92.9185 54.1989C91.981 54.1989 91.1453 54.0379 90.4114 53.7159C89.6822 53.3939 89.1022 52.9465 88.6713 52.3736C88.2452 51.7959 88.0132 51.1259 87.9753 50.3636H89.7651C89.803 50.8324 89.964 51.2372 90.248 51.5781C90.5321 51.9143 90.9038 52.1747 91.3631 52.3594C91.8224 52.544 92.3314 52.6364 92.8901 52.6364C93.5151 52.6364 94.0691 52.5275 94.552 52.3097C95.035 52.0919 95.4138 51.7888 95.6884 51.4006C95.963 51.0123 96.1003 50.5625 96.1003 50.0511C96.1003 49.5161 95.9677 49.045 95.7026 48.6378C95.4374 48.2259 95.0492 47.9039 94.5378 47.6719C94.0265 47.4399 93.4015 47.3239 92.6628 47.3239H91.498V45.7614H92.6628C93.2405 45.7614 93.7471 45.6572 94.1827 45.4489C94.623 45.2405 94.9663 44.947 95.2125 44.5682C95.4635 44.1894 95.589 43.7443 95.589 43.233C95.589 42.7405 95.4801 42.312 95.2623 41.9474C95.0444 41.5829 94.7367 41.2988 94.339 41.0952C93.946 40.8916 93.4819 40.7898 92.9469 40.7898C92.445 40.7898 91.9715 40.8821 91.5265 41.0668C91.0861 41.2467 90.7263 41.5095 90.4469 41.8551C90.1676 42.196 90.016 42.608 89.9924 43.0909H88.2878C88.3162 42.3286 88.5459 41.661 88.9767 41.0881C89.4076 40.5104 89.9711 40.0606 90.6671 39.7386C91.3678 39.4167 92.1373 39.2557 92.9753 39.2557C93.8749 39.2557 94.6467 39.438 95.2907 39.8026C95.9346 40.1624 96.4294 40.6383 96.775 41.2301C97.1207 41.822 97.2935 42.4612 97.2935 43.1477C97.2935 43.9669 97.0781 44.6652 96.6472 45.2429C96.2211 45.8205 95.641 46.2206 94.9071 46.4432V46.5568C95.8257 46.7083 96.543 47.099 97.0591 47.7287C97.5752 48.3537 97.8333 49.1278 97.8333 50.0511C97.8333 50.8419 97.6178 51.5521 97.187 52.1818C96.7608 52.8068 96.1784 53.2992 95.4398 53.6591C94.7012 54.0189 93.8607 54.1989 92.9185 54.1989Z" fill="#5B4C39"/>
<path d="M123.037 26.2414C152.378 19.9414 183.006 24.4071 209.326 38.8228C235.646 53.2384 255.901 76.6417 266.392 104.758C276.883 132.873 276.909 163.825 266.465 191.958C256.021 220.092 235.805 243.529 209.509 257.988C183.213 272.448 152.593 276.965 123.242 270.714C93.8905 264.463 67.7679 247.861 49.6456 223.942C31.5234 200.022 22.6111 170.382 24.5369 140.434C26.4626 110.487 39.0979 82.2317 60.1345 60.8303L61.2573 61.9339C40.4856 83.0657 28.0094 110.965 26.1079 140.535C24.2064 170.106 33.0064 199.373 50.9005 222.991C68.7945 246.609 94.5881 263.002 123.57 269.174C152.551 275.346 182.786 270.886 208.75 256.609C234.715 242.331 254.677 219.189 264.989 191.41C275.301 163.631 275.276 133.07 264.917 105.308C254.559 77.5462 234.558 54.4376 208.57 40.2035C182.581 25.9694 152.339 21.56 123.368 27.7806L123.037 26.2414Z" fill="#5B4C39"/>
</svg>
