<svg width="49" height="49" viewBox="0 0 49 49" fill="none" xmlns="http://www.w3.org/2000/svg">
<path d="M40.6105 25.7724C40.8924 25.764 41.1285 25.9859 41.1282 26.2679C41.1246 29.4586 40.2037 32.5851 38.4699 35.2722C36.6437 38.1024 34.0017 40.312 30.893 41.6087C27.7843 42.9054 24.3553 43.2283 21.0592 42.5347C17.7631 41.8411 14.755 40.1637 12.4325 37.7241C10.1101 35.2845 8.58255 32.1976 8.05184 28.8714C7.52114 25.5452 8.01224 22.1362 9.46023 19.095C10.9082 16.0538 13.245 13.5236 16.1616 11.8388C18.9306 10.2392 22.0986 9.47306 25.2856 9.62638C25.5673 9.63993 25.7773 9.88667 25.7551 10.1678C25.7329 10.449 25.487 10.6581 25.2053 10.6451C22.2244 10.5077 19.2625 11.227 16.6725 12.7232C13.9348 14.3046 11.7415 16.6795 10.3824 19.5341C9.02324 22.3886 8.56228 25.5884 9.06042 28.7105C9.55856 31.8326 10.9923 34.73 13.1723 37.0199C15.3522 39.3098 18.1757 40.8843 21.2695 41.5353C24.3633 42.1863 27.5819 41.8832 30.4998 40.6661C33.4177 39.4489 35.8976 37.375 37.6117 34.7184C39.2334 32.2051 40.0975 29.2821 40.1068 26.2981C40.1077 26.0161 40.3286 25.7807 40.6105 25.7724Z" fill="#5B4C39"/>
<path d="M21.8223 6.91211L25.8223 10.24L21.8223 13.9121" stroke="#5B4C39" stroke-linecap="round"/>
<path d="M24.4073 34.9121V32.8781C23.5493 32.7674 22.8123 32.4704 22.1963 31.9871C21.5803 31.5038 21.1223 30.8351 20.8223 29.9811L21.7493 29.5771C22.0379 30.3258 22.4346 30.9024 22.9393 31.3071C23.4439 31.7118 24.1279 31.9134 24.9913 31.9121C25.7513 31.9121 26.4459 31.7228 27.0753 31.3441C27.7046 30.9654 28.0189 30.3548 28.0183 29.5121C28.0183 28.8008 27.7869 28.2294 27.3243 27.7981C26.8609 27.3668 25.9949 26.9471 24.7263 26.5391C23.4336 26.1278 22.5239 25.6578 21.9973 25.1291C21.4706 24.5998 21.2073 23.9108 21.2073 23.0621C21.2073 22.1328 21.5636 21.3904 22.2763 20.8351C22.9889 20.2804 23.6989 19.9804 24.4063 19.9351V17.9121H25.4063V19.9351C26.0989 20.0044 26.6936 20.1964 27.1903 20.5111C27.6869 20.8258 28.0989 21.2734 28.4263 21.8541L27.5373 22.3081C27.2993 21.8774 26.9713 21.5288 26.5533 21.2621C26.1353 20.9954 25.6033 20.8621 24.9573 20.8621C24.1853 20.8621 23.5339 21.0664 23.0033 21.4751C22.4726 21.8831 22.2073 22.4121 22.2073 23.0621C22.2073 23.6761 22.4249 24.1734 22.8603 24.5541C23.2963 24.9354 24.1696 25.3331 25.4803 25.7471C26.6936 26.1311 27.5869 26.6248 28.1603 27.2281C28.7323 27.8314 29.0183 28.5888 29.0183 29.5001C29.0183 30.5041 28.6649 31.3018 27.9583 31.8931C27.2516 32.4844 26.4009 32.8164 25.4063 32.8891V34.9121H24.4073Z" fill="#5B4C39"/>
</svg>
