<svg width="298" height="297" viewBox="0 0 298 297" fill="none" xmlns="http://www.w3.org/2000/svg">
<path d="M80.248 54.2008C79.178 54.2008 78.2665 53.9096 77.5137 53.3272C76.7608 52.7401 76.1855 51.8902 75.7878 50.7775C75.3901 49.6601 75.1912 48.3107 75.1912 46.7292C75.1912 45.1573 75.3901 43.8149 75.7878 42.7022C76.1903 41.5848 76.7679 40.7325 77.5208 40.1454C78.2783 39.5536 79.1874 39.2576 80.248 39.2576C81.3087 39.2576 82.2154 39.5536 82.9682 40.1454C83.7258 40.7325 84.3034 41.5848 84.7012 42.7022C85.1036 43.8149 85.3049 45.1573 85.3049 46.7292C85.3049 48.3107 85.106 49.6601 84.7083 50.7775C84.3105 51.8902 83.7353 52.7401 82.9824 53.3272C82.2296 53.9096 81.3181 54.2008 80.248 54.2008ZM80.248 52.6383C81.3087 52.6383 82.1325 52.127 82.7196 51.1042C83.3068 50.0815 83.6003 48.6232 83.6003 46.7292C83.6003 45.4698 83.4654 44.3973 83.1955 43.5119C82.9303 42.6265 82.5468 41.9518 82.0449 41.4877C81.5478 41.0237 80.9488 40.7917 80.248 40.7917C79.1969 40.7917 78.3754 41.3102 77.7836 42.3471C77.1917 43.3793 76.8958 44.84 76.8958 46.7292C76.8958 47.9887 77.0284 49.0588 77.2935 49.9395C77.5587 50.8201 77.9398 51.4901 78.437 51.9494C78.9389 52.4087 79.5426 52.6383 80.248 52.6383ZM88.0037 54.002V52.7235L92.8049 47.4679C93.3683 46.8523 93.8323 46.3173 94.1969 45.8627C94.5615 45.4035 94.8314 44.9726 95.0066 44.5701C95.1865 44.1629 95.2765 43.7368 95.2765 43.2917C95.2765 42.7804 95.1534 42.3377 94.9071 41.9636C94.6657 41.5895 94.3342 41.3007 93.9128 41.0971C93.4914 40.8935 93.0179 40.7917 92.4924 40.7917C91.9337 40.7917 91.446 40.9077 91.0293 41.1397C90.6174 41.367 90.2978 41.6866 90.0705 42.0985C89.848 42.5105 89.7367 42.9934 89.7367 43.5474H88.0605C88.0605 42.6951 88.257 41.947 88.65 41.3031C89.043 40.6591 89.5781 40.1573 90.2551 39.7974C90.937 39.4376 91.7016 39.2576 92.5492 39.2576C93.4015 39.2576 94.1567 39.4376 94.8148 39.7974C95.473 40.1573 95.9891 40.6426 96.3631 41.2534C96.7372 41.8642 96.9242 42.5436 96.9242 43.2917C96.9242 43.8268 96.8271 44.35 96.633 44.8613C96.4436 45.368 96.1122 45.9338 95.6387 46.5588C95.1699 47.179 94.5189 47.9366 93.6855 48.8315L90.4185 52.3258V52.4395H97.1799V54.002H88.0037Z" fill="#5B4C39"/>
<path d="M123.125 26.2414C152.466 19.9414 183.094 24.4071 209.414 38.8228C235.734 53.2384 255.989 76.6417 266.48 104.758C276.971 132.873 276.997 163.825 266.553 191.958C256.109 220.092 235.893 243.529 209.597 257.988C183.301 272.448 152.68 276.965 123.329 270.714C93.9784 264.463 67.8558 247.861 49.7335 223.942C31.6112 200.022 22.699 170.382 24.6247 140.434C26.5505 110.487 39.1858 82.2317 60.2224 60.8303L61.3452 61.9339C40.5735 83.0657 28.0973 110.965 26.1958 140.535C24.2943 170.106 33.0943 199.373 50.9884 222.991C68.8824 246.609 94.676 263.002 123.657 269.174C152.639 275.346 182.873 270.886 208.838 256.609C234.803 242.331 254.765 219.189 265.077 191.41C275.389 163.631 275.364 133.07 265.005 105.308C254.646 77.5462 234.646 54.4376 208.657 40.2035C182.669 25.9694 152.427 21.56 123.456 27.7806L123.125 26.2414Z" fill="#5B4C39"/>
</svg>
