<svg width="49" height="49" viewBox="0 0 49 49" fill="none" xmlns="http://www.w3.org/2000/svg">
<path d="M37.3612 8.18121L30.152 14.9128C29.943 15.1081 29.6603 15.2044 29.3755 15.1775L9.9797 13.3444C9.66271 13.3144 9.3504 13.4372 9.13869 13.675L7.73617 15.2505C7.26105 15.7842 7.48282 16.6296 8.15875 16.8614L21.9263 21.5819C22.654 21.8314 22.8392 22.7748 22.2599 23.2809L16.7105 28.1293C16.5848 28.2392 16.4336 28.3158 16.2706 28.3522L11.5953 29.3966C10.5938 29.6203 10.5234 31.0758 11.4849 31.4346C13.1825 32.0681 14.8154 32.7762 15.345 33.2967C15.9941 33.9347 17.179 36.4467 18.1505 38.6994C18.5267 39.5718 19.8113 39.5092 20.0816 38.5984L21.9286 32.3741C21.9737 32.2221 22.0542 32.0831 22.1636 31.9684L26.7355 27.1751C27.252 26.6335 28.1586 26.8305 28.4039 27.5376L33.2182 41.4183C33.4588 42.1121 34.3403 42.3185 34.864 41.8037L36.5338 40.1625C36.7448 39.955 36.8532 39.6648 36.8296 39.3698L35.3352 20.6416C35.3137 20.372 35.4023 20.1051 35.5808 19.902L42.4485 12.0858C42.6321 11.8769 42.7203 11.6011 42.6922 11.3245L42.4365 8.81089C42.3845 8.30044 41.9547 7.91211 41.4416 7.91211H38.0437C37.7903 7.91211 37.5464 8.00829 37.3612 8.18121Z" stroke="#5B4C39" stroke-linejoin="round"/>
</svg>
