<svg width="298" height="297" viewBox="0 0 298 297" fill="none" xmlns="http://www.w3.org/2000/svg">
<path d="M80.248 54.2008C79.178 54.2008 78.2665 53.9096 77.5137 53.3272C76.7608 52.7401 76.1855 51.8902 75.7878 50.7775C75.3901 49.6601 75.1912 48.3107 75.1912 46.7292C75.1912 45.1573 75.3901 43.8149 75.7878 42.7022C76.1903 41.5848 76.7679 40.7325 77.5208 40.1454C78.2783 39.5536 79.1874 39.2576 80.248 39.2576C81.3087 39.2576 82.2154 39.5536 82.9682 40.1454C83.7258 40.7325 84.3034 41.5848 84.7012 42.7022C85.1036 43.8149 85.3049 45.1573 85.3049 46.7292C85.3049 48.3107 85.106 49.6601 84.7083 50.7775C84.3105 51.8902 83.7353 52.7401 82.9824 53.3272C82.2296 53.9096 81.3181 54.2008 80.248 54.2008ZM80.248 52.6383C81.3087 52.6383 82.1325 52.127 82.7196 51.1042C83.3068 50.0815 83.6003 48.6232 83.6003 46.7292C83.6003 45.4698 83.4654 44.3973 83.1955 43.5119C82.9303 42.6265 82.5468 41.9518 82.0449 41.4877C81.5478 41.0237 80.9488 40.7917 80.248 40.7917C79.1969 40.7917 78.3754 41.3102 77.7836 42.3471C77.1917 43.3793 76.8958 44.84 76.8958 46.7292C76.8958 47.9887 77.0284 49.0588 77.2935 49.9395C77.5587 50.8201 77.9398 51.4901 78.437 51.9494C78.9389 52.4087 79.5426 52.6383 80.248 52.6383ZM92.8333 54.2008C92.2367 54.1913 91.6401 54.0777 91.0435 53.8599C90.4469 53.6421 89.9024 53.2752 89.41 52.7591C88.9176 52.2382 88.5222 51.5351 88.2239 50.6497C87.9256 49.7595 87.7765 48.6421 87.7765 47.2974C87.7765 46.0095 87.8972 44.8684 88.1387 43.8741C88.3801 42.8751 88.7305 42.0346 89.1898 41.3528C89.6491 40.6663 90.2031 40.1454 90.8517 39.7903C91.5051 39.4352 92.2414 39.2576 93.0605 39.2576C93.8749 39.2576 94.5994 39.421 95.2338 39.7477C95.873 40.0697 96.3939 40.5195 96.7963 41.0971C97.1988 41.6748 97.4592 42.34 97.5776 43.0929H95.8446C95.6837 42.4395 95.3712 41.8973 94.9071 41.4664C94.4431 41.0356 93.8276 40.8201 93.0605 40.8201C91.9337 40.8201 91.0459 41.3102 90.3972 42.2903C89.7533 43.2704 89.4289 44.6459 89.4242 46.4167H89.5378C89.803 46.0143 90.1178 45.671 90.4824 45.3869C90.8517 45.0981 91.2589 44.8755 91.704 44.7193C92.1491 44.563 92.6202 44.4849 93.1174 44.4849C93.9507 44.4849 94.713 44.6932 95.4043 45.1099C96.0956 45.5218 96.6496 46.0924 97.0662 46.8216C97.4829 47.546 97.6912 48.377 97.6912 49.3145C97.6912 50.2141 97.49 51.0379 97.0875 51.786C96.6851 52.5294 96.1193 53.1213 95.3901 53.5616C94.6657 53.9972 93.8134 54.2103 92.8333 54.2008ZM92.8333 52.6383C93.4299 52.6383 93.9649 52.4892 94.4384 52.1909C94.9166 51.8926 95.293 51.4925 95.5676 50.9906C95.847 50.4887 95.9867 49.93 95.9867 49.3145C95.9867 48.7131 95.8517 48.1663 95.5819 47.6738C95.3167 47.1767 94.9498 46.7813 94.481 46.4877C94.017 46.1942 93.4867 46.0474 92.8901 46.0474C92.4403 46.0474 92.0212 46.1374 91.633 46.3173C91.2447 46.4925 90.9038 46.734 90.6103 47.0417C90.3214 47.3495 90.0942 47.7022 89.9284 48.1C89.7627 48.493 89.6799 48.9073 89.6799 49.3429C89.6799 49.9205 89.8148 50.4603 90.0847 50.9622C90.3593 51.4641 90.7334 51.8689 91.2069 52.1767C91.6851 52.4844 92.2272 52.6383 92.8333 52.6383Z" fill="#5B4C39"/>
<path d="M122.776 26.2414C152.116 19.9414 182.744 24.4071 209.064 38.8228C235.384 53.2384 255.64 76.6417 266.131 104.758C276.621 132.873 276.647 163.825 266.203 191.958C255.76 220.092 235.543 243.529 209.247 257.988C182.951 272.448 152.331 276.965 122.98 270.714C93.6288 264.463 67.5062 247.861 49.3839 223.942C31.2616 200.022 22.3494 170.382 24.2751 140.434C26.2009 110.487 38.8362 82.2317 59.8728 60.8303L60.9956 61.9339C40.2239 83.0657 27.7477 110.965 25.8462 140.535C23.9447 170.106 32.7447 199.373 50.6387 222.991C68.5328 246.609 94.3264 263.002 123.308 269.174C152.289 275.346 182.524 270.886 208.489 256.609C234.453 242.331 254.415 219.189 264.727 191.41C275.04 163.631 275.014 133.07 264.656 105.308C254.297 77.5462 234.296 54.4376 208.308 40.2035C182.319 25.9694 152.077 21.56 123.106 27.7806L122.776 26.2414Z" fill="#5B4C39"/>
</svg>
