<svg width="297" height="297" viewBox="0 0 297 297" fill="none" xmlns="http://www.w3.org/2000/svg">
<path d="M79.7324 54.027C78.6623 54.027 77.7509 53.7358 76.998 53.1534C76.2452 52.5663 75.6699 51.7164 75.2722 50.6037C74.8745 49.4863 74.6756 48.1368 74.6756 46.5554C74.6756 44.9834 74.8745 43.6411 75.2722 42.5284C75.6747 41.411 76.2523 40.5587 77.0051 39.9716C77.7627 39.3797 78.6718 39.0838 79.7324 39.0838C80.793 39.0838 81.6998 39.3797 82.4526 39.9716C83.2102 40.5587 83.7878 41.411 84.1855 42.5284C84.588 43.6411 84.7892 44.9834 84.7892 46.5554C84.7892 48.1368 84.5904 49.4863 84.1926 50.6037C83.7949 51.7164 83.2196 52.5663 82.4668 53.1534C81.714 53.7358 80.8025 54.027 79.7324 54.027ZM79.7324 52.4645C80.793 52.4645 81.6169 51.9531 82.204 50.9304C82.7911 49.9077 83.0847 48.4493 83.0847 46.5554C83.0847 45.2959 82.9498 44.2235 82.6799 43.3381C82.4147 42.4527 82.0312 41.7779 81.5293 41.3139C81.0321 40.8499 80.4332 40.6179 79.7324 40.6179C78.6813 40.6179 77.8598 41.1364 77.2679 42.1733C76.6761 43.2055 76.3801 44.6662 76.3801 46.5554C76.3801 47.8149 76.5127 48.8849 76.7779 49.7656C77.043 50.6463 77.4242 51.3163 77.9213 51.7756C78.4232 52.2348 79.0269 52.4645 79.7324 52.4645ZM92.6017 39.2827V53.8281H90.8404V41.1293H90.7551L87.204 43.4872V41.6974L90.8404 39.2827H92.6017Z" fill="#5B4C39"/>
<path d="M122.213 26.2414C151.554 19.9414 182.181 24.4071 208.502 38.8228C234.822 53.2384 255.077 76.6417 265.568 104.758C276.059 132.873 276.085 163.825 265.641 191.958C255.197 220.092 234.981 243.529 208.685 257.988C182.389 272.448 151.768 276.965 122.417 270.714C93.0663 264.463 66.9437 247.861 48.8214 223.942C30.6991 200.022 21.7869 170.382 23.7126 140.434C25.6384 110.487 38.2737 82.2317 59.3103 60.8303L60.4331 61.9339C39.6614 83.0657 27.1852 110.965 25.2837 140.535C23.3822 170.106 32.1822 199.373 50.0762 222.991C67.9703 246.609 93.7639 263.002 122.745 269.174C151.727 275.346 181.961 270.886 207.926 256.609C233.891 242.331 253.853 219.189 264.165 191.41C274.477 163.631 274.452 133.07 264.093 105.308C253.734 77.5462 233.734 54.4376 207.745 40.2035C181.757 25.9694 151.515 21.56 122.544 27.7806L122.213 26.2414Z" fill="#5B4C39"/>
</svg>
