<svg width="298" height="297" viewBox="0 0 298 297" fill="none" xmlns="http://www.w3.org/2000/svg">
<path d="M80.25 54.1989C79.1799 54.1989 78.2685 53.9077 77.5156 53.3253C76.7628 52.7382 76.1875 51.8883 75.7898 50.7756C75.392 49.6581 75.1932 48.3087 75.1932 46.7273C75.1932 45.1553 75.392 43.813 75.7898 42.7003C76.1922 41.5829 76.7699 40.7306 77.5227 40.1435C78.2803 39.5516 79.1894 39.2557 80.25 39.2557C81.3106 39.2557 82.2173 39.5516 82.9702 40.1435C83.7277 40.7306 84.3054 41.5829 84.7031 42.7003C85.1056 43.813 85.3068 45.1553 85.3068 46.7273C85.3068 48.3087 85.108 49.6581 84.7102 50.7756C84.3125 51.8883 83.7372 52.7382 82.9844 53.3253C82.2315 53.9077 81.3201 54.1989 80.25 54.1989ZM80.25 52.6364C81.3106 52.6364 82.1345 52.125 82.7216 51.1023C83.3087 50.0795 83.6023 48.6212 83.6023 46.7273C83.6023 45.4678 83.4673 44.3954 83.1974 43.5099C82.9323 42.6245 82.5488 41.9498 82.0469 41.4858C81.5497 41.0218 80.9508 40.7898 80.25 40.7898C79.1989 40.7898 78.3774 41.3082 77.7855 42.3452C77.1937 43.3774 76.8977 44.8381 76.8977 46.7273C76.8977 47.9867 77.0303 49.0568 77.2955 49.9375C77.5606 50.8182 77.9418 51.4882 78.4389 51.9474C78.9408 52.4067 79.5445 52.6364 80.25 52.6364ZM87.6648 51.017V49.5682L94.0568 39.4545H95.108V41.6989H94.3977L89.5682 49.3409V49.4545H98.1761V51.017H87.6648ZM94.5114 54V50.5767V49.902V39.4545H96.1875V54H94.5114Z" fill="#5B4C39"/>
<path d="M122.951 26.2414C152.292 19.9414 182.92 24.4071 209.24 38.8228C235.56 53.2384 255.815 76.6417 266.306 104.758C276.797 132.873 276.823 163.825 266.379 191.958C255.935 220.092 235.719 243.529 209.423 257.988C183.127 272.448 152.507 276.965 123.156 270.714C93.8046 264.463 67.682 247.861 49.5597 223.942C31.4374 200.022 22.5251 170.382 24.4509 140.434C26.3767 110.487 39.012 82.2317 60.0486 60.8303L61.1713 61.9339C40.3996 83.0657 27.9235 110.965 26.022 140.535C24.1205 170.106 32.9205 199.373 50.8145 222.991C68.7086 246.609 94.5022 263.002 123.484 269.174C152.465 275.346 182.7 270.886 208.664 256.609C234.629 242.331 254.591 219.189 264.903 191.41C275.216 163.631 275.19 133.07 264.831 105.308C254.473 77.5462 234.472 54.4376 208.484 40.2035C182.495 25.9694 152.253 21.56 123.282 27.7806L122.951 26.2414Z" fill="#5B4C39"/>
</svg>
