<svg width="298" height="297" viewBox="0 0 298 297" fill="none" xmlns="http://www.w3.org/2000/svg">
<path d="M80.248 54.1969C79.178 54.1969 78.2665 53.9057 77.5137 53.3233C76.7608 52.7362 76.1855 51.8863 75.7878 50.7736C75.3901 49.6562 75.1912 48.3068 75.1912 46.7253C75.1912 45.1533 75.3901 43.811 75.7878 42.6983C76.1903 41.5809 76.7679 40.7286 77.5208 40.1415C78.2783 39.5497 79.1874 39.2537 80.248 39.2537C81.3087 39.2537 82.2154 39.5497 82.9682 40.1415C83.7258 40.7286 84.3034 41.5809 84.7012 42.6983C85.1036 43.811 85.3049 45.1533 85.3049 46.7253C85.3049 48.3068 85.106 49.6562 84.7083 50.7736C84.3105 51.8863 83.7353 52.7362 82.9824 53.3233C82.2296 53.9057 81.3181 54.1969 80.248 54.1969ZM80.248 52.6344C81.3087 52.6344 82.1325 52.123 82.7196 51.1003C83.3068 50.0776 83.6003 48.6193 83.6003 46.7253C83.6003 45.4658 83.4654 44.3934 83.1955 43.508C82.9303 42.6226 82.5468 41.9479 82.0449 41.4838C81.5478 41.0198 80.9488 40.7878 80.248 40.7878C79.1969 40.7878 78.3754 41.3063 77.7836 42.3432C77.1917 43.3754 76.8958 44.8361 76.8958 46.7253C76.8958 47.9848 77.0284 49.0549 77.2935 49.9355C77.5587 50.8162 77.9398 51.4862 78.437 51.9455C78.9389 52.4048 79.5426 52.6344 80.248 52.6344ZM92.5492 54.1969C91.7158 54.1969 90.9654 54.0312 90.2978 53.6998C89.6301 53.3683 89.0951 52.9138 88.6926 52.3361C88.2902 51.7585 88.07 51.1003 88.0321 50.3617H89.7367C89.803 51.0198 90.1013 51.5643 90.6316 51.9952C91.1666 52.4213 91.8058 52.6344 92.5492 52.6344C93.1458 52.6344 93.6761 52.4947 94.1401 52.2154C94.6088 51.936 94.9758 51.5525 95.2409 51.0648C95.5108 50.5724 95.6458 50.016 95.6458 49.3958C95.6458 48.7613 95.5061 48.1955 95.2267 47.6983C94.9521 47.1964 94.5733 46.8011 94.0904 46.5123C93.6074 46.2234 93.0558 46.0766 92.4355 46.0719C91.9905 46.0672 91.5336 46.1358 91.0648 46.2779C90.5961 46.4152 90.2102 46.5927 89.9071 46.8105L88.2594 46.6117L89.1401 39.4526H96.6969V41.0151H90.6174L90.106 45.3049H90.1912C90.4895 45.0681 90.8636 44.8716 91.3134 44.7154C91.7632 44.5591 92.2319 44.481 92.7196 44.481C93.6098 44.481 94.4029 44.6941 95.0989 45.1202C95.7997 45.5416 96.3489 46.1193 96.7466 46.8532C97.1491 47.5871 97.3503 48.4251 97.3503 49.3674C97.3503 50.2954 97.142 51.124 96.7253 51.8532C96.3134 52.5776 95.7452 53.1505 95.0208 53.5719C94.2963 53.9886 93.4725 54.1969 92.5492 54.1969Z" fill="#5B4C39"/>
<path d="M122.864 26.2414C152.204 19.9414 182.832 24.4071 209.152 38.8228C235.472 53.2384 255.728 76.6417 266.218 104.758C276.709 132.873 276.735 163.825 266.291 191.958C255.847 220.092 235.631 243.529 209.335 257.988C183.039 272.448 152.419 276.965 123.068 270.714C93.7167 264.463 67.5941 247.861 49.4718 223.942C31.3495 200.022 22.4372 170.382 24.363 140.434C26.2888 110.487 38.9241 82.2317 59.9607 60.8303L61.0834 61.9339C40.3118 83.0657 27.8356 110.965 25.9341 140.535C24.0326 170.106 32.8326 199.373 50.7266 222.991C68.6207 246.609 94.4143 263.002 123.396 269.174C152.377 275.346 182.612 270.886 208.576 256.609C234.541 242.331 254.503 219.189 264.815 191.41C275.128 163.631 275.102 133.07 264.743 105.308C254.385 77.5462 234.384 54.4376 208.396 40.2035C182.407 25.9694 152.165 21.56 123.194 27.7806L122.864 26.2414Z" fill="#5B4C39"/>
</svg>
