<svg width="49" height="49" viewBox="0 0 49 49" fill="none" xmlns="http://www.w3.org/2000/svg">
<path d="M11.5244 29.7697V32.5259C11.5244 34.1433 12.8356 35.4545 14.453 35.4545V35.4545H15.9918M23.8244 35.4545H32.6102M34.6602 35.4545H32.6102M42.3836 35.4545V35.4545C43.779 35.4545 44.9102 34.3233 44.9102 32.928V27.6635C44.9102 27.2965 44.7286 26.9533 44.4253 26.7466V26.7466C44.1739 26.5754 44.0039 26.3085 43.9549 26.0084L43.5048 23.2491C43.4664 23.0142 43.3565 22.7968 43.19 22.6267V22.6267C42.9786 22.4107 42.8602 22.1204 42.8602 21.8182V21.7695C42.8602 21.0654 42.2893 20.4945 41.5851 20.4945H32.6102M9.47444 13.9121H29.6102C31.267 13.9121 32.6102 15.2553 32.6102 16.9121V35.4545M3.91016 17.5025H18.8459M18.8459 21.6913H9.47444M18.8459 25.2817H5.37444" stroke="#5B4C39" stroke-linecap="round" stroke-linejoin="round"/>
<circle cx="20.1461" cy="35.8218" r="3.66949" stroke="#5B4C39"/>
<circle cx="38.9097" cy="35.8218" r="3.66949" stroke="#5B4C39"/>
</svg>
