<svg width="48" height="45" viewBox="0 0 48 45" fill="none" xmlns="http://www.w3.org/2000/svg">
<path d="M45.9848 10.0071C45.6274 13.7981 44.7146 17.516 43.2757 21.0415C42.8571 22.0588 42.191 22.9554 41.3379 23.6499C40.4848 24.3445 39.4718 24.815 38.3908 25.0187C36.1302 25.4602 32.7005 25.9017 28.0487 25.9017C25.288 25.914 22.5295 25.7464 19.7906 25.4001C15.8911 24.8986 13.1396 21.7091 12.5144 17.8272L10.6777 6.47852H42.6187C44.5684 6.47852 46.1685 8.06444 45.9848 10.0071Z" stroke="black" stroke-width="3" stroke-linecap="round" stroke-linejoin="round"/>
<path d="M40.8533 34.7367H21.2571C19.5796 34.7365 17.957 34.1393 16.6795 33.0521C15.402 31.9649 14.5531 30.4586 14.2847 28.8027L10.908 7.99843C10.6396 6.34255 9.79072 4.83622 8.51325 3.749C7.23577 2.66179 5.61309 2.06465 3.9356 2.06445H2M17.3789 42.6416C17.912 42.6641 18.4441 42.5786 18.9433 42.3901C19.4425 42.2016 19.8984 41.9141 20.2836 41.5449C20.6687 41.1756 20.9753 40.7323 21.1846 40.2415C21.394 39.7507 21.502 39.2227 21.502 38.6891C21.502 38.1555 21.394 37.6275 21.1846 37.1367C20.9753 36.6459 20.6687 36.2026 20.2836 35.8333C19.8984 35.4641 19.4425 35.1766 18.9433 34.9881C18.4441 34.7996 17.912 34.7141 17.3789 34.7367C16.3595 34.7798 15.3962 35.215 14.6902 35.9515C13.9842 36.688 13.59 37.6688 13.59 38.6891C13.59 39.7094 13.9842 40.6902 14.6902 41.4267C15.3962 42.1632 16.3595 42.5985 17.3789 42.6416Z" stroke="black" stroke-width="3" stroke-linecap="round" stroke-linejoin="round"/>
<path d="M40.8553 42.6389C41.3884 42.6615 41.9205 42.5759 42.4197 42.3874C42.9189 42.199 43.3748 41.9115 43.76 41.5422C44.1451 41.173 44.4516 40.7297 44.661 40.2389C44.8704 39.7481 44.9784 39.22 44.9784 38.6865C44.9784 38.1529 44.8704 37.6248 44.661 37.134C44.4516 36.6433 44.1451 36.1999 43.76 35.8307C43.3748 35.4614 42.9189 35.1739 42.4197 34.9855C41.9205 34.797 41.3884 34.7115 40.8553 34.734C39.8359 34.7771 38.8726 35.2124 38.1666 35.9489C37.4606 36.6854 37.0664 37.6662 37.0664 38.6865C37.0664 39.7067 37.4606 40.6875 38.1666 41.424C38.8726 42.1605 39.8359 42.5958 40.8553 42.6389Z" stroke="black" stroke-width="3" stroke-linecap="round" stroke-linejoin="round"/>
</svg>
