<svg width="32" height="35" viewBox="0 0 32 35" fill="none" xmlns="http://www.w3.org/2000/svg">
<path d="M15.0205 17.5713V34.1152C15.001 34.1064 14.9802 34.1004 14.9609 34.0908L0.990234 27.1064C0.383491 26.8029 0.000176952 26.1823 0 25.5039V8.80859L15.0205 17.5713ZM31.5234 25.5039C31.5233 26.1823 31.1399 26.8029 30.5332 27.1064L16.5635 34.0908C16.5496 34.0977 16.5345 34.1019 16.5205 34.1084V17.5674L31.5234 8.81543V25.5039ZM14.9609 0.188477C15.4653 -0.0634864 16.0592 -0.0636636 16.5635 0.188477L30.5332 7.17285C30.674 7.24329 30.8023 7.33127 30.917 7.43262L15.7676 16.2705L0.609375 7.42871C0.723201 7.32872 0.850904 7.24255 0.990234 7.17285L14.9609 0.188477Z" fill="#A38D78"/>
<path d="M15.0205 17.5713V34.1152C15.001 34.1064 14.9802 34.1004 14.9609 34.0908L0.990234 27.1064C0.383491 26.8029 0.000176952 26.1823 0 25.5039V8.80859L15.0205 17.5713ZM31.5234 25.5039C31.5233 26.1823 31.1399 26.8029 30.5332 27.1064L16.5635 34.0908C16.5496 34.0977 16.5345 34.1019 16.5205 34.1084V17.5674L31.5234 8.81543V25.5039ZM14.9609 0.188477C15.4653 -0.0634864 16.0592 -0.0636636 16.5635 0.188477L30.5332 7.17285C30.674 7.24329 30.8023 7.33127 30.917 7.43262L15.7676 16.2705L0.609375 7.42871C0.723201 7.32872 0.850904 7.24255 0.990234 7.17285L14.9609 0.188477Z" fill="#A38D78"/>
</svg>
