<svg width="200" height="200" viewBox="0 0 200 200" fill="none" xmlns="http://www.w3.org/2000/svg">
<path d="M54.0043 82.4692C52.41 66.0812 34.2621 67.4745 36.3387 85.1322C37.1506 92.0243 44.8959 106.268 53.5073 101.737C52.1246 106.169 46.6871 103.546 44.1529 101.495C36.7569 95.5024 30.0991 77.914 39.7635 71.3825C47.4449 66.1899 53.9354 73.6354 55.2296 80.9821C60.8836 76.2193 61.1641 68.68 65.8241 62.9637C70.927 56.704 79.5384 54.545 84.223 48.3347C87.3624 44.1747 86.2307 40.6767 92.9771 42.1046C96.0673 42.7567 98.1193 44.3427 100.747 45.9088C99.5119 27.3174 75.2179 26.4182 61.1985 28.1869C31.8312 31.8874 12.2563 61.0616 21.8813 89.7714C26.7333 104.247 39.1632 115.067 43.1786 129.904L44.1578 129.173L45.6783 106.48L47.1054 103.719C44.6253 124.247 47.499 149.024 29.4003 163.258L18.5696 171.894C18.0382 171.355 20.5626 169.112 21.0202 168.677C25.3062 164.621 30.4435 161.37 34.3261 156.84C35.6891 155.249 38.0905 152.502 38.0068 150.654C37.2047 151.534 36.1566 151.924 35.0051 152.092C23.8743 153.698 14.4755 144.157 15.5876 133.09C16.5226 123.772 31.2407 117.952 31.2358 109.796C31.2358 108.916 23.707 97.0686 22.5703 94.5094C10.1649 66.5506 26.9498 33.3301 56.8633 27.7868C71.1189 25.1435 98.6409 24.9262 101.697 43.7498C101.884 44.8911 101.303 46.2843 101.52 46.9167C101.736 47.5491 103.591 49.2832 104.103 50.1973C111.105 62.5586 104.324 76.2045 109.511 86.7626C111.041 89.8801 117.163 96.1398 116.292 99.2771C115.263 103.002 108.192 101.021 108.079 106.925C108.054 108.304 108.773 109.751 108.63 110.848C107.917 116.347 94.4484 109.657 94.3549 107.913C94.2565 106.075 97.8487 109.227 98.2522 109.425C99.3544 109.959 100.934 110.64 102.09 111.006C111.76 114.079 104.561 107.177 108.384 102.74C110.165 100.675 114.924 101.446 115.062 98.531C115.19 95.868 109.969 90.1814 108.527 87.2566C102.145 74.3123 113.093 48.809 93.5823 43.4682C86.6391 41.571 87.825 46.6302 83.7653 50.8445C77.5848 57.2623 69.3179 58.4085 64.2494 67.3164C61.3068 72.4892 60.6523 80.7993 53.9994 82.4692H54.0043ZM31.4572 110.635C30.4829 120.63 16.3504 123.787 15.627 134.084C14.9725 143.446 23.8989 152.215 33.6913 151.094C39.5765 150.417 40.7083 146.168 41.909 141.272C43.4787 134.854 43.6707 132.799 41.0676 126.766C38.6908 121.253 35.1183 115.443 31.4572 110.64V110.635Z" fill="#5B4C39"/>
<path d="M140.084 86.6392L183.594 86.491C184.863 86.906 184.45 90.8782 184.396 92.0985C183.545 111.095 178.983 132.043 177.517 151.395C176.892 159.646 177.556 167.502 177.551 175.594C177.551 178.663 176.552 182.249 173.447 183.371C169.963 184.626 157.13 184.695 153.159 184.245C151.855 184.097 150.083 183.509 149.143 182.595C147.933 181.419 147.185 178.752 147.012 177.077C146.353 170.6 147.337 162.976 147.027 156.311C146.786 151.143 145.664 145.956 145.526 140.773M145.039 87.4099H140.606C140.31 91.0808 140.424 92.7211 144.577 91.644L145.039 87.4099ZM151.436 87.4099H145.526L145.581 91.313C147.588 92.1776 149.517 90.73 151.431 91.8564V87.4099H151.436ZM157.833 87.4099H151.923L152.155 91.392C152.44 91.891 156.687 90.9227 157.823 91.8564V87.4099H157.833ZM164.722 87.4099C162.38 87.8397 158.626 86.0908 158.286 89.1292C157.809 93.4325 161.795 91.4612 164.722 91.8614V87.4099ZM171.119 87.4099H165.21L165.215 91.8564C167.084 90.8387 169.028 92.2715 171.119 91.8564V87.405V87.4099ZM177.517 87.4099H171.607L171.612 91.8614C175.917 91.4859 178.269 93.4424 177.517 87.4099ZM183.417 87.4149H177.999V91.8614L182.924 91.6242L183.412 87.4149H183.417ZM146.515 140.536C146.963 147.715 148.385 154.8 147.987 162.018H176.035L182.924 92.8495H141.098C143.125 107.948 145.979 123.056 146.26 138.303L146.52 140.536H146.515ZM176.035 163.006H147.987V173.628L148.705 174.251L156.352 174.374C156.623 168.445 164.107 166.795 167.203 171.637C167.69 172.403 167.675 174.167 168.447 174.32L176.04 173.88V163.011L176.035 163.006ZM166.691 173.87C165.726 168.529 158.675 168.604 157.341 173.87H166.691ZM176.035 174.858L147.982 175.599C148.302 178.257 148.848 182.101 151.899 183.04C154.044 183.702 165.608 183.499 168.428 183.277C174.264 182.818 176.759 181.202 176.035 174.858Z" fill="#5B4C39"/>
<path d="M107.63 114.584C109.653 118.679 106.115 119.682 105.396 121.97C104.27 125.547 106.636 130.344 103.231 133.63C97.8135 138.862 88.2425 131.673 83.0166 133.101C77.4463 134.623 76.157 143.051 76.6393 147.933C77.7858 159.504 90.5651 166.964 99.5259 172.384C100.038 173.026 99.9294 173.56 99.0191 173.392C97.1196 173.046 85.4229 164.558 83.5185 162.769C74.8333 154.602 71.2608 139.835 82.0472 131.891C77.3183 130.809 72.5451 128.674 68.6085 125.863C65.6117 123.724 61.7391 120.409 61.3848 116.57C63.791 119.149 65.6905 122.276 68.515 124.475C73.7065 128.516 91.1162 134.395 97.5477 134.391C106.553 134.386 102.97 125.789 104.294 121.362C104.55 120.503 105.869 119.89 106.282 118.912C106.996 117.247 105.864 114.352 107.63 114.589V114.584Z" fill="#5B4C39"/>
<path d="M140.478 42.5745C154.005 40.292 156.761 60.5237 144.675 62.5938C130.508 65.0196 128.451 44.6051 140.478 42.5745ZM141.491 43.5478C130.513 44.6397 131.541 62.2282 142.8 61.7341C155.038 61.2005 153.257 42.3769 141.491 43.5478Z" fill="#5B4C39"/>
<path d="M98.2816 82.4751C98.0798 85.4246 94.1481 86.5511 91.6385 86.4572C89.6898 86.3831 81.6739 83.7152 81.5656 81.734C81.5311 81.0522 82.284 81.1905 82.8598 81.398C87.628 83.1272 93.6166 85.9533 98.2816 82.4751Z" fill="#5B4C39"/>
<path d="M98.8085 72.0652C98.7642 72.0405 98.8282 71.4526 98.4149 71.1216C93.686 67.3519 85.4633 66.3885 79.9717 68.7698C78.5102 69.4022 75.9268 72.2233 75.1641 70.1236C77.2554 69.422 79.7896 67.1938 81.9154 66.764C87.5251 65.6326 96.4219 66.6849 100.25 71.3488C99.9157 71.7539 99.3695 72.4012 98.8134 72.0603L98.8085 72.0652Z" fill="#5B4C39"/>
<path d="M147.002 28.1283L144.793 38.9926C143.912 38.3751 144.084 37.8267 144.158 36.9225C144.296 35.223 145.25 30.7616 145.792 29.1065C146.072 28.2518 145.816 27.9257 147.002 28.1283Z" fill="#5B4C39"/>
<path d="M141.098 66.6649L139.622 77.0401H138.15C138.849 73.6212 139.784 70.1727 139.627 66.6599H141.098V66.6649Z" fill="#5B4C39"/>
<path d="M129.78 51.3439C127.063 50.5781 123.26 50.7066 120.706 49.8371C119.904 49.5653 119.274 49.4665 119.451 48.3845C122.216 49.1108 125.882 49.1256 128.525 49.8914C129.361 50.1335 129.942 50.2768 129.78 51.3439Z" fill="#5B4C39"/>
<path d="M128.801 32.5748C129.814 32.3575 129.918 33.0936 130.385 33.6964C131.236 34.7932 133.697 38.5332 134.243 39.7091C134.573 40.4205 134.839 41.547 133.963 41.458C133.451 41.4086 128.358 33.0689 128.801 32.5748Z" fill="#5B4C39"/>
<path d="M151.333 64.8023C151.663 65.0246 155.304 70.4741 155.86 71.3535C156.471 72.3169 156.603 72.2576 155.614 73.0728L149.96 65.4198C149.562 64.4713 150.846 64.4762 151.333 64.8023Z" fill="#5B4C39"/>
<path d="M155.859 55.2915C156.086 54.3725 156.642 54.3824 157.429 54.4121C158.349 54.4466 166.173 55.9338 166.183 56.5316C165.47 57.6333 165.165 57.0454 164.313 56.9466C161.558 56.6254 158.6 55.8201 155.859 55.2915Z" fill="#5B4C39"/>
<path d="M161.765 37.5151C161.986 38.77 161.75 38.5625 161.16 39.1454C160.269 40.0249 156.972 42.5594 155.88 43.2115C155.23 43.6019 154.91 44.1997 153.896 43.9329C153.99 42.6977 155.702 41.7491 156.623 40.9932C157.149 40.5585 161.455 37.1593 161.765 37.5151Z" fill="#5B4C39"/>
<path d="M131.748 61.23C131.97 62.2033 131.236 62.396 130.72 62.9098C130.203 63.4236 125.671 67.2526 125.361 67.4156C124.505 67.8603 124.421 67.5046 123.885 66.9117C125.765 65.39 127.851 63.3396 129.76 61.9513C130.434 61.4622 130.744 61.0126 131.748 61.2349V61.23Z" fill="#5B4C39"/>
</svg>
