<svg width="1919" height="739" viewBox="0 0 1919 739" fill="none" xmlns="http://www.w3.org/2000/svg">
<path d="M1918.37 1132.63C1918.37 1132.63 1550.81 655.035 1199.74 610.061C848.662 565.088 382.144 612.112 252.549 581.45C122.955 550.789 0.436066 471.08 0.436066 471.08" stroke="url(#paint0_linear_2372_2064)" stroke-miterlimit="10"/>
<path d="M1918.37 1113.24C1918.37 1113.24 1809.73 975.973 1650.72 850.167C1512.79 741.038 1345.98 633.867 1181.49 615.207C977.579 591.506 734.106 593.608 545.111 590.356C408.848 588.019 298.146 586.347 244.948 571.317C119.433 535.877 0.511406 455.907 0.511406 455.907" stroke="url(#paint1_linear_2372_2064)" stroke-miterlimit="10"/>
<path d="M1918.37 1093.84C1918.37 1093.84 1806.76 956.724 1641.1 839.498C1496.71 737.329 1329.42 637.262 1163.26 620.351C958.837 599.549 714.446 598.413 529.245 589.181C396.76 582.573 289.325 578.395 237.376 561.21C116.016 521.068 0.616699 440.758 0.616699 440.758" stroke="url(#paint2_linear_2372_2064)" stroke-miterlimit="10"/>
<path d="M1918.37 1074.43C1918.37 1074.43 1803.69 937.477 1631.48 828.83C1480.54 733.608 1312.89 640.41 1145 625.484C940.126 607.28 694.937 603.245 513.348 587.98C384.733 577.168 280.503 570.456 229.758 551.064C112.613 506.325 0.661751 425.572 0.661751 425.572" stroke="url(#paint3_linear_2372_2064)" stroke-miterlimit="10"/>
<path d="M1918.37 1055.04C1918.37 1055.04 1800.51 918.268 1621.88 818.175C1464.31 729.899 1296.39 643.557 1126.77 630.642C921.46 615.011 675.654 608.169 497.482 586.818C372.841 571.879 271.773 562.595 222.172 540.957C109.302 491.739 0.752127 410.424 0.752127 410.424" stroke="url(#paint4_linear_2372_2064)" stroke-miterlimit="10"/>
<path d="M1918.37 1035.64C1918.37 1035.64 1797.25 899.058 1612.26 807.505C1447.98 726.204 1279.91 646.678 1108.53 635.787C902.793 622.702 656.521 613.17 481.601 585.629C361.009 566.642 263.027 554.746 214.57 530.836C106.02 477.257 0.827468 395.263 0.827468 395.263" stroke="url(#paint5_linear_2372_2064)" stroke-miterlimit="10"/>
<path d="M1918.37 1016.23C1918.37 1016.23 1793.88 879.888 1602.65 796.849C1431.56 722.547 1263.41 649.785 1090.3 640.918C884.142 630.367 637.569 618.275 465.735 584.441C349.282 561.51 254.341 546.963 206.983 520.702C102.754 462.892 0.902808 380.089 0.902808 380.089" stroke="url(#paint6_linear_2372_2064)" stroke-miterlimit="10"/>
<path d="M1918.37 996.84C1918.37 996.84 1790.43 860.797 1593.03 786.194C1415.07 718.93 1246.93 652.88 1072.04 646.077C865.461 638.033 618.752 623.525 449.839 583.278C337.586 556.535 245.61 539.245 199.366 510.595C99.4571 448.685 0.963048 364.941 0.963048 364.941" stroke="url(#paint7_linear_2372_2064)" stroke-miterlimit="10"/>
<path d="M1918.37 977.436C1918.37 977.436 1786.91 841.745 1583.42 775.526C1398.52 715.352 1230.44 655.949 1053.79 651.209C846.81 645.659 600.086 628.892 433.957 582.078C325.965 551.651 236.909 531.555 191.764 500.449C96.1453 434.569 1.03839 349.755 1.03839 349.755" stroke="url(#paint8_linear_2372_2064)" stroke-miterlimit="10"/>
<path d="M1918.37 958.043C1918.37 958.043 1783.34 822.77 1573.81 764.869C1381.93 711.852 1213.98 659.017 1035.56 656.367C828.174 653.272 581.555 634.454 418.091 580.915C314.404 546.95 228.193 523.941 184.177 490.354C92.8035 420.622 1.12846 334.619 1.12846 334.619" stroke="url(#paint9_linear_2372_2064)" stroke-miterlimit="10"/>
<path d="M1918.37 938.639C1918.37 938.639 1779.73 803.849 1564.19 754.201C1365.29 708.392 1197.43 665.26 1017.32 661.499C809.583 657.164 563.085 640.188 402.21 579.727C302.843 542.38 219.447 516.354 176.59 480.221C89.4164 406.728 1.2038 319.433 1.2038 319.433" stroke="url(#paint10_linear_2372_2064)" stroke-miterlimit="10"/>
<path d="M1918.37 919.233C1918.37 919.233 1776.08 784.992 1554.57 743.532C1348.63 704.983 1181.01 668.433 999.075 666.631C790.887 664.58 544.675 646.116 386.329 578.525C291.282 537.953 210.671 508.793 168.988 470.075C85.9391 392.938 1.27929 304.258 1.27929 304.258" stroke="url(#paint11_linear_2372_2064)" stroke-miterlimit="10"/>
<path d="M1918.37 899.842C1918.37 899.842 1772.43 766.215 1544.97 732.876C1331.96 701.654 1164.56 668.093 980.845 671.789C772.251 675.981 526.264 652.293 370.462 577.363C279.706 533.709 201.88 501.324 161.402 459.968C82.3865 379.266 1.36937 289.111 1.36937 289.111" stroke="url(#paint12_linear_2372_2064)" stroke-miterlimit="10"/>
<path d="M1918.37 880.437C1918.37 880.437 1768.77 747.488 1535.35 722.207C1315.27 698.376 1148.07 671.083 962.6 676.92C753.615 683.502 507.809 658.665 354.581 576.161C268.085 529.595 193.014 493.828 153.8 449.834C78.7437 365.62 1.42979 273.937 1.42979 273.937" stroke="url(#paint13_linear_2372_2064)" stroke-miterlimit="10"/>
<path d="M1918.37 861.032C1918.37 861.032 1765.11 728.815 1525.75 711.539C1298.61 695.151 1131.62 674.061 944.356 682.066C734.964 691.011 489.248 665.273 338.7 574.987C256.388 525.639 184.117 486.398 146.198 439.714C74.9953 352.053 1.50495 258.776 1.50495 258.776" stroke="url(#paint14_linear_2372_2064)" stroke-miterlimit="10"/>
<path d="M1918.37 841.641C1918.37 841.641 1761.45 710.207 1516.13 700.884C1281.93 691.978 1115.14 677.026 926.111 687.211C716.328 698.507 470.567 672.09 322.818 573.812C244.616 521.8 175.16 478.994 138.596 429.594C71.1718 338.511 1.58013 243.615 1.58013 243.615" stroke="url(#paint15_linear_2372_2064)" stroke-miterlimit="10"/>
<path d="M1918.37 822.235C1918.37 822.235 1757.67 682.68 1506.51 690.214C1265.41 697.449 1098.65 679.976 907.866 692.343C697.677 705.976 451.705 679.102 306.937 572.61C232.754 518.052 166.158 471.577 130.994 419.46C67.2578 324.982 1.65547 228.441 1.65547 228.441" stroke="url(#paint16_linear_2372_2064)" stroke-miterlimit="10"/>
<path d="M1918.37 802.83C1918.37 802.83 1754.21 673.107 1496.9 679.545C1248.66 685.761 1082.2 682.901 889.637 697.487C679.056 713.445 432.633 686.309 291.071 571.434C220.802 514.408 157.111 464.185 123.407 409.34C63.284 311.48 1.73078 213.28 1.73078 213.28" stroke="url(#paint17_linear_2372_2064)" stroke-miterlimit="10"/>
<path d="M1918.37 783.438C1918.37 783.438 1750.63 654.617 1487.28 668.89C1232.04 682.732 1065.72 685.827 871.392 702.633C660.405 720.888 413.289 693.675 275.19 570.246C208.714 510.83 148.004 456.794 115.82 399.206C59.2196 297.964 1.82119 198.106 1.82119 198.106" stroke="url(#paint18_linear_2372_2064)" stroke-miterlimit="10"/>
<path d="M1918.37 764.034C1918.37 764.034 1747.06 636.153 1477.67 658.222C1215.45 679.703 1049.22 688.713 853.148 707.778C641.739 728.319 393.66 701.197 259.308 569.071C196.506 507.318 138.852 449.417 108.218 389.087C55.0798 284.449 1.89635 182.946 1.89635 182.946" stroke="url(#paint19_linear_2372_2064)" stroke-miterlimit="10"/>
<path d="M1918.37 744.642C1918.37 744.642 1743.54 617.726 1468.06 647.578C1198.89 676.738 1032.75 691.624 834.903 712.936C623.087 735.749 373.744 708.822 243.427 567.908C184.177 503.831 129.654 442.051 100.616 378.992C50.8648 270.959 1.95647 167.81 1.95647 167.81" stroke="url(#paint20_linear_2372_2064)" stroke-miterlimit="10"/>
<path d="M1918.37 725.237C1918.37 725.237 1740.03 599.301 1458.44 636.91C1182.36 673.774 1016.25 694.484 816.658 718.068C604.421 743.14 353.512 716.514 227.546 566.707C171.728 500.331 120.411 434.634 93.0141 368.846C46.5896 257.392 2.03181 152.624 2.03181 152.624" stroke="url(#paint21_linear_2372_2064)" stroke-miterlimit="10"/>
<path d="M1918.37 705.832C1918.37 705.832 1736.55 580.902 1448.84 626.241C1165.87 670.823 999.767 697.344 798.429 723.213C585.77 750.531 332.979 724.258 211.68 565.532C159.189 496.845 111.153 427.243 85.4272 358.726C42.2843 243.824 2.12203 137.463 2.12203 137.463" stroke="url(#paint22_linear_2372_2064)" stroke-miterlimit="10"/>
<path d="M1918.37 686.44C1918.37 686.44 1733.11 562.529 1439.22 615.585C1149.37 667.91 983.269 700.191 780.184 728.358C567.089 757.909 312.146 732.014 195.798 564.344C146.514 493.319 101.85 419.826 77.8253 348.592C37.9189 230.23 2.18231 122.289 2.18231 122.289" stroke="url(#paint23_linear_2372_2064)" stroke-miterlimit="10"/>
<path d="M1918.37 667.036C1918.37 667.036 1729.67 544.156 1429.6 604.917C1132.91 664.985 966.755 703.025 761.939 733.503C548.408 765.274 291.011 739.771 179.917 563.169C133.748 489.78 92.5023 412.409 70.2233 338.485C33.5082 216.623 2.25746 107.141 2.25746 107.141" stroke="url(#paint24_linear_2372_2064)" stroke-miterlimit="10"/>
<path d="M1918.37 647.631C1918.37 647.631 1726.27 525.795 1420 594.248C1116.49 662.086 950.242 705.832 743.71 738.635C529.742 772.613 269.62 747.463 164.051 561.98C120.908 486.176 83.1544 404.965 62.6367 328.351C29.0678 202.964 2.34802 91.9672 2.34802 91.9672" stroke="url(#paint25_linear_2372_2064)" stroke-miterlimit="10"/>
<path d="M1918.37 628.239C1918.37 628.239 1722.9 507.449 1410.38 583.592C1100.07 659.201 933.728 708.64 725.465 743.781C511.045 779.953 247.988 755.102 148.17 560.792C107.962 482.533 73.7609 397.509 55.0496 318.219C24.6118 189.279 2.43809 76.7938 2.43809 76.7938" stroke="url(#paint26_linear_2372_2064)" stroke-miterlimit="10"/>
<path d="M1918.37 608.835C1918.37 608.835 1719.54 489.088 1400.76 572.924C1083.69 656.315 917.2 711.435 707.22 748.926C492.349 787.291 226.116 762.676 132.288 559.617C94.9559 478.838 64.3525 390.04 47.4476 308.111C20.1108 175.594 2.49837 61.646 2.49837 61.646" stroke="url(#paint27_linear_2372_2064)" stroke-miterlimit="10"/>
<path d="M1918.37 589.43C1918.37 589.43 1716.2 470.741 1391.15 562.255C1067.31 653.429 900.671 714.203 688.976 754.057C473.638 794.591 204.078 770.145 116.407 558.416C81.8898 475.05 54.9292 382.544 39.8458 297.965C15.5798 161.83 2.57371 46.4588 2.57371 46.4588" stroke="url(#paint28_linear_2372_2064)" stroke-miterlimit="10"/>
<path d="M1918.37 570.038C1918.37 570.038 1712.89 452.407 1381.53 551.599C1050.96 650.556 884.127 716.985 670.731 759.216C454.927 801.917 181.874 777.537 100.526 557.253C68.7632 471.237 45.4757 375.075 32.2438 287.857C11.0336 148.08 2.64886 31.311 2.64886 31.311" stroke="url(#paint29_linear_2372_2064)" stroke-miterlimit="10"/>
<path d="M1918.37 550.633C1918.37 550.633 1709.74 434.425 1371.92 540.93C1034.77 648.036 867.508 719.531 652.487 764.347C436.14 808.994 159.535 784.81 84.6446 556.065C55.5916 467.346 36.0221 367.566 24.6418 277.724C6.47239 134.277 2.70914 16.1369 2.70914 16.1369" stroke="url(#paint30_linear_2372_2064)" stroke-miterlimit="10"/>
<path d="M1918.37 531.228C1918.37 531.228 1706.31 415.726 1362.31 530.262C1018.31 644.797 851.025 722.469 634.257 769.48C417.489 816.49 137.105 791.966 68.7783 554.864C0.451157 317.761 2.79954 0.963218 2.79954 0.963218" stroke="url(#paint31_linear_2372_2064)" stroke-miterlimit="10"/>
<defs>
<linearGradient id="paint0_linear_2372_2064" x1="895.955" y1="547.593" x2="890.013" y2="1149.9" gradientUnits="userSpaceOnUse">
<stop stop-color="#E4D6C0"/>
<stop offset="1" stop-color="white"/>
</linearGradient>
<linearGradient id="paint1_linear_2372_2064" x1="895.995" y1="531.931" x2="890.128" y2="1130.4" gradientUnits="userSpaceOnUse">
<stop stop-color="#E4D6C0"/>
<stop offset="1" stop-color="white"/>
</linearGradient>
<linearGradient id="paint2_linear_2372_2064" x1="896.051" y1="516.29" x2="890.26" y2="1110.89" gradientUnits="userSpaceOnUse">
<stop stop-color="#E4D6C0"/>
<stop offset="1" stop-color="white"/>
</linearGradient>
<linearGradient id="paint3_linear_2372_2064" x1="896.075" y1="500.616" x2="890.358" y2="1091.37" gradientUnits="userSpaceOnUse">
<stop stop-color="#E4D6C0"/>
<stop offset="1" stop-color="white"/>
</linearGradient>
<linearGradient id="paint4_linear_2372_2064" x1="896.124" y1="484.978" x2="890.48" y2="1071.87" gradientUnits="userSpaceOnUse">
<stop stop-color="#E4D6C0"/>
<stop offset="1" stop-color="white"/>
</linearGradient>
<linearGradient id="paint5_linear_2372_2064" x1="896.164" y1="469.326" x2="890.594" y2="1052.36" gradientUnits="userSpaceOnUse">
<stop stop-color="#E4D6C0"/>
<stop offset="1" stop-color="white"/>
</linearGradient>
<linearGradient id="paint6_linear_2372_2064" x1="896.204" y1="453.662" x2="890.708" y2="1032.84" gradientUnits="userSpaceOnUse">
<stop stop-color="#E4D6C0"/>
<stop offset="1" stop-color="white"/>
</linearGradient>
<linearGradient id="paint7_linear_2372_2064" x1="896.236" y1="438.024" x2="890.813" y2="1013.34" gradientUnits="userSpaceOnUse">
<stop stop-color="#E4D6C0"/>
<stop offset="1" stop-color="white"/>
</linearGradient>
<linearGradient id="paint8_linear_2372_2064" x1="896.276" y1="422.349" x2="890.925" y2="993.825" gradientUnits="userSpaceOnUse">
<stop stop-color="#E4D6C0"/>
<stop offset="1" stop-color="white"/>
</linearGradient>
<linearGradient id="paint9_linear_2372_2064" x1="896.324" y1="406.721" x2="891.045" y2="974.322" gradientUnits="userSpaceOnUse">
<stop stop-color="#E4D6C0"/>
<stop offset="1" stop-color="white"/>
</linearGradient>
<linearGradient id="paint10_linear_2372_2064" x1="896.364" y1="391.047" x2="891.156" y2="954.808" gradientUnits="userSpaceOnUse">
<stop stop-color="#E4D6C0"/>
<stop offset="1" stop-color="white"/>
</linearGradient>
<linearGradient id="paint11_linear_2372_2064" x1="896.405" y1="375.384" x2="891.267" y2="935.293" gradientUnits="userSpaceOnUse">
<stop stop-color="#E4D6C0"/>
<stop offset="1" stop-color="white"/>
</linearGradient>
<linearGradient id="paint12_linear_2372_2064" x1="896.453" y1="359.745" x2="891.385" y2="915.791" gradientUnits="userSpaceOnUse">
<stop stop-color="#E4D6C0"/>
<stop offset="1" stop-color="white"/>
</linearGradient>
<linearGradient id="paint13_linear_2372_2064" x1="896.485" y1="344.081" x2="891.488" y2="896.276" gradientUnits="userSpaceOnUse">
<stop stop-color="#E4D6C0"/>
<stop offset="1" stop-color="white"/>
</linearGradient>
<linearGradient id="paint14_linear_2372_2064" x1="896.525" y1="328.43" x2="891.597" y2="876.762" gradientUnits="userSpaceOnUse">
<stop stop-color="#E4D6C0"/>
<stop offset="1" stop-color="white"/>
</linearGradient>
<linearGradient id="paint15_linear_2372_2064" x1="896.565" y1="312.78" x2="891.706" y2="857.26" gradientUnits="userSpaceOnUse">
<stop stop-color="#E4D6C0"/>
<stop offset="1" stop-color="white"/>
</linearGradient>
<linearGradient id="paint16_linear_2372_2064" x1="896.605" y1="297.117" x2="891.814" y2="837.745" gradientUnits="userSpaceOnUse">
<stop stop-color="#E4D6C0"/>
<stop offset="1" stop-color="white"/>
</linearGradient>
<linearGradient id="paint17_linear_2372_2064" x1="896.645" y1="281.464" x2="891.923" y2="818.229" gradientUnits="userSpaceOnUse">
<stop stop-color="#E4D6C0"/>
<stop offset="1" stop-color="white"/>
</linearGradient>
<linearGradient id="paint18_linear_2372_2064" x1="896.693" y1="265.803" x2="892.038" y2="798.728" gradientUnits="userSpaceOnUse">
<stop stop-color="#E4D6C0"/>
<stop offset="1" stop-color="white"/>
</linearGradient>
<linearGradient id="paint19_linear_2372_2064" x1="896.733" y1="250.152" x2="892.145" y2="779.214" gradientUnits="userSpaceOnUse">
<stop stop-color="#E4D6C0"/>
<stop offset="1" stop-color="white"/>
</linearGradient>
<linearGradient id="paint20_linear_2372_2064" x1="896.766" y1="234.524" x2="892.244" y2="759.71" gradientUnits="userSpaceOnUse">
<stop stop-color="#E4D6C0"/>
<stop offset="1" stop-color="white"/>
</linearGradient>
<linearGradient id="paint21_linear_2372_2064" x1="896.806" y1="218.98" x2="892.332" y2="741.351" gradientUnits="userSpaceOnUse">
<stop stop-color="#E4D6C0"/>
<stop offset="1" stop-color="white"/>
</linearGradient>
<linearGradient id="paint22_linear_2372_2064" x1="896.854" y1="206.296" x2="892.04" y2="748.167" gradientUnits="userSpaceOnUse">
<stop stop-color="#E4D6C0"/>
<stop offset="1" stop-color="white"/>
</linearGradient>
<linearGradient id="paint23_linear_2372_2064" x1="896.886" y1="193.603" x2="891.719" y2="755.004" gradientUnits="userSpaceOnUse">
<stop stop-color="#E4D6C0"/>
<stop offset="1" stop-color="white"/>
</linearGradient>
<linearGradient id="paint24_linear_2372_2064" x1="896.926" y1="180.936" x2="891.393" y2="761.855" gradientUnits="userSpaceOnUse">
<stop stop-color="#E4D6C0"/>
<stop offset="1" stop-color="white"/>
</linearGradient>
<linearGradient id="paint25_linear_2372_2064" x1="896.974" y1="168.244" x2="891.062" y2="768.699" gradientUnits="userSpaceOnUse">
<stop stop-color="#E4D6C0"/>
<stop offset="1" stop-color="white"/>
</linearGradient>
<linearGradient id="paint26_linear_2372_2064" x1="897.022" y1="155.554" x2="890.719" y2="775.556" gradientUnits="userSpaceOnUse">
<stop stop-color="#E4D6C0"/>
<stop offset="1" stop-color="white"/>
</linearGradient>
<linearGradient id="paint27_linear_2372_2064" x1="897.054" y1="142.887" x2="890.348" y2="782.415" gradientUnits="userSpaceOnUse">
<stop stop-color="#E4D6C0"/>
<stop offset="1" stop-color="white"/>
</linearGradient>
<linearGradient id="paint28_linear_2372_2064" x1="897.095" y1="130.182" x2="889.971" y2="789.247" gradientUnits="userSpaceOnUse">
<stop stop-color="#E4D6C0"/>
<stop offset="1" stop-color="white"/>
</linearGradient>
<linearGradient id="paint29_linear_2372_2064" x1="897.135" y1="117.515" x2="889.583" y2="796.098" gradientUnits="userSpaceOnUse">
<stop stop-color="#E4D6C0"/>
<stop offset="1" stop-color="white"/>
</linearGradient>
<linearGradient id="paint30_linear_2372_2064" x1="897.167" y1="104.809" x2="889.176" y2="802.817" gradientUnits="userSpaceOnUse">
<stop stop-color="#E4D6C0"/>
<stop offset="1" stop-color="white"/>
</linearGradient>
<linearGradient id="paint31_linear_2372_2064" x1="897.21" y1="92.1225" x2="888.764" y2="809.706" gradientUnits="userSpaceOnUse">
<stop stop-color="#E4D6C0"/>
<stop offset="1" stop-color="white"/>
</linearGradient>
</defs>
</svg>
