<svg width="313" height="117" viewBox="0 0 313 117" fill="none" xmlns="http://www.w3.org/2000/svg">
<g clip-path="url(#clip0_2530_2478)">
<path d="M81.565 8.44603H80.3929V8.36151C77.0645 7.90197 74.3049 5.49858 73.3524 2.33984H15.6974C8.36589 2.33984 2.41016 8.29285 2.41016 15.6007V47.8299C7.43456 48.9048 11.2101 53.3761 11.2101 58.7111C11.2101 64.0461 7.43456 68.5069 2.41016 69.5845V101.399C2.41016 108.707 8.37383 114.66 15.6974 114.66H73.4847C74.5563 111.697 77.2179 109.497 80.3929 109.053V108.968H82.7212V109.053C85.8936 109.497 88.5606 111.697 89.6295 114.66H297.294C304.618 114.66 310.579 108.707 310.579 101.399V69.5845C305.554 68.5069 301.779 64.0382 301.779 58.7111C301.779 53.3841 305.554 48.9154 310.579 47.8299V15.6007C310.579 8.29285 304.615 2.33984 297.294 2.33984H89.7776C88.8172 5.49858 86.0656 7.90197 82.7371 8.36151V8.44603H81.565ZM82.7371 104.177H80.3929V99.3865H82.7371V104.177ZM82.7371 94.6061H80.3929V89.8178H82.7371V94.6061ZM82.7371 85.0348H80.3929V80.2439H82.7371V85.0348ZM82.7371 75.4635H80.3929V70.6752H82.7371V75.4635ZM82.7371 65.8949H80.3929V61.104H82.7371V65.8949ZM82.7371 56.3236H80.3929V51.5327H82.7371V56.3236ZM82.7371 46.7523H80.3929V41.964H82.7371V46.7523ZM82.7371 37.1837H80.3929V32.3927H82.7371V37.1837ZM82.7371 27.6124H80.3929V22.8241H82.7371V27.6124ZM82.7371 18.0411H80.3929V13.2528H82.7371V18.0411Z" fill="#F4F1EA"/>
<path d="M78.1098 5.07118C77.4536 4.63276 76.8821 4.07285 76.4297 3.42578C76.8848 4.07285 77.4536 4.63276 78.1098 5.07118Z" fill="#CBB9A3"/>
<path d="M307.234 113.437C308.007 112.798 308.719 112.095 309.354 111.321C308.713 112.092 308.01 112.803 307.234 113.437Z" fill="#CBB9A3"/>
<path d="M3.63086 111.321C4.27115 112.092 4.97493 112.803 5.75016 113.437C4.97493 112.795 4.26321 112.092 3.63086 111.321Z" fill="#CBB9A3"/>
<path d="M87.4883 1.81682C87.6126 1.43386 87.6999 1.0377 87.7555 0.623047C87.7079 1.0377 87.6126 1.43386 87.4883 1.81682Z" fill="#CBB9A3"/>
<path d="M311.698 107.469C311.299 108.404 310.817 109.286 310.262 110.12C310.823 109.294 311.307 108.404 311.698 107.469Z" fill="#CBB9A3"/>
<path d="M86.6938 3.42285C86.2413 4.06992 85.6698 4.63247 85.0137 5.06825C85.6698 4.63247 86.2387 4.07256 86.6938 3.42285Z" fill="#CBB9A3"/>
<path d="M2.73034 110.12C2.16678 109.294 1.6826 108.404 1.29102 107.469C1.69318 108.404 2.17472 109.286 2.73034 110.12Z" fill="#CBB9A3"/>
<path d="M75.377 0.623047C75.4246 1.03506 75.5172 1.43386 75.6442 1.81682C75.5172 1.43386 75.4299 1.0377 75.377 0.623047Z" fill="#CBB9A3"/>
<mask id="mask0_2530_2478" style="mask-type:luminance" maskUnits="userSpaceOnUse" x="81" y="0" width="233" height="117">
<path d="M313.002 0H81.3926V117H313.002V0Z" fill="white"/>
</mask>
<g mask="url(#mask0_2530_2478)">
<path d="M297.294 0H87.7928C87.7928 0.211287 87.777 0.419932 87.7531 0.623296C87.7055 1.0353 87.6103 1.43411 87.4859 1.81707C87.2981 2.39546 87.0255 2.9316 86.6869 3.41756C86.2344 4.06463 85.6629 4.62718 85.0068 5.06296C84.0225 5.71795 82.8346 6.1009 81.5593 6.1009H82.7314V8.35639C86.0598 7.88892 88.8115 5.49345 89.7719 2.33472H297.289C304.612 2.33472 310.573 8.28772 310.573 15.5956V47.83C305.549 48.9049 301.773 53.3763 301.773 58.7113C301.773 64.0463 305.549 68.5071 310.573 69.5846V101.399C310.573 108.707 304.609 114.66 297.289 114.66H89.637C88.5654 111.697 85.9011 109.497 82.7287 109.053V111.308H81.5566C84.8242 111.308 87.4965 113.82 87.7611 117.003H297.294C301.069 117.003 304.53 115.669 307.234 113.44C308.007 112.801 308.718 112.098 309.353 111.324C309.674 110.941 309.97 110.537 310.253 110.123C310.817 109.296 311.301 108.406 311.692 107.471C312.481 105.606 312.92 103.554 312.92 101.402V67.4929C308.057 67.4929 304.12 63.5603 304.12 58.7086C304.12 53.857 308.06 49.9244 312.92 49.9244V15.6009C312.92 6.98038 305.924 0 297.289 0H297.294Z" fill="#CBB9A3"/>
</g>
<mask id="mask1_2530_2478" style="mask-type:luminance" maskUnits="userSpaceOnUse" x="0" y="0" width="82" height="117">
<path d="M81.7451 0H0V117H81.7451V0Z" fill="white"/>
</mask>
<g mask="url(#mask1_2530_2478)">
<path d="M80.3934 109.053C77.221 109.497 74.5567 111.697 73.4851 114.66H15.6979C8.37427 114.66 2.4106 108.707 2.4106 101.399V69.5845C7.435 68.507 11.2106 64.0383 11.2106 58.7112C11.2106 53.3841 7.435 48.9128 2.4106 47.8299V15.6008C2.4106 8.2929 8.36633 2.3399 15.6979 2.3399H73.3529C74.3159 5.49863 77.0649 7.90202 80.3934 8.36157V6.10608H81.5655C80.2902 6.10608 79.1022 5.72312 78.118 5.06814C77.4618 4.62972 76.8903 4.06981 76.4379 3.42274C76.1019 2.93942 75.8293 2.40328 75.6415 1.82488C75.5171 1.44193 75.4298 1.04577 75.3743 0.631115C75.3504 0.427752 75.3346 0.219106 75.3346 0.00781924H15.6979C7.06194 -0.000104012 0.0664062 6.98028 0.0664062 15.6008V49.9217C4.92942 49.9217 8.86639 53.8516 8.86639 58.7033C8.86639 63.5549 4.92677 67.4875 0.0664062 67.4875V101.396C0.0664062 103.549 0.502966 105.601 1.29406 107.463C1.69358 108.401 2.17777 109.28 2.73339 110.115C3.01384 110.529 3.31282 110.933 3.63297 111.316C4.27325 112.09 4.97704 112.798 5.75226 113.432C8.45629 115.656 11.9197 116.995 15.6926 116.995H75.3557C75.623 113.804 78.3032 111.3 81.5602 111.3H80.396V109.045V109.053H80.3934Z" fill="#CBB9A3"/>
</g>
<path d="M82.7365 8.44584V8.36133C82.3529 8.41415 81.9613 8.44584 81.5645 8.44584H82.7365Z" fill="#CBB9A3"/>
<path d="M81.5569 8.44584C81.1573 8.44584 80.7684 8.41415 80.3848 8.36133V8.44584H81.5569Z" fill="#CBB9A3"/>
<path d="M80.3926 8.36193C80.7762 8.41475 81.1678 8.44644 81.5647 8.44644C81.9642 8.44644 82.3531 8.41475 82.7368 8.36193V6.10645H80.3926V8.36193Z" fill="#CBB9A3"/>
<path d="M80.3926 61.0957H82.7368V65.8866H80.3926V61.0957Z" fill="#CBB9A3"/>
<path d="M80.3926 13.2373H82.7368V18.0256H80.3926V13.2373Z" fill="#CBB9A3"/>
<path d="M80.3926 99.3867H82.7368V104.178H80.3926V99.3867Z" fill="#CBB9A3"/>
<path d="M80.3926 41.9561H82.7368V46.747H80.3926V41.9561Z" fill="#CBB9A3"/>
<path d="M80.3926 89.8184H82.7368V94.6066H80.3926V89.8184Z" fill="#CBB9A3"/>
<path d="M80 32H82.3442V36.7883H80V32Z" fill="#CBB9A3"/>
<path d="M80.3926 22.8057H82.7368V27.5966H80.3926V22.8057Z" fill="#CBB9A3"/>
<path d="M80.3926 80.2471H82.7368V85.038H80.3926V80.2471Z" fill="#CBB9A3"/>
<path d="M80.3926 70.667H82.7368V75.4553H80.3926V70.667Z" fill="#CBB9A3"/>
<path d="M80.3926 51.5273H82.7368V56.3156H80.3926V51.5273Z" fill="#CBB9A3"/>
<path d="M81.5645 108.966C81.964 108.966 82.345 108.995 82.7286 109.05V108.966H81.5645Z" fill="#CBB9A3"/>
<path d="M80.3926 109.053C80.7762 108.998 81.1678 108.969 81.5567 108.969H80.3926V109.053Z" fill="#CBB9A3"/>
<path d="M82.7373 109.053C82.3537 108.998 81.9621 108.969 81.5705 108.969H81.5626C81.1631 108.969 80.7821 108.998 80.3984 109.053V111.309H82.7347V109.053H82.7373Z" fill="#CBB9A3"/>
<path d="M163.704 34.92H178.608V36.288H163.704V34.92ZM166.344 39.624H175.896V40.56H166.344V39.624ZM166.344 41.592H175.896V42.552H166.344V41.592ZM165.408 37.536H176.784V44.208H175.08V38.592H167.04V44.208H165.408V37.536ZM163.032 43.608H179.04V46.848H177.384V44.76H164.592V46.848H163.032V43.608ZM166.128 45.48L167.328 46.152C167.008 46.6 166.624 47.08 166.176 47.592C165.744 48.088 165.248 48.512 164.688 48.864L163.584 47.928C164.096 47.64 164.576 47.272 165.024 46.824C165.472 46.36 165.84 45.912 166.128 45.48ZM167.544 45.408H169.056V46.92C169.056 47.144 169.112 47.288 169.224 47.352C169.336 47.416 169.6 47.448 170.016 47.448C170.112 47.448 170.288 47.448 170.544 47.448C170.816 47.448 171.112 47.448 171.432 47.448C171.752 47.448 172.056 47.448 172.344 47.448C172.632 47.448 172.84 47.448 172.968 47.448C173.256 47.448 173.448 47.392 173.544 47.28C173.64 47.152 173.704 46.856 173.736 46.392C173.88 46.472 174.072 46.552 174.312 46.632C174.568 46.696 174.784 46.752 174.96 46.8C174.896 47.488 174.736 47.952 174.48 48.192C174.24 48.432 173.808 48.552 173.184 48.552C173.088 48.552 172.88 48.552 172.56 48.552C172.256 48.552 171.912 48.552 171.528 48.552C171.144 48.552 170.792 48.552 170.472 48.552C170.168 48.552 169.96 48.552 169.848 48.552C169.24 48.552 168.768 48.512 168.432 48.432C168.112 48.336 167.88 48.176 167.736 47.952C167.608 47.712 167.544 47.368 167.544 46.92V45.408ZM169.296 44.904L170.328 44.184C170.792 44.424 171.264 44.72 171.744 45.072C172.224 45.408 172.592 45.728 172.848 46.032L171.768 46.824C171.528 46.52 171.168 46.184 170.688 45.816C170.208 45.448 169.744 45.144 169.296 44.904ZM174.552 46.056L175.704 45.384C176.232 45.784 176.76 46.248 177.288 46.776C177.816 47.288 178.216 47.752 178.488 48.168L177.288 48.888C177.032 48.472 176.64 48 176.112 47.472C175.6 46.928 175.08 46.456 174.552 46.056ZM168.792 48.048L170.496 48.408C169.712 49.24 168.76 50.032 167.64 50.784C166.536 51.536 165.232 52.216 163.728 52.824C163.616 52.632 163.456 52.424 163.248 52.2C163.04 51.976 162.848 51.808 162.672 51.696C164.08 51.2 165.304 50.632 166.344 49.992C167.4 49.336 168.216 48.688 168.792 48.048ZM175.008 49.584H175.368L175.68 49.512L176.832 50.136C175.808 51.624 174.16 52.856 171.888 53.832C169.616 54.808 166.8 55.52 163.44 55.968C163.36 55.776 163.232 55.544 163.056 55.272C162.88 55.016 162.712 54.8 162.552 54.624C165.752 54.256 168.424 53.656 170.568 52.824C172.728 51.992 174.208 51.008 175.008 49.872V49.584ZM167.448 50.232C168.168 51.048 169.128 51.752 170.328 52.344C171.544 52.936 172.92 53.408 174.456 53.76C175.992 54.112 177.616 54.36 179.328 54.504C179.152 54.696 178.96 54.936 178.752 55.224C178.56 55.512 178.408 55.776 178.296 56.016C176.552 55.808 174.888 55.48 173.304 55.032C171.736 54.6 170.328 54.032 169.08 53.328C167.832 52.624 166.792 51.776 165.96 50.784L167.448 50.232ZM167.88 49.584H175.512V50.736H166.704L167.88 49.584ZM170.016 35.544L172.008 35.76C171.832 36.224 171.656 36.672 171.48 37.104C171.32 37.536 171.168 37.92 171.024 38.256L169.464 37.992C169.576 37.608 169.68 37.192 169.776 36.744C169.888 36.296 169.968 35.896 170.016 35.544ZM161.592 33.96L163.248 34.416C162.8 35.808 162.264 37.184 161.64 38.544C161.032 39.904 160.368 41.192 159.648 42.408C158.928 43.608 158.168 44.672 157.368 45.6C157.32 45.456 157.24 45.272 157.128 45.048C157.016 44.808 156.896 44.576 156.768 44.352C156.64 44.112 156.528 43.92 156.432 43.776C157.136 42.96 157.808 42.032 158.448 40.992C159.088 39.936 159.672 38.808 160.2 37.608C160.744 36.408 161.208 35.192 161.592 33.96ZM159.648 39.84L161.328 38.184L161.376 38.232V55.92H159.648V39.84ZM181.824 35.328H202.152V36.816H181.824V35.328ZM190.944 33.864H192.792V47.568H190.944V33.864ZM185.16 42.288V43.872H198.72V42.288H185.16ZM185.16 39.552V41.136H198.72V39.552H185.16ZM183.456 38.376H200.496V45.096H183.456V38.376ZM195.384 45.936L196.584 45.024C197.304 45.312 198.024 45.664 198.744 46.08C199.48 46.48 200.168 46.904 200.808 47.352C201.448 47.784 201.968 48.2 202.368 48.6L201.168 49.632C200.752 49.216 200.224 48.784 199.584 48.336C198.96 47.872 198.28 47.432 197.544 47.016C196.824 46.584 196.104 46.224 195.384 45.936ZM181.824 47.016C182.912 47.016 184.144 47.016 185.52 47.016C186.896 47 188.368 46.992 189.936 46.992C191.52 46.976 193.144 46.96 194.808 46.944C196.472 46.928 198.128 46.904 199.776 46.872L199.68 48.288C197.536 48.336 195.376 48.384 193.2 48.432C191.024 48.48 188.96 48.52 187.008 48.552C185.072 48.568 183.368 48.584 181.896 48.6L181.824 47.016ZM186.312 49.944H188.088V53.328C188.088 53.648 188.192 53.856 188.4 53.952C188.624 54.032 189.112 54.072 189.864 54.072C190.008 54.072 190.248 54.072 190.584 54.072C190.92 54.072 191.304 54.072 191.736 54.072C192.168 54.072 192.608 54.072 193.056 54.072C193.504 54.072 193.912 54.072 194.28 54.072C194.648 54.072 194.928 54.072 195.12 54.072C195.504 54.072 195.792 54.016 195.984 53.904C196.192 53.792 196.336 53.568 196.416 53.232C196.512 52.88 196.576 52.352 196.608 51.648C196.832 51.776 197.096 51.896 197.4 52.008C197.704 52.12 197.976 52.2 198.216 52.248C198.136 53.16 198 53.856 197.808 54.336C197.632 54.816 197.344 55.144 196.944 55.32C196.544 55.496 195.976 55.584 195.24 55.584C195.128 55.584 194.88 55.584 194.496 55.584C194.128 55.584 193.704 55.584 193.224 55.584C192.744 55.584 192.256 55.584 191.76 55.584C191.28 55.584 190.856 55.584 190.488 55.584C190.136 55.584 189.896 55.584 189.768 55.584C188.856 55.584 188.144 55.52 187.632 55.392C187.136 55.28 186.792 55.056 186.6 54.72C186.408 54.4 186.312 53.944 186.312 53.352V49.944ZM189.744 49.68L190.896 48.672C191.376 48.912 191.872 49.184 192.384 49.488C192.896 49.792 193.376 50.104 193.824 50.424C194.288 50.744 194.664 51.048 194.952 51.336L193.752 52.44C193.48 52.152 193.12 51.848 192.672 51.528C192.24 51.192 191.768 50.864 191.256 50.544C190.744 50.208 190.24 49.92 189.744 49.68ZM198.096 50.424L199.632 49.872C200.016 50.336 200.4 50.84 200.784 51.384C201.168 51.928 201.512 52.464 201.816 52.992C202.12 53.504 202.344 53.976 202.488 54.408L200.856 55.008C200.712 54.592 200.488 54.12 200.184 53.592C199.896 53.064 199.568 52.52 199.2 51.96C198.848 51.4 198.48 50.888 198.096 50.424ZM183.504 49.848L185.04 50.472C184.88 50.968 184.68 51.504 184.44 52.08C184.216 52.64 183.968 53.192 183.696 53.736C183.424 54.28 183.12 54.768 182.784 55.2L181.248 54.312C181.568 53.928 181.872 53.48 182.16 52.968C182.448 52.456 182.704 51.928 182.928 51.384C183.168 50.84 183.36 50.328 183.504 49.848ZM209.064 47.4H221.304V49.032H209.064V47.4ZM220.8 47.4H222.624C222.624 47.4 222.616 47.504 222.6 47.712C222.6 47.904 222.592 48.072 222.576 48.216C222.464 49.704 222.352 50.928 222.24 51.888C222.128 52.832 221.992 53.56 221.832 54.072C221.672 54.6 221.48 54.976 221.256 55.2C221.048 55.424 220.808 55.584 220.536 55.68C220.264 55.776 219.944 55.84 219.576 55.872C219.256 55.904 218.792 55.912 218.184 55.896C217.576 55.896 216.936 55.872 216.264 55.824C216.248 55.568 216.184 55.28 216.072 54.96C215.976 54.64 215.856 54.36 215.712 54.12C216.368 54.184 216.992 54.224 217.584 54.24C218.176 54.256 218.592 54.264 218.832 54.264C219.072 54.264 219.256 54.248 219.384 54.216C219.528 54.184 219.648 54.112 219.744 54C219.92 53.856 220.064 53.56 220.176 53.112C220.304 52.648 220.416 51.976 220.512 51.096C220.624 50.216 220.72 49.072 220.8 47.664V47.4ZM214.632 44.856H216.48C216.352 46.168 216.144 47.4 215.856 48.552C215.584 49.704 215.152 50.76 214.56 51.72C213.984 52.664 213.176 53.496 212.136 54.216C211.112 54.952 209.768 55.56 208.104 56.04C208.04 55.896 207.952 55.728 207.84 55.536C207.728 55.36 207.6 55.184 207.456 55.008C207.328 54.832 207.2 54.68 207.072 54.552C208.608 54.152 209.848 53.64 210.792 53.016C211.736 52.376 212.464 51.64 212.976 50.808C213.504 49.976 213.88 49.064 214.104 48.072C214.344 47.064 214.52 45.992 214.632 44.856ZM205.32 42.024H226.704V43.656H205.32V42.024ZM209.4 37.68H222.792V39.288H209.4V37.68ZM218.832 38.472C219.36 39.736 220.04 40.952 220.872 42.12C221.72 43.288 222.68 44.328 223.752 45.24C224.824 46.152 225.96 46.872 227.16 47.4C227.032 47.512 226.888 47.656 226.728 47.832C226.568 47.992 226.416 48.168 226.272 48.36C226.128 48.536 226.008 48.712 225.912 48.888C224.68 48.248 223.512 47.424 222.408 46.416C221.32 45.408 220.344 44.272 219.48 43.008C218.616 41.728 217.888 40.376 217.296 38.952L218.832 38.472ZM219.792 35.136L221.208 34.296C221.832 34.808 222.464 35.376 223.104 36C223.76 36.624 224.376 37.24 224.952 37.848C225.528 38.456 225.992 39.016 226.344 39.528L224.808 40.464C224.488 39.984 224.048 39.432 223.488 38.808C222.944 38.184 222.344 37.552 221.688 36.912C221.048 36.256 220.416 35.664 219.792 35.136ZM210.12 34.296L211.776 34.776C211.2 35.896 210.472 36.96 209.592 37.968C208.712 38.976 207.816 39.824 206.904 40.512C206.808 40.416 206.672 40.296 206.496 40.152C206.336 40.008 206.168 39.864 205.992 39.72C205.816 39.56 205.664 39.44 205.536 39.36C206.448 38.752 207.312 38.008 208.128 37.128C208.944 36.232 209.608 35.288 210.12 34.296ZM214.728 33.84L216.528 34.152C215.664 37.816 214.392 40.904 212.712 43.416C211.032 45.912 208.816 47.92 206.064 49.44C205.984 49.312 205.856 49.168 205.68 49.008C205.52 48.832 205.344 48.656 205.152 48.48C204.976 48.304 204.824 48.168 204.696 48.072C207.432 46.712 209.6 44.856 211.2 42.504C212.8 40.136 213.976 37.248 214.728 33.84Z" fill="#5B4C39"/>
<path d="M143.142 76.332H147.16V77.144H142.568L143.142 76.332ZM146.852 76.332H147.076L147.272 76.29L147.902 76.668C147.482 77.536 146.908 78.264 146.18 78.852C145.461 79.44 144.635 79.916 143.702 80.28C142.778 80.6533 141.803 80.938 140.776 81.134C140.739 81.05 140.687 80.952 140.622 80.84C140.557 80.728 140.487 80.616 140.412 80.504C140.347 80.392 140.281 80.3033 140.216 80.238C141.205 80.0793 142.139 79.846 143.016 79.538C143.903 79.23 144.677 78.8287 145.34 78.334C146.003 77.83 146.507 77.2187 146.852 76.5V76.332ZM143.03 76.892C143.385 77.4707 143.856 77.984 144.444 78.432C145.041 78.88 145.727 79.2533 146.502 79.552C147.286 79.8507 148.131 80.07 149.036 80.21C148.961 80.2847 148.882 80.3733 148.798 80.476C148.714 80.588 148.635 80.7 148.56 80.812C148.495 80.9333 148.434 81.036 148.378 81.12C147.454 80.9427 146.591 80.6767 145.788 80.322C144.995 79.9673 144.29 79.5287 143.674 79.006C143.058 78.474 142.554 77.8673 142.162 77.186L143.03 76.892ZM142.82 73.784V74.722H146.908V73.784H142.82ZM142.82 72.174V73.098H146.908V72.174H142.82ZM141.854 71.446H147.916V75.45H141.854V71.446ZM142.26 69.64H148.756V70.536H142.26V69.64ZM142.596 68.24L143.59 68.394C143.329 69.0473 143.002 69.7287 142.61 70.438C142.227 71.138 141.747 71.7913 141.168 72.398C141.084 72.286 140.967 72.1693 140.818 72.048C140.669 71.9267 140.538 71.838 140.426 71.782C140.949 71.25 141.392 70.662 141.756 70.018C142.12 69.374 142.4 68.7813 142.596 68.24ZM143.674 75.128L144.71 75.324C144.309 75.94 143.8 76.5513 143.184 77.158C142.577 77.7553 141.849 78.3013 141 78.796C140.944 78.7213 140.874 78.642 140.79 78.558C140.715 78.4647 140.631 78.3807 140.538 78.306C140.454 78.222 140.375 78.1567 140.3 78.11C141.103 77.69 141.789 77.214 142.358 76.682C142.927 76.1407 143.366 75.6227 143.674 75.128ZM137.92 75.1L138.872 73.966V81.12H137.92V75.1ZM136.156 70.9H139.964V71.824H136.156V70.9ZM137.878 68.31H138.844V71.404H137.878V68.31ZM138.76 74.022C138.844 74.1247 138.979 74.288 139.166 74.512C139.362 74.736 139.567 74.9833 139.782 75.254C139.997 75.5153 140.193 75.758 140.37 75.982C140.547 76.206 140.673 76.3693 140.748 76.472L140.118 77.186C140.034 77.018 139.908 76.8127 139.74 76.57C139.572 76.318 139.39 76.0567 139.194 75.786C139.007 75.5153 138.825 75.2633 138.648 75.03C138.48 74.7967 138.34 74.61 138.228 74.47L138.76 74.022ZM139.586 70.9H139.782L139.964 70.858L140.51 71.208C140.23 72.0573 139.866 72.888 139.418 73.7C138.97 74.5027 138.48 75.2447 137.948 75.926C137.425 76.598 136.893 77.1673 136.352 77.634C136.324 77.55 136.277 77.452 136.212 77.34C136.147 77.2187 136.077 77.1067 136.002 77.004C135.927 76.892 135.862 76.808 135.806 76.752C136.319 76.332 136.819 75.8187 137.304 75.212C137.799 74.6053 138.247 73.952 138.648 73.252C139.049 72.5427 139.362 71.8287 139.586 71.11V70.9ZM140.384 73.448L141.014 73.91C140.827 74.2087 140.627 74.512 140.412 74.82C140.197 75.128 140.001 75.394 139.824 75.618L139.32 75.226C139.488 74.9927 139.675 74.7033 139.88 74.358C140.095 74.0127 140.263 73.7093 140.384 73.448ZM156.568 75.044H157.632V76.388H156.568V75.044ZM156.554 76.206L157.394 76.584C157.03 76.9013 156.61 77.2047 156.134 77.494C155.658 77.774 155.145 78.0353 154.594 78.278C154.043 78.5113 153.483 78.7213 152.914 78.908C152.345 79.0853 151.785 79.2347 151.234 79.356C151.169 79.2347 151.075 79.0947 150.954 78.936C150.842 78.7773 150.735 78.6513 150.632 78.558C151.173 78.4647 151.724 78.3387 152.284 78.18C152.853 78.0213 153.399 77.844 153.922 77.648C154.454 77.4427 154.949 77.2187 155.406 76.976C155.863 76.724 156.246 76.4673 156.554 76.206ZM157.744 76.164C158.183 77.2653 158.897 78.1707 159.886 78.88C160.875 79.58 162.103 80.056 163.568 80.308C163.456 80.4013 163.344 80.532 163.232 80.7C163.12 80.8773 163.031 81.0267 162.966 81.148C161.939 80.9427 161.029 80.6253 160.236 80.196C159.452 79.776 158.78 79.2487 158.22 78.614C157.66 77.97 157.207 77.2233 156.862 76.374L157.744 76.164ZM161.874 76.864L162.644 77.424C162.205 77.732 161.711 78.0307 161.16 78.32C160.619 78.6093 160.115 78.852 159.648 79.048L158.99 78.53C159.298 78.3807 159.629 78.2127 159.984 78.026C160.339 77.83 160.684 77.634 161.02 77.438C161.356 77.2327 161.641 77.0413 161.874 76.864ZM152.578 80.126C153.045 80.0607 153.586 79.986 154.202 79.902C154.818 79.8087 155.471 79.706 156.162 79.594C156.862 79.482 157.562 79.3747 158.262 79.272L158.304 80.112C157.315 80.2707 156.33 80.4293 155.35 80.588C154.37 80.756 153.507 80.896 152.76 81.008L152.578 80.126ZM150.87 75.884H163.344V76.752H150.87V75.884ZM158.626 68.786H159.592V73.504H158.626V68.786ZM161.832 68.38H162.798V74.218C162.798 74.4887 162.761 74.694 162.686 74.834C162.621 74.974 162.485 75.0813 162.28 75.156C162.084 75.2307 161.818 75.2773 161.482 75.296C161.155 75.3053 160.745 75.31 160.25 75.31C160.231 75.1793 160.189 75.0347 160.124 74.876C160.059 74.708 159.989 74.5587 159.914 74.428C160.297 74.4373 160.642 74.4467 160.95 74.456C161.258 74.456 161.463 74.4513 161.566 74.442C161.669 74.442 161.739 74.428 161.776 74.4C161.813 74.3627 161.832 74.302 161.832 74.218V68.38ZM153.964 68.24H154.902V75.352H153.964V68.24ZM156.596 72.342H157.478V74.064C157.478 74.26 157.455 74.414 157.408 74.526C157.361 74.6287 157.263 74.708 157.114 74.764C156.974 74.8293 156.797 74.8667 156.582 74.876C156.367 74.8853 156.101 74.89 155.784 74.89C155.765 74.7873 155.728 74.6753 155.672 74.554C155.616 74.4327 155.56 74.3207 155.504 74.218C155.737 74.2273 155.933 74.232 156.092 74.232C156.26 74.232 156.377 74.2273 156.442 74.218C156.545 74.218 156.596 74.1667 156.596 74.064V72.342ZM151.514 72.342H157.002V73.056H152.354V74.974H151.514V72.342ZM150.814 70.844H157.884V71.6H150.814V70.844ZM152.27 69.234H157.394V69.976H151.976L152.27 69.234ZM152.144 68.282L152.97 68.478C152.821 68.9073 152.639 69.332 152.424 69.752C152.219 70.172 152.004 70.5313 151.78 70.83C151.696 70.7647 151.575 70.6947 151.416 70.62C151.257 70.536 151.122 70.466 151.01 70.41C151.262 70.13 151.481 69.8033 151.668 69.43C151.864 69.0473 152.023 68.6647 152.144 68.282ZM154.02 78.194L154.566 77.648L155.042 77.802V80.49H154.02V78.194ZM169.336 73.042L178.016 71.95L178.17 72.944L169.49 74.036L169.336 73.042ZM174.81 69.038L175.566 68.534C175.846 68.758 176.135 69.0053 176.434 69.276C176.733 69.5467 177.008 69.8173 177.26 70.088C177.521 70.3493 177.731 70.5827 177.89 70.788L177.078 71.348C176.919 71.1333 176.714 70.8953 176.462 70.634C176.219 70.3633 175.953 70.088 175.664 69.808C175.375 69.5187 175.09 69.262 174.81 69.038ZM169.182 68.38L170.176 68.702C169.821 69.5233 169.406 70.326 168.93 71.11C168.463 71.894 167.955 72.6313 167.404 73.322C166.853 74.0033 166.289 74.6053 165.71 75.128C165.673 75.044 165.617 74.9367 165.542 74.806C165.467 74.6753 165.388 74.5493 165.304 74.428C165.229 74.2973 165.159 74.1947 165.094 74.12C165.635 73.6627 166.158 73.1307 166.662 72.524C167.175 71.9173 167.647 71.2593 168.076 70.55C168.505 69.8407 168.874 69.1173 169.182 68.38ZM167.586 72.118L168.65 71.054L168.664 71.082V81.092H167.586V72.118ZM172.472 68.436H173.522C173.578 70.0133 173.681 71.4833 173.83 72.846C173.979 74.2087 174.185 75.408 174.446 76.444C174.707 77.48 175.034 78.2967 175.426 78.894C175.818 79.4913 176.275 79.818 176.798 79.874C177.003 79.8833 177.167 79.6827 177.288 79.272C177.409 78.8613 177.503 78.25 177.568 77.438C177.643 77.5033 177.736 77.5733 177.848 77.648C177.96 77.7227 178.072 77.7927 178.184 77.858C178.296 77.914 178.385 77.9607 178.45 77.998C178.347 78.8007 178.217 79.4353 178.058 79.902C177.899 80.3593 177.717 80.6767 177.512 80.854C177.316 81.0407 177.092 81.1247 176.84 81.106C176.215 81.0593 175.669 80.8213 175.202 80.392C174.735 79.9627 174.339 79.37 174.012 78.614C173.695 77.858 173.433 76.962 173.228 75.926C173.023 74.89 172.859 73.742 172.738 72.482C172.626 71.222 172.537 69.8733 172.472 68.436ZM180.186 68.912H185.324V69.878H180.186V68.912ZM181.614 73.266H184.792V79.328H181.614V78.404H183.854V74.204H181.614V73.266ZM181.88 69.374L182.874 69.528C182.734 70.4987 182.557 71.446 182.342 72.37C182.127 73.2847 181.866 74.1433 181.558 74.946C181.259 75.7393 180.895 76.444 180.466 77.06C180.429 76.976 180.373 76.8733 180.298 76.752C180.223 76.6307 180.144 76.5093 180.06 76.388C179.985 76.2667 179.911 76.1733 179.836 76.108C180.209 75.576 180.527 74.9553 180.788 74.246C181.049 73.5273 181.269 72.7573 181.446 71.936C181.623 71.1053 181.768 70.2513 181.88 69.374ZM181.166 73.266H182.09V80.476H181.166V73.266ZM186.43 71.04H192.114V71.894H186.43V71.04ZM186.43 73.182H192.114V74.05H186.43V73.182ZM185.926 75.38H192.072V76.318H185.926V75.38ZM188.81 69.304H189.776V75.786H188.81V69.304ZM187.088 77.424L187.816 77.326C187.891 77.7367 187.951 78.18 187.998 78.656C188.054 79.132 188.077 79.5473 188.068 79.902L187.298 80.028C187.307 79.6733 187.293 79.258 187.256 78.782C187.219 78.2967 187.163 77.844 187.088 77.424ZM188.572 77.312L189.244 77.13C189.393 77.466 189.529 77.8347 189.65 78.236C189.771 78.6373 189.86 78.9827 189.916 79.272L189.202 79.496C189.155 79.1973 189.071 78.8473 188.95 78.446C188.838 78.0353 188.712 77.6573 188.572 77.312ZM189.972 77.004L190.546 76.766C190.751 77.018 190.943 77.3027 191.12 77.62C191.297 77.928 191.433 78.194 191.526 78.418L190.91 78.698C190.826 78.474 190.695 78.2033 190.518 77.886C190.341 77.5687 190.159 77.2747 189.972 77.004ZM185.716 76.99L186.514 77.186C186.449 77.7927 186.337 78.3993 186.178 79.006C186.019 79.6033 185.777 80.098 185.45 80.49L184.694 80.07C185.002 79.7153 185.235 79.258 185.394 78.698C185.553 78.1287 185.66 77.5593 185.716 76.99ZM185.926 68.828H192.45V69.752H186.892V75.856H185.926V68.828ZM191.764 75.38H192.73C192.73 75.38 192.725 75.436 192.716 75.548C192.716 75.66 192.711 75.7533 192.702 75.828C192.655 76.92 192.599 77.802 192.534 78.474C192.478 79.1367 192.408 79.6453 192.324 80C192.249 80.3453 192.151 80.588 192.03 80.728C191.918 80.8587 191.797 80.952 191.666 81.008C191.545 81.064 191.386 81.1013 191.19 81.12C191.031 81.1293 190.812 81.134 190.532 81.134C190.261 81.134 189.972 81.1247 189.664 81.106C189.655 80.9753 189.622 80.8213 189.566 80.644C189.519 80.476 189.459 80.3267 189.384 80.196C189.692 80.224 189.972 80.238 190.224 80.238C190.476 80.2473 190.653 80.252 190.756 80.252C190.877 80.252 190.966 80.2427 191.022 80.224C191.087 80.2053 191.153 80.168 191.218 80.112C191.302 80.0093 191.377 79.7993 191.442 79.482C191.507 79.1647 191.563 78.6933 191.61 78.068C191.666 77.4333 191.717 76.598 191.764 75.562V75.38ZM201.144 80H195.558V70.004H201.144V71.11H196.818V74.232H200.892V75.324H196.818V78.894H201.144V80ZM204.037 80V70.004H205.297V78.88H209.665V80H204.037ZM220.528 74.988C220.528 75.7627 220.43 76.4673 220.234 77.102C220.038 77.7273 219.744 78.2687 219.352 78.726C218.969 79.1833 218.488 79.5333 217.91 79.776C217.34 80.0187 216.678 80.14 215.922 80.14C215.138 80.14 214.456 80.0187 213.878 79.776C213.299 79.524 212.818 79.174 212.436 78.726C212.053 78.2687 211.768 77.7227 211.582 77.088C211.395 76.4533 211.302 75.7487 211.302 74.974C211.302 73.9473 211.47 73.0513 211.806 72.286C212.142 71.5207 212.65 70.9233 213.332 70.494C214.022 70.0647 214.89 69.85 215.936 69.85C216.934 69.85 217.774 70.0647 218.456 70.494C219.137 70.914 219.65 71.5113 219.996 72.286C220.35 73.0513 220.528 73.952 220.528 74.988ZM212.632 74.988C212.632 75.828 212.748 76.5513 212.982 77.158C213.215 77.7647 213.574 78.2313 214.06 78.558C214.554 78.8847 215.175 79.048 215.922 79.048C216.678 79.048 217.294 78.8847 217.77 78.558C218.255 78.2313 218.614 77.7647 218.848 77.158C219.081 76.5513 219.198 75.828 219.198 74.988C219.198 73.728 218.936 72.7433 218.414 72.034C217.891 71.3153 217.065 70.956 215.936 70.956C215.18 70.956 214.554 71.1193 214.06 71.446C213.574 71.7633 213.215 72.2253 212.982 72.832C212.748 73.4293 212.632 74.148 212.632 74.988ZM229.442 80L228.238 76.906H224.276L223.086 80H221.812L225.718 69.962H226.852L230.744 80H229.442ZM226.74 72.762C226.712 72.6873 226.665 72.552 226.6 72.356C226.534 72.16 226.469 71.9593 226.404 71.754C226.348 71.5393 226.301 71.376 226.264 71.264C226.217 71.4507 226.166 71.642 226.11 71.838C226.063 72.0247 226.012 72.1973 225.956 72.356C225.909 72.5147 225.867 72.65 225.83 72.762L224.696 75.786H227.86L226.74 72.762ZM243.07 80H236.462V78.978L239.08 76.332C239.584 75.828 240.009 75.38 240.354 74.988C240.699 74.596 240.961 74.2133 241.138 73.84C241.315 73.4573 241.404 73.042 241.404 72.594C241.404 72.0433 241.241 71.628 240.914 71.348C240.587 71.0587 240.163 70.914 239.64 70.914C239.155 70.914 238.725 70.998 238.352 71.166C237.988 71.334 237.615 71.5673 237.232 71.866L236.574 71.04C236.835 70.816 237.12 70.6153 237.428 70.438C237.745 70.2607 238.086 70.1207 238.45 70.018C238.823 69.9153 239.22 69.864 239.64 69.864C240.265 69.864 240.802 69.9713 241.25 70.186C241.698 70.4007 242.043 70.7087 242.286 71.11C242.538 71.502 242.664 71.9733 242.664 72.524C242.664 72.916 242.603 73.2893 242.482 73.644C242.361 73.9893 242.188 74.33 241.964 74.666C241.74 75.002 241.469 75.3427 241.152 75.688C240.835 76.0333 240.485 76.3927 240.102 76.766L238.016 78.824V78.88H243.07V80ZM251.824 74.988C251.824 75.8 251.763 76.5233 251.642 77.158C251.52 77.7927 251.324 78.334 251.054 78.782C250.792 79.2207 250.447 79.5567 250.018 79.79C249.598 80.0233 249.089 80.14 248.492 80.14C247.745 80.14 247.124 79.9347 246.63 79.524C246.144 79.1133 245.78 78.5253 245.538 77.76C245.304 76.9853 245.188 76.0613 245.188 74.988C245.188 73.9053 245.295 72.9813 245.51 72.216C245.734 71.4507 246.088 70.8673 246.574 70.466C247.059 70.0553 247.698 69.85 248.492 69.85C249.238 69.85 249.859 70.0553 250.354 70.466C250.848 70.8673 251.217 71.4507 251.46 72.216C251.702 72.9813 251.824 73.9053 251.824 74.988ZM246.42 74.988C246.42 75.9027 246.485 76.6633 246.616 77.27C246.756 77.8767 246.975 78.334 247.274 78.642C247.582 78.9407 247.988 79.09 248.492 79.09C248.996 79.09 249.397 78.9407 249.696 78.642C250.004 78.3433 250.228 77.8907 250.368 77.284C250.508 76.668 250.578 75.9027 250.578 74.988C250.578 74.0733 250.508 73.3173 250.368 72.72C250.228 72.1133 250.004 71.6607 249.696 71.362C249.397 71.054 248.996 70.9 248.492 70.9C247.988 70.9 247.582 71.054 247.274 71.362C246.975 71.6607 246.756 72.1133 246.616 72.72C246.485 73.3173 246.42 74.0733 246.42 74.988ZM260.493 80H253.885V78.978L256.503 76.332C257.007 75.828 257.432 75.38 257.777 74.988C258.123 74.596 258.384 74.2133 258.561 73.84C258.739 73.4573 258.827 73.042 258.827 72.594C258.827 72.0433 258.664 71.628 258.337 71.348C258.011 71.0587 257.586 70.914 257.063 70.914C256.578 70.914 256.149 70.998 255.775 71.166C255.411 71.334 255.038 71.5673 254.655 71.866L253.997 71.04C254.259 70.816 254.543 70.6153 254.851 70.438C255.169 70.2607 255.509 70.1207 255.873 70.018C256.247 69.9153 256.643 69.864 257.063 69.864C257.689 69.864 258.225 69.9713 258.673 70.186C259.121 70.4007 259.467 70.7087 259.709 71.11C259.961 71.502 260.087 71.9733 260.087 72.524C260.087 72.916 260.027 73.2893 259.905 73.644C259.784 73.9893 259.611 74.33 259.387 74.666C259.163 75.002 258.893 75.3427 258.575 75.688C258.258 76.0333 257.908 76.3927 257.525 76.766L255.439 78.824V78.88H260.493V80ZM265.775 73.868C266.456 73.868 267.049 73.9847 267.553 74.218C268.057 74.4513 268.444 74.7873 268.715 75.226C268.995 75.6553 269.135 76.1827 269.135 76.808C269.135 77.4987 268.986 78.096 268.687 78.6C268.388 79.0947 267.959 79.4773 267.399 79.748C266.848 80.0093 266.181 80.14 265.397 80.14C264.884 80.14 264.398 80.0933 263.941 80C263.493 79.9067 263.115 79.7713 262.807 79.594V78.432C263.143 78.6373 263.549 78.8007 264.025 78.922C264.51 79.034 264.972 79.09 265.411 79.09C265.906 79.09 266.335 79.0153 266.699 78.866C267.072 78.7073 267.362 78.4693 267.567 78.152C267.772 77.8253 267.875 77.4193 267.875 76.934C267.875 76.2807 267.674 75.7813 267.273 75.436C266.872 75.0813 266.237 74.904 265.369 74.904C265.108 74.904 264.809 74.9273 264.473 74.974C264.137 75.0207 263.866 75.0673 263.661 75.114L263.045 74.722L263.423 70.004H268.435V71.124H264.473L264.235 74.022C264.394 73.994 264.608 73.9613 264.879 73.924C265.15 73.8867 265.448 73.868 265.775 73.868Z" fill="#5B4C39"/>
</g>
<defs>
<clipPath id="clip0_2530_2478">
<rect width="313" height="117" fill="white"/>
</clipPath>
</defs>
</svg>
